<svg version="1.1" id="Layer_1" xmlns="http://www.w3.org/2000/svg" xmlns:xlink="http://www.w3.org/1999/xlink" x="0px" y="0px"
	 width="100%" viewBox="0 0 275 183" enable-background="new 0 0 275 183" xml:space="preserve">
<path fill="#FEDC01" opacity="1.000000" stroke="none" 
	d="
M1.000000,93.000000 
	C1.000000,62.362583 1.000000,31.725166 1.000000,1.043875 
	C92.549973,1.043875 184.099960,1.043875 276.000000,1.043875 
	C276.000000,31.353331 276.000000,61.708008 275.555603,92.370392 
	C239.864960,92.678093 204.618713,92.678093 168.993698,92.678093 
	C168.993698,98.852173 169.143143,104.496735 168.959488,110.130432 
	C168.667007,119.102402 164.203903,124.229485 156.304672,124.202522 
	C153.588120,124.193253 150.876801,122.652573 148.293945,121.575546 
	C148.691620,120.879929 148.958420,120.420265 149.592316,119.949577 
	C156.596680,118.686615 161.117416,114.397903 161.922470,107.002762 
	C162.739426,99.497993 162.520020,91.880417 162.953110,84.018402 
	C164.097580,82.147224 165.043442,80.569885 166.071442,78.954247 
	C166.153564,78.915947 166.179092,78.718903 166.179092,78.718903 
	C166.179092,78.718903 166.007324,79.010643 165.771942,78.741936 
	C167.842361,73.133606 160.838455,66.408623 167.914093,61.325729 
	C165.327164,62.426125 163.567337,64.203659 161.562485,65.638885 
	C160.299637,66.542915 158.505966,67.689476 157.235733,67.413589 
	C153.503876,66.603073 152.297104,67.980057 152.592209,71.438583 
	C152.726715,73.014832 152.903702,74.587456 152.970459,76.428757 
	C152.590240,76.928558 152.300980,77.161324 151.741089,77.194092 
	C150.691254,76.653839 149.912033,76.313576 148.997147,75.682823 
	C147.623367,74.229675 146.385223,73.067017 145.197449,71.621819 
	C144.135071,69.543251 143.022339,67.747223 142.058212,65.624443 
	C145.028778,59.955368 150.768677,59.474060 155.548080,57.850014 
	C160.417358,56.195431 165.726120,55.834236 170.842453,54.906734 
	C170.881485,54.163738 170.920532,53.420742 170.959579,52.677750 
	C163.527710,51.111206 156.103577,49.505539 148.652512,48.036285 
	C147.873886,47.882751 146.835251,48.376034 146.090668,48.844734 
	C143.654831,50.378078 141.299149,52.038784 138.703461,53.468315 
	C137.797379,53.335102 137.100464,53.384098 136.403549,53.433098 
	C136.570190,53.670364 136.736816,53.907631 136.743439,54.448517 
	C134.424026,53.528767 132.254852,52.322231 130.108246,51.076786 
	C128.344421,50.053429 126.695641,48.293110 124.842941,48.056412 
	C117.492645,47.117336 111.555527,51.135735 105.807045,53.368790 
	C114.680595,56.171829 123.637947,59.001335 132.673294,61.855484 
	C131.078094,65.727669 129.979614,68.394127 128.584961,70.917633 
	C125.899872,70.146255 123.510963,69.517822 120.872910,68.891197 
	C119.979050,69.585800 119.334343,70.278595 118.570618,70.960861 
	C118.451591,70.950333 118.212692,70.955872 118.082291,70.725128 
	C117.651115,70.360657 117.350349,70.226936 116.837280,69.969749 
	C116.348862,69.664787 116.111412,69.442047 115.809074,68.897804 
	C114.739136,68.060989 113.772766,67.504440 112.491844,67.154678 
	C112.110756,68.867310 112.044220,70.373138 111.946808,72.215195 
	C111.873764,72.997444 111.831589,73.443489 111.572395,74.121902 
	C110.347015,75.257912 109.338669,76.161552 108.003426,77.358139 
	C109.758484,78.727097 111.224762,79.870811 112.852554,81.339127 
	C113.700401,81.836823 114.386742,82.009926 114.870438,82.540962 
	C114.743546,90.628082 114.819298,98.357277 114.922989,106.464127 
	C116.996033,111.030708 119.041122,115.219635 121.145081,119.529137 
	C123.025810,118.306061 123.952263,117.703568 124.904236,117.455490 
	C125.623909,119.232086 126.318054,120.654274 126.832291,122.425171 
	C113.887856,125.992668 108.046379,121.326317 107.994690,107.852089 
	C107.975708,102.905083 107.991623,97.957932 107.991623,92.814575 
	C106.385536,92.729965 105.255951,92.618782 104.126335,92.618469 
	C70.894592,92.609245 37.662853,92.607170 4.431126,92.627457 
	C3.287342,92.628159 2.143705,92.870361 1.000000,93.000000 
M170.010040,83.248665 
	C169.909973,82.367378 169.809906,81.486092 169.709824,80.604805 
	C169.405228,80.685532 169.100632,80.766251 168.796021,80.846970 
	C169.184555,81.885284 169.573090,82.923592 170.010040,83.248665 
M123.493912,67.551399 
	C123.493912,67.551399 123.514519,67.520714 123.493912,67.551399 
z"/>
<path fill="#EC1C25" opacity="1.000000" stroke="none" 
	d="
M276.000000,138.000000 
	C276.000000,153.315033 276.000000,168.630081 276.000000,184.000000 
	C184.627457,184.000000 93.254921,184.000092 1.882372,183.995636 
	C1.587818,183.995621 1.293268,183.929535 0.999358,183.888916 
	C1.000000,168.901474 1.000000,153.919403 1.466727,138.514557 
	C41.147552,138.098404 80.361649,138.105728 119.575745,138.111237 
	C135.230591,138.113434 135.230591,138.111603 137.216324,122.153725 
	C138.174988,122.480911 138.779922,122.811623 139.391144,123.539673 
	C139.655792,126.916382 139.705597,129.933289 140.233353,132.864120 
	C140.723190,135.584427 141.294678,138.192108 145.318268,138.178680 
	C188.878555,138.033325 232.439346,138.037003 276.000000,138.000000 
z"/>
<path fill="#034EA2" opacity="1.000000" stroke="none" 
	d="
M276.000000,137.531342 
	C232.439346,138.037003 188.878555,138.033325 145.318268,138.178680 
	C141.294678,138.192108 140.723190,135.584427 140.233353,132.864120 
	C139.705597,129.933289 139.655792,126.916382 139.673462,123.547737 
	C140.404999,123.422546 140.860504,123.686653 141.403259,124.307304 
	C142.266129,127.300880 143.041748,129.937897 143.552032,131.672836 
	C146.093826,130.849747 147.971390,130.241745 150.443680,129.441147 
	C148.792847,127.051903 147.418594,125.062973 146.331818,122.952820 
	C147.133865,122.491562 147.648483,122.151535 148.163086,121.811501 
	C150.876801,122.652573 153.588120,124.193253 156.304672,124.202522 
	C164.203903,124.229485 168.667007,119.102402 168.959488,110.130432 
	C169.143143,104.496735 168.993698,98.852173 168.993698,92.678093 
	C204.618713,92.678093 239.864960,92.678093 275.555603,92.839050 
	C276.000000,107.687561 276.000000,122.375122 276.000000,137.531342 
z"/>
<path fill="#034EA2" opacity="1.000000" stroke="none" 
	d="
M136.862579,122.157249 
	C135.230591,138.111603 135.230591,138.113434 119.575745,138.111237 
	C80.361649,138.105728 41.147552,138.098404 1.466727,138.045898 
	C1.000000,123.312439 1.000000,108.624878 1.000000,93.468658 
	C2.143705,92.870361 3.287342,92.628159 4.431126,92.627457 
	C37.662853,92.607170 70.894592,92.609245 104.126335,92.618469 
	C105.255951,92.618782 106.385536,92.729965 107.991623,92.814575 
	C107.991623,97.957932 107.975708,102.905083 107.994690,107.852089 
	C108.046379,121.326317 113.887856,125.992668 127.163132,122.400269 
	C128.159103,122.378197 128.644333,122.729721 129.032806,123.411766 
	C127.962219,125.669754 126.988380,127.597229 125.966675,129.619431 
	C128.501755,130.409973 130.334030,130.981354 132.966827,131.802368 
	C133.305923,129.040985 133.671494,126.064072 134.305557,122.979004 
	C135.037781,122.538185 135.501526,122.205536 136.178711,121.978302 
	C136.392151,122.083717 136.862579,122.157249 136.862579,122.157249 
z"/>
<path fill="#442C22" opacity="1.000000" stroke="none" 
	d="
M128.881134,71.060585 
	C129.979614,68.394127 131.078094,65.727669 132.673294,61.855484 
	C123.637947,59.001335 114.680595,56.171829 105.807045,53.368790 
	C111.555527,51.135735 117.492645,47.117336 124.842941,48.056412 
	C126.695641,48.293110 128.344421,50.053429 130.108246,51.076786 
	C132.254852,52.322231 134.424026,53.528767 137.078186,54.365295 
	C138.019516,53.869148 138.466080,53.759834 138.912643,53.650520 
	C141.299149,52.038784 143.654831,50.378078 146.090668,48.844734 
	C146.835251,48.376034 147.873886,47.882751 148.652512,48.036285 
	C156.103577,49.505539 163.527710,51.111206 170.959579,52.677750 
	C170.920532,53.420742 170.881485,54.163738 170.842453,54.906734 
	C165.726120,55.834236 160.417358,56.195431 155.548080,57.850014 
	C150.768677,59.474060 145.028778,59.955368 141.791367,65.566643 
	C140.913879,65.577438 140.451843,65.319275 139.662231,65.089088 
	C138.948715,66.038200 138.562790,66.959351 137.855621,67.993698 
	C136.697067,68.802040 135.859802,69.497169 134.761459,70.134300 
	C134.326309,70.114738 134.152206,70.153175 133.649475,70.135086 
	C132.561737,70.396378 131.802628,70.714203 130.801132,71.098373 
	C130.138046,71.430084 129.717346,71.695450 129.205521,71.729874 
	C129.114395,71.498924 128.881119,71.060585 128.881134,71.060585 
z"/>
<path fill="#175298" opacity="1.000000" stroke="none" 
	d="
M162.754501,84.312241 
	C162.520020,91.880417 162.739426,99.497993 161.922470,107.002762 
	C161.117416,114.397903 156.596680,118.686615 149.624420,119.553772 
	C149.137375,118.126694 148.985321,117.084396 149.004883,115.726898 
	C154.333542,113.536545 157.208588,109.519035 157.928268,104.429749 
	C158.730988,98.753342 158.619141,92.947601 159.052002,86.894493 
	C160.134872,85.603516 161.071091,84.616211 162.183014,83.811874 
	C162.490646,84.100639 162.622574,84.206436 162.754501,84.312241 
z"/>
<path fill="#095099" opacity="1.000000" stroke="none" 
	d="
M124.878708,117.101074 
	C123.952263,117.703568 123.025810,118.306061 121.145081,119.529137 
	C119.041122,115.219635 116.996033,111.030708 114.991547,105.993576 
	C114.956551,102.981522 114.698936,100.805534 114.842384,98.656311 
	C115.163887,93.839371 115.684837,89.035736 116.279358,84.475845 
	C119.500031,85.248535 119.503044,85.244682 120.245636,79.978958 
	C120.633591,79.558563 120.810959,79.277756 121.230171,79.261749 
	C122.308388,81.102531 123.144768,82.678520 124.030258,84.415527 
	C124.079361,84.576561 123.937355,84.881851 123.595276,84.919205 
	C122.496552,85.630356 121.739899,86.304153 120.980240,87.287331 
	C121.001450,88.007774 121.025665,88.418839 120.706940,88.829956 
	C119.787613,88.380371 119.211220,87.930748 117.628426,86.696060 
	C118.102394,93.247910 117.791649,98.835030 119.097565,104.014534 
	C120.231735,108.512817 123.195236,112.549850 125.193184,116.808731 
	C125.036079,116.826736 124.878708,117.101074 124.878708,117.101074 
z"/>
<path fill="#E3BF0D" opacity="1.000000" stroke="none" 
	d="
M162.953110,84.018402 
	C162.622574,84.206436 162.490646,84.100639 162.194519,83.435760 
	C161.588562,78.805244 161.331924,74.629730 156.197449,72.932137 
	C155.448883,73.953606 154.644012,75.051918 153.644409,76.133530 
	C153.449707,76.116829 153.061432,76.161728 153.061432,76.161728 
	C152.903702,74.587456 152.726715,73.014832 152.592209,71.438583 
	C152.297104,67.980057 153.503876,66.603073 157.235733,67.413589 
	C158.505966,67.689476 160.299637,66.542915 161.562485,65.638885 
	C163.567337,64.203659 165.327164,62.426125 167.914093,61.325729 
	C160.838455,66.408623 167.842361,73.133606 165.768250,78.736633 
	C165.999908,79.000046 165.989304,78.992546 165.989304,78.992546 
	C165.043442,80.569885 164.097580,82.147224 162.953110,84.018402 
z"/>
<path fill="#27A2C5" opacity="1.000000" stroke="none" 
	d="
M133.978119,70.191620 
	C134.152206,70.153175 134.326309,70.114738 134.988373,70.467827 
	C138.699936,71.207695 141.923523,71.556023 145.147095,71.904358 
	C146.385223,73.067017 147.623367,74.229675 149.011780,76.109787 
	C149.330841,77.371323 149.499619,77.915405 149.209808,78.286621 
	C146.275131,77.560783 143.798996,77.007828 141.322876,76.454865 
	C141.112778,76.828537 140.902664,77.202202 140.692551,77.575867 
	C141.500336,78.343964 142.308105,79.112068 142.891113,80.052704 
	C142.453400,80.534035 142.240479,80.842834 141.680649,81.146545 
	C140.870300,81.142670 140.406845,81.143883 139.918121,80.854134 
	C139.603500,80.081825 139.314163,79.600479 139.115616,78.756760 
	C139.789276,75.076355 137.223358,75.980919 135.798462,76.161072 
	C132.804367,76.539619 129.864166,77.344604 126.933632,77.686638 
	C126.948509,77.206375 126.931602,77.014023 126.966194,76.692184 
	C127.017693,76.562698 127.030594,76.279152 127.263412,76.127792 
	C127.684525,75.662209 127.872818,75.347984 128.282410,74.939346 
	C128.781570,74.652107 128.958405,74.390877 129.293396,73.944077 
	C130.376373,73.398300 131.200134,72.969673 132.346436,72.416580 
	C133.105347,71.591957 133.541733,70.891785 133.978119,70.191620 
z"/>
<path fill="#A97114" opacity="1.000000" stroke="none" 
	d="
M148.833267,116.042099 
	C148.985321,117.084396 149.137375,118.126694 149.257309,119.564796 
	C148.958420,120.420265 148.691620,120.879929 148.293945,121.575546 
	C147.648483,122.151535 147.133865,122.491562 146.051910,122.814728 
	C144.095062,123.182152 142.705536,123.566452 141.316025,123.950760 
	C140.860504,123.686653 140.404999,123.422546 139.667160,123.150391 
	C138.779922,122.811623 138.174988,122.480911 137.216324,122.153725 
	C136.862579,122.157249 136.392151,122.083717 136.009415,121.720444 
	C131.490082,119.225983 135.901321,117.716827 136.284698,116.029510 
	C138.399155,115.723801 140.253021,115.284172 142.432281,115.049622 
	C144.782883,115.517166 146.808075,115.779633 148.833267,116.042099 
z"/>
<path fill="#AC7518" opacity="1.000000" stroke="none" 
	d="
M136.024124,115.895599 
	C135.901321,117.716827 131.490082,119.225983 135.795959,121.615036 
	C135.501526,122.205536 135.037781,122.538185 134.010254,122.832443 
	C132.007477,122.889786 130.568512,122.985519 129.129547,123.081253 
	C128.644333,122.729721 128.159103,122.378197 127.343048,122.051559 
	C126.318054,120.654274 125.623909,119.232086 124.904236,117.455490 
	C124.878708,117.101074 125.036079,116.826736 125.296242,116.815933 
	C125.556404,116.805122 125.744560,116.894058 125.832031,117.113022 
	C126.622162,117.222939 127.324821,117.113884 128.137604,117.194099 
	C128.421539,117.624695 128.641205,117.812401 129.151093,117.928505 
	C129.606216,117.283073 129.816925,116.655602 130.394989,116.027634 
	C132.150375,115.679337 133.538391,115.331528 135.134583,115.104485 
	C135.608475,115.409477 135.835602,115.632919 136.024124,115.895599 
z"/>
<path fill="#C28C20" opacity="1.000000" stroke="none" 
	d="
M145.197449,71.621819 
	C141.923523,71.556023 138.699936,71.207695 135.249451,70.525833 
	C135.859802,69.497169 136.697067,68.802040 138.133484,67.870422 
	C139.151672,66.776329 139.570740,65.918724 139.989822,65.061119 
	C140.451843,65.319275 140.913879,65.577438 141.642746,65.893394 
	C143.022339,67.747223 144.135071,69.543251 145.197449,71.621819 
z"/>
<path fill="#868A56" opacity="1.000000" stroke="none" 
	d="
M116.124573,84.226685 
	C115.684837,89.035736 115.163887,93.839371 114.842384,98.656311 
	C114.698936,100.805534 114.956551,102.981522 114.963600,105.615921 
	C114.819298,98.357277 114.743546,90.628082 115.138809,82.474777 
	C115.788452,82.002083 115.967087,81.953484 116.402893,81.786049 
	C116.923309,81.390343 117.186562,81.113487 117.645248,81.079819 
	C117.268654,82.290901 116.696609,83.258789 116.124573,84.226685 
z"/>
<path fill="#64933D" opacity="1.000000" stroke="none" 
	d="
M120.988327,78.996948 
	C120.810959,79.277756 120.633591,79.558563 119.954926,79.919960 
	C119.260849,79.956490 119.068062,79.912422 118.889725,79.544090 
	C118.857071,77.780746 118.809967,76.341667 118.795952,74.509453 
	C118.782570,73.068008 118.736099,72.019699 118.689629,70.971390 
	C119.334343,70.278595 119.979050,69.585800 120.877213,69.241013 
	C119.362183,72.140717 121.561607,72.952118 123.067017,74.400177 
	C122.964523,75.413139 122.885559,76.083496 122.539223,76.912025 
	C121.844009,77.712440 121.416168,78.354698 120.988327,78.996948 
z"/>
<path fill="#E3BF0D" opacity="1.000000" stroke="none" 
	d="
M112.691048,81.014526 
	C111.224762,79.870811 109.758484,78.727097 108.003426,77.358139 
	C109.338669,76.161552 110.347015,75.257912 111.696274,74.387787 
	C112.357643,74.599373 112.678108,74.777435 113.128426,75.156281 
	C113.440994,75.625328 113.672943,75.840523 113.966690,76.380646 
	C113.549858,78.177269 113.120453,79.595901 112.691048,81.014526 
z"/>
<path fill="#A5AF2A" opacity="1.000000" stroke="none" 
	d="
M123.090546,74.057587 
	C121.561607,72.952118 119.362183,72.140717 121.126373,69.239212 
	C123.510963,69.517822 125.899872,70.146255 128.584946,70.917633 
	C128.881119,71.060585 129.114395,71.498924 129.087830,71.856094 
	C129.061264,72.213257 128.777283,72.407257 128.453613,72.278290 
	C126.450134,72.785416 124.770340,73.421501 123.090546,74.057587 
z"/>
<path fill="#E3BF0D" opacity="1.000000" stroke="none" 
	d="
M112.806404,66.947891 
	C113.772766,67.504440 114.739136,68.060989 115.608276,69.083504 
	C115.640709,70.372932 115.770370,71.196388 115.952225,72.310616 
	C115.734711,73.090019 115.465004,73.578667 114.855316,74.051941 
	C114.061890,74.040565 113.608429,74.044556 113.117752,73.614990 
	C113.056519,72.601967 113.032509,72.022507 113.003326,71.068184 
	C112.934235,69.444847 112.870323,68.196373 112.806404,66.947891 
z"/>
<path fill="#64933D" opacity="1.000000" stroke="none" 
	d="
M112.852554,81.339127 
	C113.120453,79.595901 113.549858,78.177269 114.203781,76.242577 
	C114.610786,75.716820 114.793282,75.707130 114.987961,75.963730 
	C115.649796,76.491409 116.299431,76.752800 116.889801,77.320633 
	C116.602249,79.053001 116.373985,80.478951 116.145714,81.904892 
	C115.967087,81.953484 115.788452,82.002083 115.341454,82.116852 
	C114.386742,82.009926 113.700401,81.836823 112.852554,81.339127 
z"/>
<path fill="#E3BF0D" opacity="1.000000" stroke="none" 
	d="
M118.570602,70.960861 
	C118.736099,72.019699 118.782570,73.068008 118.612633,74.714615 
	C118.239365,75.641579 118.082504,75.970245 117.710968,76.283417 
	C117.496300,76.267937 117.070564,76.331459 117.039963,75.974754 
	C116.983170,75.380859 116.956978,75.143677 117.015030,74.576447 
	C117.224358,73.576866 117.349442,72.907326 117.652634,72.060776 
	C117.958054,71.574463 118.085373,71.265167 118.212692,70.955872 
	C118.212692,70.955872 118.451591,70.950333 118.570602,70.960861 
z"/>
<path fill="#A19F98" opacity="1.000000" stroke="none" 
	d="
M149.668381,78.459496 
	C149.499619,77.915405 149.330841,77.371323 149.147430,76.400269 
	C149.912033,76.313576 150.691254,76.653839 151.780716,77.440582 
	C152.147888,78.215858 152.178940,78.547089 151.962952,78.865120 
	C151.050659,78.719490 150.359528,78.589493 149.668381,78.459496 
z"/>
<path fill="#DA2224" opacity="1.000000" stroke="none" 
	d="
M152.184097,78.880745 
	C152.178940,78.547089 152.147888,78.215858 152.051331,77.640579 
	C152.300980,77.161324 152.590240,76.928558 152.970459,76.428757 
	C153.061432,76.161728 153.449707,76.116829 153.686279,76.489296 
	C153.700226,78.203293 153.477585,79.544823 153.187225,80.652901 
	C153.119522,80.419441 152.900818,79.985252 152.846161,79.743622 
	C152.633514,79.178856 152.377289,78.986855 152.074203,78.954216 
	C152.125626,78.982437 152.184097,78.880745 152.184097,78.880745 
z"/>
<path fill="#095099" opacity="1.000000" stroke="none" 
	d="
M169.985840,83.605286 
	C169.573090,82.923592 169.184555,81.885284 168.796021,80.846970 
	C169.100632,80.766251 169.405228,80.685532 169.709824,80.604805 
	C169.809906,81.486092 169.909973,82.367378 169.985840,83.605286 
z"/>
<path fill="#2C4F7F" opacity="1.000000" stroke="none" 
	d="
M112.491844,67.154678 
	C112.870323,68.196373 112.934235,69.444847 112.759377,71.209908 
	C112.339630,71.777313 112.158661,71.828140 111.977684,71.878975 
	C112.044220,70.373138 112.110756,68.867310 112.491844,67.154678 
z"/>
<path fill="#A5AF2A" opacity="1.000000" stroke="none" 
	d="
M115.900024,72.019852 
	C115.770370,71.196388 115.640709,70.372932 115.711853,69.363770 
	C116.111412,69.442047 116.348862,69.664787 116.825005,70.201317 
	C117.025024,70.556343 116.999695,71.020386 116.748581,71.099121 
	C116.298317,71.458519 116.099174,71.739189 115.900024,72.019852 
z"/>
<path fill="#F4F5F6" opacity="1.000000" stroke="none" 
	d="
M138.703461,53.468311 
	C138.466080,53.759834 138.019516,53.869148 137.238205,54.061684 
	C136.736816,53.907631 136.570190,53.670364 136.403549,53.433098 
	C137.100464,53.384098 137.797379,53.335102 138.703461,53.468311 
z"/>
<path fill="#DA2224" opacity="1.000000" stroke="none" 
	d="
M111.946808,72.215195 
	C112.158661,71.828140 112.339630,71.777313 112.764549,71.584763 
	C113.032509,72.022507 113.056519,72.601967 113.064667,73.839249 
	C113.048805,74.497070 112.998573,74.955498 112.998573,74.955498 
	C112.678108,74.777435 112.357643,74.599373 111.913300,74.155418 
	C111.831589,73.443489 111.873764,72.997444 111.946808,72.215195 
z"/>
<path fill="#64933D" opacity="1.000000" stroke="none" 
	d="
M116.999695,71.020386 
	C116.999695,71.020386 117.025024,70.556343 117.037300,70.324776 
	C117.350349,70.226936 117.651115,70.360657 118.082291,70.725128 
	C118.085373,71.265167 117.958054,71.574463 117.506348,71.766907 
	C117.121208,71.440155 117.060455,71.230270 116.999695,71.020386 
z"/>
<path fill="#A5AF2A" opacity="1.000000" stroke="none" 
	d="
M123.504211,67.536057 
	C123.514519,67.520714 123.493912,67.551399 123.504211,67.536057 
z"/>
<path fill="#E3BF0D" opacity="1.000000" stroke="none" 
	d="
M166.003616,79.005341 
	C166.007324,79.010643 166.179092,78.718903 166.179092,78.718903 
	C166.179092,78.718903 166.153564,78.915947 166.071442,78.954247 
	C165.989304,78.992546 165.999908,79.000046 166.003616,79.005341 
z"/>
<path fill="#EDD00C" opacity="1.000000" stroke="none" 
	d="
M141.403259,124.307312 
	C142.705536,123.566452 144.095062,123.182152 145.764465,122.935944 
	C147.418594,125.062973 148.792847,127.051903 150.443680,129.441147 
	C147.971390,130.241745 146.093826,130.849747 143.552032,131.672836 
	C143.041748,129.937897 142.266129,127.300880 141.403259,124.307312 
z"/>
<path fill="#EDD00C" opacity="1.000000" stroke="none" 
	d="
M129.032806,123.411774 
	C130.568512,122.985519 132.007477,122.889786 133.741760,122.940613 
	C133.671494,126.064072 133.305923,129.040985 132.966827,131.802368 
	C130.334030,130.981354 128.501755,130.409973 125.966675,129.619431 
	C126.988380,127.597229 127.962219,125.669754 129.032806,123.411774 
z"/>
<path fill="#A19F98" opacity="1.000000" stroke="none" 
	d="
M132.023880,72.541046 
	C131.200134,72.969673 130.376373,73.398300 129.083832,73.750854 
	C128.472809,73.548759 128.330597,73.422737 128.284973,73.143509 
	C128.560303,72.827721 128.692215,72.633369 128.777283,72.407257 
	C128.777283,72.407257 129.061264,72.213257 129.178955,72.087036 
	C129.717346,71.695450 130.138046,71.430084 131.028656,71.302887 
	C131.673676,71.807716 131.848770,72.174385 132.023880,72.541046 
z"/>
<path fill="#C28C20" opacity="1.000000" stroke="none" 
	d="
M132.346436,72.416580 
	C131.848770,72.174385 131.673676,71.807716 131.271042,71.236542 
	C131.802628,70.714203 132.561737,70.396378 133.649475,70.135086 
	C133.541733,70.891785 133.105347,71.591957 132.346436,72.416580 
z"/>
<path fill="#FEDC01" opacity="1.000000" stroke="none" 
	d="
M139.662231,65.089088 
	C139.570740,65.918724 139.151672,66.776329 138.454742,67.757217 
	C138.562790,66.959351 138.948715,66.038200 139.662231,65.089088 
z"/>
<path fill="#DA2224" opacity="1.000000" stroke="none" 
	d="
M149.004883,115.726898 
	C146.808075,115.779633 144.782883,115.517166 142.415497,114.899078 
	C142.073303,114.543457 142.029816,114.240395 142.290497,114.109894 
	C142.755768,113.654045 142.960373,113.328690 143.466614,112.867554 
	C146.516937,109.489830 149.265625,106.247879 152.341614,102.857430 
	C153.797546,97.805573 154.926163,92.902222 156.358795,87.988152 
	C157.410324,87.717674 158.157852,87.457916 158.905365,87.198158 
	C158.619141,92.947601 158.730988,98.753342 157.928268,104.429749 
	C157.208588,109.519035 154.333542,113.536545 149.004883,115.726898 
z"/>
<path fill="#068446" opacity="1.000000" stroke="none" 
	d="
M159.052002,86.894493 
	C158.157852,87.457916 157.410324,87.717674 156.366364,87.650711 
	C156.010529,86.879005 155.951141,86.434029 155.909424,85.653038 
	C155.036362,83.840134 154.145660,82.363251 153.254944,80.886360 
	C153.477585,79.544823 153.700226,78.203293 153.880997,76.505997 
	C154.644012,75.051918 155.448883,73.953606 156.197449,72.932137 
	C161.331924,74.629730 161.588562,78.805244 162.018814,83.252785 
	C161.071091,84.616211 160.134872,85.603516 159.052002,86.894493 
z"/>
<path fill="#DE2527" opacity="1.000000" stroke="none" 
	d="
M134.926392,114.983719 
	C133.538391,115.331528 132.150375,115.679337 130.234344,115.827255 
	C129.389984,115.521210 129.073639,115.415070 128.619232,115.293839 
	C128.481155,115.278755 128.220840,115.375771 127.929321,115.430725 
	C127.006729,115.955139 126.375641,116.424599 125.744560,116.894058 
	C125.744560,116.894058 125.556404,116.805122 125.453346,116.797928 
	C123.195236,112.549850 120.231735,108.512817 119.097565,104.014534 
	C117.791649,98.835030 118.102394,93.247910 117.628426,86.696060 
	C119.211220,87.930748 119.787613,88.380371 120.983643,89.076546 
	C121.801239,90.540337 121.999207,91.757568 122.146133,93.350266 
	C123.081924,97.154892 124.068756,100.584061 125.073212,104.358276 
	C127.805931,108.262856 129.811478,112.658913 135.078979,113.489548 
	C135.016937,114.187645 134.971664,114.585686 134.926392,114.983719 
z"/>
<path fill="#587376" opacity="1.000000" stroke="none" 
	d="
M122.197166,92.974808 
	C121.999207,91.757568 121.801239,90.540337 121.326584,89.076508 
	C121.025665,88.418839 121.001450,88.007774 121.284485,87.236221 
	C122.002876,86.858917 122.414024,86.842087 123.013779,87.215851 
	C125.885048,88.036636 128.567596,88.819534 131.250381,88.820366 
	C136.165070,88.821899 141.079895,88.361717 146.362701,88.207993 
	C148.493301,88.487984 150.255859,88.654060 152.268005,89.049286 
	C152.940048,90.542732 153.362503,91.807030 153.441483,93.233124 
	C142.807068,92.567917 132.469543,95.166924 122.197166,92.974808 
z"/>
<path fill="#F4F5F6" opacity="1.000000" stroke="none" 
	d="
M145.994675,88.094063 
	C141.079895,88.361717 136.165070,88.821899 131.250381,88.820366 
	C128.567596,88.819534 125.885048,88.036636 123.206284,86.987587 
	C123.452576,85.873108 123.694969,85.377480 123.937363,84.881851 
	C123.937355,84.881851 124.079361,84.576561 124.102829,84.432320 
	C124.126289,84.288078 124.215515,84.168137 124.451447,84.144897 
	C124.687386,84.121651 125.129448,83.950172 125.542374,83.971832 
	C128.954910,83.673637 131.954514,83.353775 135.212967,83.255829 
	C136.983765,83.978386 138.495728,84.479034 140.214722,85.249695 
	C142.279404,86.377823 144.137039,87.235939 145.994675,88.094063 
z"/>
<path fill="#2C4F7F" opacity="1.000000" stroke="none" 
	d="
M121.230171,79.261749 
	C121.416168,78.354698 121.844009,77.712440 122.874565,77.011452 
	C123.935753,77.003662 124.394226,77.054619 124.787895,77.340408 
	C124.531586,78.010330 124.340080,78.445427 124.033218,79.207268 
	C124.017075,81.078720 124.116295,82.623428 124.215515,84.168137 
	C124.215515,84.168137 124.126289,84.288078 124.053719,84.271286 
	C123.144768,82.678520 122.308388,81.102531 121.230171,79.261749 
z"/>
<path fill="#2C4F7F" opacity="1.000000" stroke="none" 
	d="
M118.875267,79.868355 
	C119.068062,79.912422 119.260849,79.956490 119.744339,80.059540 
	C119.503044,85.244682 119.500031,85.248535 116.279350,84.475845 
	C116.696609,83.258789 117.268654,82.290901 117.703629,80.900665 
	C117.738426,80.285538 117.934319,80.121376 118.337814,79.976944 
	C118.521408,79.968040 118.875267,79.868355 118.875267,79.868355 
z"/>
<path fill="#2C4F7F" opacity="1.000000" stroke="none" 
	d="
M123.595276,84.919205 
	C123.694969,85.377480 123.452576,85.873108 123.017670,86.597000 
	C122.414024,86.842087 122.002876,86.858917 121.287491,86.926849 
	C121.739899,86.304153 122.496552,85.630356 123.595276,84.919205 
z"/>
<path fill="#929283" opacity="1.000000" stroke="none" 
	d="
M153.187225,80.652901 
	C154.145660,82.363251 155.036362,83.840134 155.609009,85.714172 
	C154.501831,86.739716 153.712708,87.368103 152.947205,87.635666 
	C152.689240,86.162949 152.407639,85.051048 152.019592,83.736229 
	C151.744583,83.265686 151.513535,83.073044 151.072891,82.728989 
	C150.630447,82.305092 150.335098,82.107590 149.840973,81.735451 
	C149.147110,81.432220 148.652023,81.303619 147.904236,81.083786 
	C147.474442,80.965363 147.297394,80.938164 146.874176,80.687897 
	C145.769531,80.310059 144.911041,80.155296 143.820480,79.954269 
	C143.588394,79.907997 143.115891,79.880165 143.115891,79.880165 
	C142.308105,79.112068 141.500336,78.343964 140.692551,77.575867 
	C140.902664,77.202202 141.112778,76.828537 141.322876,76.454865 
	C143.798996,77.007828 146.275131,77.560783 149.209808,78.286621 
	C150.359528,78.589493 151.050659,78.719490 151.962952,78.865120 
	C152.184097,78.880745 152.125626,78.982437 152.193130,79.152817 
	C152.426529,79.589806 152.639923,79.810493 152.900818,79.985252 
	C152.900818,79.985252 153.119522,80.419441 153.187225,80.652901 
z"/>
<path fill="#929283" opacity="1.000000" stroke="none" 
	d="
M124.451447,84.144897 
	C124.116295,82.623428 124.017075,81.078720 124.327942,79.203026 
	C125.459297,78.572868 126.180580,78.273705 126.901855,77.974533 
	C129.864166,77.344604 132.804367,76.539619 135.798462,76.161072 
	C137.223358,75.980919 139.789276,75.076355 138.701660,78.770142 
	C136.401932,79.366356 134.462921,79.231483 132.844406,79.887413 
	C130.164139,80.973663 127.690277,82.569206 125.129448,83.950165 
	C125.129448,83.950172 124.687386,84.121651 124.451447,84.144897 
z"/>
<path fill="#53BBD9" opacity="1.000000" stroke="none" 
	d="
M125.542374,83.971832 
	C127.690277,82.569206 130.164139,80.973663 132.844406,79.887413 
	C134.462921,79.231483 136.401932,79.366356 138.610886,79.132507 
	C139.314163,79.600479 139.603500,80.081825 139.662140,81.057343 
	C137.939011,82.045647 136.446579,82.539772 134.954132,83.033905 
	C131.954514,83.353775 128.954910,83.673637 125.542374,83.971832 
z"/>
<path fill="#68C3DE" opacity="1.000000" stroke="none" 
	d="
M135.212967,83.255821 
	C136.446579,82.539772 137.939011,82.045647 139.687439,81.348297 
	C140.406845,81.143883 140.870300,81.142670 141.808395,81.412376 
	C142.536819,82.433960 142.790573,83.184631 142.711426,83.966644 
	C141.588242,84.325211 140.797958,84.652451 140.007690,84.979683 
	C138.495728,84.479034 136.983765,83.978386 135.212967,83.255821 
z"/>
<path fill="#53BBD9" opacity="1.000000" stroke="none" 
	d="
M143.044327,83.935310 
	C142.790573,83.184631 142.536819,82.433960 142.155304,81.417458 
	C142.240479,80.842834 142.453400,80.534035 142.891113,80.052704 
	C143.115891,79.880165 143.588394,79.907997 144.047119,80.200470 
	C145.377335,80.632286 146.248856,80.771629 147.120361,80.910973 
	C147.297394,80.938164 147.474442,80.965363 147.870087,81.432510 
	C148.057693,82.575981 148.026733,83.279518 147.582306,83.976334 
	C145.794006,83.958176 144.419159,83.946747 143.044327,83.935310 
z"/>
<path fill="#A19F98" opacity="1.000000" stroke="none" 
	d="
M126.933632,77.686630 
	C126.180580,78.273705 125.459297,78.572868 124.443298,78.876282 
	C124.340080,78.445427 124.531586,78.010330 124.941055,77.119598 
	C125.427261,76.431137 125.695511,76.198326 126.006912,75.998611 
	C126.050064,76.031708 126.138031,76.095695 126.248520,76.236298 
	C126.520134,76.555252 126.705368,76.703506 126.914696,76.821663 
	C126.931602,77.014023 126.948509,77.206375 126.933632,77.686630 
z"/>
<path fill="#A19F98" opacity="1.000000" stroke="none" 
	d="
M128.061096,75.033752 
	C127.872818,75.347984 127.684525,75.662209 127.041946,76.075470 
	C126.587646,76.174500 126.138031,76.095695 126.138031,76.095695 
	C126.138031,76.095695 126.050064,76.031708 126.093811,75.729507 
	C126.518967,75.014702 126.900383,74.602089 127.474617,74.402390 
	C127.798653,74.754791 127.929878,74.894272 128.061096,75.033752 
z"/>
<path fill="#929283" opacity="1.000000" stroke="none" 
	d="
M126.248520,76.236298 
	C126.138031,76.095695 126.587646,76.174500 126.809120,76.226822 
	C127.030594,76.279152 127.017693,76.562698 126.966194,76.692184 
	C126.705368,76.703506 126.520134,76.555252 126.248520,76.236298 
z"/>
<path fill="#A19F98" opacity="1.000000" stroke="none" 
	d="
M128.824615,73.868011 
	C128.958405,74.390877 128.781570,74.652107 128.282410,74.939339 
	C127.929878,74.894272 127.798653,74.754791 127.615166,74.243195 
	C127.756813,73.663742 127.965302,73.472282 128.188370,73.296715 
	C128.330597,73.422737 128.472809,73.548759 128.824615,73.868011 
z"/>
<path fill="#C28C20" opacity="1.000000" stroke="none" 
	d="
M135.134583,115.104492 
	C134.971664,114.585686 135.016937,114.187645 135.457886,113.423767 
	C136.883865,113.019348 137.914200,112.980774 139.286987,112.999107 
	C140.429581,113.450806 141.229706,113.845596 142.029816,114.240395 
	C142.029816,114.240395 142.073303,114.543457 142.090088,114.694000 
	C140.253021,115.284172 138.399155,115.723801 136.284698,116.029510 
	C135.835602,115.632919 135.608475,115.409477 135.134583,115.104492 
z"/>
<path fill="#A97114" opacity="1.000000" stroke="none" 
	d="
M125.832031,117.113022 
	C126.375641,116.424599 127.006729,115.955139 127.881134,115.699722 
	C128.092133,116.277458 128.059799,116.641144 128.027481,117.004837 
	C127.324821,117.113884 126.622162,117.222939 125.832031,117.113022 
z"/>
<path fill="#A97114" opacity="1.000000" stroke="none" 
	d="
M128.757294,115.308922 
	C129.073639,115.415070 129.389984,115.521210 129.866974,115.827744 
	C129.816925,116.655602 129.606216,117.283073 129.158432,117.597778 
	C128.866669,116.626320 128.811981,115.967621 128.757294,115.308922 
z"/>
<path fill="#C28C20" opacity="1.000000" stroke="none" 
	d="
M128.619232,115.293839 
	C128.811981,115.967621 128.866669,116.626320 128.914032,117.615738 
	C128.641205,117.812401 128.421539,117.624695 128.137604,117.194099 
	C128.059799,116.641144 128.092133,116.277458 128.172653,115.644768 
	C128.220840,115.375771 128.481155,115.278755 128.619232,115.293839 
z"/>
<path fill="#068446" opacity="1.000000" stroke="none" 
	d="
M118.154221,79.985847 
	C117.934319,80.121376 117.738426,80.285538 117.508186,80.657486 
	C117.186562,81.113487 116.923309,81.390343 116.402893,81.786049 
	C116.373985,80.478951 116.602249,79.053001 116.963776,77.157471 
	C117.097031,76.687881 117.070564,76.331459 117.070564,76.331459 
	C117.070564,76.331459 117.496300,76.267937 117.704407,76.652924 
	C117.993088,78.020554 118.073654,79.003197 118.154221,79.985847 
z"/>
<path fill="#EDD00C" opacity="1.000000" stroke="none" 
	d="
M128.284973,73.143509 
	C127.965302,73.472282 127.756813,73.663742 127.422348,74.030273 
	C126.900383,74.602089 126.518967,75.014702 126.050659,75.696411 
	C125.695511,76.198326 125.427261,76.431137 125.005859,76.884766 
	C124.394226,77.054619 123.935753,77.003662 123.141937,76.853287 
	C122.885559,76.083496 122.964523,75.413139 123.067017,74.400177 
	C124.770340,73.421501 126.450134,72.785416 128.453613,72.278290 
	C128.692215,72.633369 128.560303,72.827721 128.284973,73.143509 
z"/>
<path fill="#A5AF2A" opacity="1.000000" stroke="none" 
	d="
M118.337814,79.976944 
	C118.073654,79.003197 117.993088,78.020554 117.919083,76.668404 
	C118.082504,75.970245 118.239365,75.641579 118.579544,75.107750 
	C118.809967,76.341667 118.857071,77.780746 118.889725,79.544090 
	C118.875267,79.868355 118.521408,79.968040 118.337814,79.976944 
z"/>
<path fill="#FEDC01" opacity="1.000000" stroke="none" 
	d="
M113.128426,75.156281 
	C112.998573,74.955498 113.048805,74.497070 113.101891,74.272812 
	C113.608429,74.044556 114.061890,74.040565 114.875961,74.224472 
	C115.236588,74.412369 115.245178,74.760551 115.125565,74.979752 
	C115.005951,75.198952 114.975777,75.697449 114.975777,75.697449 
	C114.793282,75.707130 114.610786,75.716820 114.191208,75.864578 
	C113.672943,75.840523 113.440994,75.625328 113.128426,75.156281 
z"/>
<path fill="#068446" opacity="1.000000" stroke="none" 
	d="
M115.245178,74.760551 
	C115.245178,74.760551 115.236588,74.412369 115.215942,74.239838 
	C115.465004,73.578667 115.734711,73.090019 115.952225,72.310616 
	C116.099174,71.739189 116.298317,71.458519 116.748581,71.099121 
	C117.060455,71.230270 117.121208,71.440155 117.328239,71.943909 
	C117.349442,72.907326 117.224358,73.576866 116.732056,74.575615 
	C115.991615,74.856728 115.618401,74.808640 115.245178,74.760551 
z"/>
<path fill="#A5AF2A" opacity="1.000000" stroke="none" 
	d="
M115.125565,74.979752 
	C115.618401,74.808640 115.991615,74.856728 116.647812,74.905655 
	C116.956978,75.143677 116.983170,75.380859 117.039963,75.974754 
	C117.070564,76.331459 117.097031,76.687881 117.023056,76.851044 
	C116.299431,76.752800 115.649796,76.491409 114.987961,75.963730 
	C114.975777,75.697449 115.005951,75.198952 115.125565,74.979752 
z"/>
<path fill="#A19F98" opacity="1.000000" stroke="none" 
	d="
M152.846161,79.743622 
	C152.639923,79.810493 152.426529,79.589806 152.141708,79.124588 
	C152.377289,78.986855 152.633514,79.178856 152.846161,79.743622 
z"/>
<path fill="#0875A8" opacity="1.000000" stroke="none" 
	d="
M138.944519,112.942200 
	C137.914200,112.980774 136.883865,113.019348 135.474640,113.123703 
	C129.811478,112.658913 127.805931,108.262856 125.419113,104.305054 
	C127.449867,103.327637 129.152374,102.748482 131.459839,101.963531 
	C130.308258,101.273392 129.714371,100.917480 129.120331,100.561569 
	C129.942535,99.998222 130.697052,99.136665 131.600815,98.931007 
	C133.764603,98.438606 136.184402,97.557510 138.167130,98.085823 
	C142.865021,99.337639 147.368927,101.317451 151.966461,103.019936 
	C151.981659,103.036880 152.014297,103.005928 152.014313,103.005936 
	C149.265625,106.247879 146.516937,109.489830 143.257156,112.596992 
	C141.478882,112.622208 140.211700,112.782204 138.944519,112.942200 
M138.916763,105.016747 
	C138.797348,105.121452 138.653351,105.209831 138.568481,105.337502 
	C138.523529,105.405128 138.574188,105.631584 138.593781,105.633133 
	C139.519348,105.706306 140.446228,105.762650 141.372971,105.820900 
	C141.385849,105.612350 141.398727,105.403793 141.411621,105.195236 
	C140.809677,105.119270 140.207748,105.043312 138.916763,105.016747 
z"/>
<path fill="#A19F98" opacity="1.000000" stroke="none" 
	d="
M152.923599,87.996490 
	C153.712708,87.368103 154.501831,86.739716 155.591354,86.050186 
	C155.951141,86.434029 156.010529,86.879005 156.062347,87.661423 
	C154.926163,92.902222 153.797546,97.805573 152.341614,102.857422 
	C152.014297,103.005928 151.981659,103.036880 152.061890,102.639267 
	C152.689728,99.184875 153.237350,96.128098 153.784958,93.071320 
	C153.362503,91.807030 152.940048,90.542732 152.375610,88.870369 
	C152.420593,88.243317 152.650574,88.088051 152.923599,87.996490 
z"/>
<path fill="#868A56" opacity="1.000000" stroke="none" 
	d="
M139.286987,112.999115 
	C140.211700,112.782204 141.478882,112.622208 142.955505,112.732773 
	C142.960373,113.328690 142.755768,113.654045 142.290497,114.109894 
	C141.229706,113.845596 140.429581,113.450806 139.286987,112.999115 
z"/>
<path fill="#6BB745" opacity="1.000000" stroke="none" 
	d="
M153.441483,93.233124 
	C153.237350,96.128098 152.689728,99.184875 152.046692,102.622322 
	C147.368927,101.317451 142.865021,99.337639 138.167130,98.085823 
	C136.184402,97.557510 133.764603,98.438606 131.600815,98.931007 
	C130.697052,99.136665 129.942535,99.998222 129.120331,100.561569 
	C129.714371,100.917480 130.308258,101.273392 131.459839,101.963531 
	C129.152374,102.748482 127.449867,103.327637 125.401474,103.960014 
	C124.068756,100.584061 123.081924,97.154892 122.146133,93.350266 
	C132.469543,95.166924 142.807068,92.567917 153.441483,93.233124 
z"/>
<path fill="#81CEE5" opacity="1.000000" stroke="none" 
	d="
M152.947205,87.635666 
	C152.650574,88.088051 152.420593,88.243317 152.126038,88.641220 
	C150.255859,88.654060 148.493301,88.487984 146.362701,88.207993 
	C144.137039,87.235939 142.279404,86.377823 140.214722,85.249695 
	C140.797958,84.652451 141.588242,84.325211 142.711426,83.966644 
	C144.419159,83.946747 145.794006,83.958176 147.824615,84.205803 
	C149.695602,84.274376 150.910828,84.106758 152.126053,83.939148 
	C152.407639,85.051048 152.689240,86.162949 152.947205,87.635666 
z"/>
<path fill="#68C3DE" opacity="1.000000" stroke="none" 
	d="
M152.019592,83.736229 
	C150.910828,84.106758 149.695602,84.274376 148.238068,84.212524 
	C148.026733,83.279518 148.057693,82.575981 148.122803,81.523727 
	C148.652023,81.303619 149.147110,81.432220 149.981415,81.965721 
	C150.620422,82.565544 150.920212,82.760468 151.219986,82.955391 
	C151.513535,83.073044 151.744583,83.265686 152.019592,83.736229 
z"/>
<path fill="#27A2C5" opacity="1.000000" stroke="none" 
	d="
M146.874176,80.687897 
	C146.248856,80.771629 145.377335,80.632286 144.279205,80.246735 
	C144.911041,80.155296 145.769531,80.310059 146.874176,80.687897 
z"/>
<path fill="#53BBD9" opacity="1.000000" stroke="none" 
	d="
M151.072891,82.728989 
	C150.920212,82.760468 150.620422,82.565544 150.180206,82.140350 
	C150.335098,82.107590 150.630447,82.305092 151.072891,82.728989 
z"/>
<path fill="#FEDC01" opacity="1.000000" stroke="none" 
	d="
M139.261292,104.992050 
	C140.207748,105.043312 140.809677,105.119270 141.411621,105.195236 
	C141.398727,105.403793 141.385849,105.612350 141.372971,105.820900 
	C140.446228,105.762650 139.519348,105.706306 138.593781,105.633133 
	C138.574188,105.631584 138.523529,105.405128 138.568481,105.337502 
	C138.653351,105.209831 138.797348,105.121452 139.261292,104.992050 
z"/>
</svg>