<svg version="1.1" id="Layer_1" xmlns="http://www.w3.org/2000/svg" xmlns:xlink="http://www.w3.org/1999/xlink" x="0px" y="0px"
	 width="100%" viewBox="0 0 290 174" enable-background="new 0 0 290 174" xml:space="preserve">
<path fill="#019E49" opacity="1.000000" stroke="none" 
	d="
M291.000000,87.000000 
	C291.000000,116.299179 291.000000,145.598358 291.000000,175.000000 
	C195.312469,175.000000 99.624886,175.000000 3.548071,174.725067 
	C3.721877,173.954147 4.284925,173.458160 5.131253,173.142380 
	C7.181711,172.942001 8.984581,172.680588 10.710875,172.163513 
	C60.824276,157.153427 110.926849,142.107224 161.037964,127.089546 
	C202.561340,114.645515 244.097412,102.243835 285.604919,89.747208 
	C287.096252,89.298210 288.343445,88.038414 290.027771,87.112579 
	C290.567383,87.045776 290.783691,87.022888 291.000000,87.000000 
z"/>
<path fill="#019E49" opacity="1.000000" stroke="none" 
	d="
M291.000000,86.531342 
	C290.783691,87.022888 290.567383,87.045776 289.650696,87.107132 
	C231.411285,69.915298 173.875504,52.674309 116.332146,35.458546 
	C79.288734,24.375933 42.234234,13.330377 4.853395,2.200600 
	C4.014725,1.755325 3.507363,1.377663 3.000000,1.000000 
	C98.887596,1.000000 194.775192,1.000000 291.000000,1.000000 
	C291.000000,29.353336 291.000000,57.708012 291.000000,86.531342 
z"/>
<path fill="#CD1126" opacity="1.000000" stroke="none" 
	d="
M1.000000,164.000000 
	C1.000000,113.645775 1.000000,63.291542 1.359785,12.382835 
	C2.616425,12.259699 3.554252,12.622689 4.404254,13.132198 
	C44.954430,37.438831 85.498016,61.756458 126.033035,86.088348 
	C126.826485,86.564644 127.509308,87.225220 128.559921,88.047180 
	C127.083954,89.075203 126.065971,89.876854 124.963898,90.538460 
	C85.144135,114.443436 45.320564,138.342087 5.472910,162.200516 
	C4.111019,163.015930 2.496674,163.409698 1.000000,164.000000 
z"/>
<path fill="#050201" opacity="1.000000" stroke="none" 
	d="
M1.000000,164.482956 
	C2.496674,163.409698 4.111019,163.015930 5.472910,162.200516 
	C45.320564,138.342087 85.144135,114.443436 124.963898,90.538460 
	C126.065971,89.876854 127.083954,89.075203 128.559921,88.047180 
	C127.509308,87.225220 126.826485,86.564644 126.033035,86.088348 
	C85.498016,61.756458 44.954430,37.438831 4.404254,13.132198 
	C3.554252,12.622689 2.616425,12.259699 1.359785,11.914177 
	C1.333333,8.333333 1.666667,4.666667 2.500000,1.000000 
	C3.507363,1.377663 4.014725,1.755325 4.790386,2.539550 
	C11.551025,6.899446 18.043367,10.852778 24.803802,15.075587 
	C65.157974,39.452812 105.244057,63.560562 145.793839,87.947182 
	C144.547165,88.791443 143.915207,89.264740 143.241776,89.668900 
	C122.575066,102.071823 101.885773,114.437233 81.239624,126.874237 
	C62.314354,138.274597 43.434944,149.751099 24.253536,161.338852 
	C17.597149,165.309830 11.222559,169.136002 4.847972,172.962173 
	C4.284925,173.458160 3.721877,173.954147 3.079416,174.725067 
	C2.333337,174.543488 1.121698,174.121857 1.089884,173.624710 
	C0.905809,170.748306 1.000000,167.854095 1.000000,164.482956 
z"/>
<path fill="#FAFBF5" opacity="1.000000" stroke="none" 
	d="
M5.131251,173.142380 
	C11.222559,169.136002 17.597149,165.309830 24.698536,161.409943 
	C26.403473,161.139572 27.405025,161.020889 28.356419,160.735153 
	C107.623863,136.929047 186.887817,113.111305 266.146393,89.275734 
	C267.068542,88.998421 267.917664,88.478226 269.351837,87.817619 
	C268.127472,87.336113 267.680847,87.122154 267.212219,86.981598 
	C192.554169,64.587624 117.898407,42.185917 43.227722,19.834044 
	C37.049004,17.984507 30.768774,16.474091 24.535709,14.806111 
	C18.043367,10.852778 11.551025,6.899446 5.121693,2.607162 
	C42.234234,13.330377 79.288734,24.375933 116.332146,35.458546 
	C173.875504,52.674309 231.411285,69.915298 289.327362,87.151047 
	C288.343445,88.038414 287.096252,89.298210 285.604919,89.747208 
	C244.097412,102.243835 202.561340,114.645515 161.037964,127.089546 
	C110.926849,142.107224 60.824276,157.153427 10.710875,172.163513 
	C8.984581,172.680588 7.181711,172.942001 5.131251,173.142380 
z"/>
<path fill="#FBD016" opacity="1.000000" stroke="none" 
	d="
M24.803802,15.075587 
	C30.768774,16.474091 37.049004,17.984507 43.227722,19.834044 
	C117.898407,42.185917 192.554169,64.587624 267.212219,86.981598 
	C267.680847,87.122154 268.127472,87.336113 269.351837,87.817619 
	C267.917664,88.478226 267.068542,88.998421 266.146393,89.275734 
	C186.887817,113.111305 107.623863,136.929047 28.356419,160.735153 
	C27.405025,161.020889 26.403473,161.139572 24.980333,161.265137 
	C43.434944,149.751099 62.314354,138.274597 81.239624,126.874237 
	C101.885773,114.437233 122.575066,102.071823 143.241776,89.668900 
	C143.915207,89.264740 144.547165,88.791443 145.793839,87.947182 
	C105.244057,63.560562 65.157974,39.452812 24.803802,15.075587 
z"/>
</svg>