<svg version="1.1" id="Layer_1" xmlns="http://www.w3.org/2000/svg" xmlns:xlink="http://www.w3.org/1999/xlink" x="0px" y="0px"
	 width="100%" viewBox="0 0 2560 1707" enable-background="new 0 0 2560 1707" xml:space="preserve">
<path fill="#FFCD00" opacity="1.000000" stroke="none" 
	d="
M2.000000,854.000000 
	C2.000000,570.055420 2.000000,286.110840 2.000000,2.083132 
	C855.111389,2.083132 1708.222778,2.083132 2562.000000,2.083132 
	C2562.000000,285.389069 2562.000000,568.778625 2561.092773,853.084106 
	C1707.457031,854.000000 854.728516,854.000000 2.000000,854.000000 
z"/>
<path fill="#003087" opacity="1.000000" stroke="none" 
	d="
M2.000000,1282.000000 
	C2.000000,1140.624878 2.000000,999.249756 2.906525,856.979309 
	C854.543335,856.088562 1705.273682,856.093140 2556.003906,856.093689 
	C2558.002686,856.093689 2560.001221,856.032654 2562.000000,856.000000 
	C2562.000000,997.375122 2562.000000,1138.750244 2561.098145,1281.062744 
	C1707.464233,1282.000000 854.732117,1282.000000 2.000000,1282.000000 
z"/>
<path fill="#C8102E" opacity="1.000000" stroke="none" 
	d="
M2562.000000,1284.000000 
	C2562.000000,1425.964844 2562.000000,1567.929810 2562.000000,1709.947266 
	C1708.912842,1709.947266 855.825745,1709.947266 2.000000,1709.947266 
	C2.000000,1568.615845 2.000000,1427.230469 2.901810,1284.922485 
	C856.535767,1284.000000 1709.267822,1284.000000 2562.000000,1284.000000 
z"/>
<path fill="#DFA522" opacity="1.000000" stroke="none" 
	d="
M2562.000000,855.500000 
	C2560.001221,856.032654 2558.002686,856.093689 2556.003906,856.093689 
	C1705.273682,856.093140 854.543335,856.088562 2.906525,856.041992 
	C2.000000,856.000000 2.000000,855.000000 2.000000,854.500000 
	C854.728516,854.000000 1707.457031,854.000000 2561.092773,854.000000 
	C2562.000000,854.000000 2562.000000,855.000000 2562.000000,855.500000 
z"/>
<path fill="#7D1439" opacity="1.000000" stroke="none" 
	d="
M2562.000000,1283.500000 
	C1709.267822,1284.000000 856.535767,1284.000000 2.901810,1284.000000 
	C2.000000,1284.000000 2.000000,1283.000000 2.000000,1282.500000 
	C854.732117,1282.000000 1707.464233,1282.000000 2561.098145,1282.000000 
	C2562.000000,1282.000000 2562.000000,1283.000000 2562.000000,1283.500000 
z"/>
</svg>