<svg version="1.1" id="Layer_1" xmlns="http://www.w3.org/2000/svg" xmlns:xlink="http://www.w3.org/1999/xlink" x="0px" y="0px"
	 width="100%" viewBox="0 0 1200 600" enable-background="new 0 0 1200 600" xml:space="preserve">
<path fill="#0066B2" opacity="1.000000" stroke="none" 
	d="
M801.000000,601.000000 
	C667.976685,601.000000 534.953369,601.000000 401.465027,600.537354 
	C401.000000,400.383148 401.000000,200.691574 401.000000,1.000000 
	C534.023315,1.000000 667.046631,1.000000 800.534973,1.462638 
	C801.000000,201.616852 801.000000,401.308411 801.000000,601.000000 
z"/>
<path fill="#DA2031" opacity="1.000000" stroke="none" 
	d="
M801.462646,601.000000 
	C801.000000,401.308411 801.000000,201.616852 801.000000,1.462638 
	C934.292786,1.000000 1067.585571,1.000000 1200.939209,1.000000 
	C1200.939209,200.898651 1200.939209,400.797302 1200.939209,601.000000 
	C1067.975220,601.000000 934.950256,601.000000 801.462646,601.000000 
z"/>
<path fill="#DA2031" opacity="1.000000" stroke="none" 
	d="
M400.537354,1.000000 
	C401.000000,200.691574 401.000000,400.383148 401.000000,600.537354 
	C267.707214,601.000000 134.414413,601.000000 1.060809,601.000000 
	C1.060809,401.101349 1.060809,201.202698 1.060809,1.000000 
	C134.024750,1.000000 267.049713,1.000000 400.537354,1.000000 
M188.257507,88.150978 
	C186.562958,91.306503 184.727432,94.396149 183.213577,97.636101 
	C181.706421,100.861717 180.350540,104.181969 179.242523,107.563675 
	C178.028717,111.268288 176.090927,115.170952 176.363174,118.846985 
	C177.239548,130.680328 187.324249,140.029175 199.117813,140.934677 
	C211.208603,141.863022 222.031433,133.985046 225.243912,122.141754 
	C226.752090,116.581581 225.609741,111.770187 222.591003,106.967018 
	C220.893051,104.265350 220.157150,100.966637 218.924561,97.962860 
	C217.552155,94.618347 216.107895,91.303314 214.694916,87.975456 
	C213.442383,91.777458 213.700058,95.156006 212.701126,98.109558 
	C211.448792,101.812355 211.271423,104.582413 214.296494,107.592415 
	C215.424057,108.714340 215.709442,111.744934 215.018631,113.301537 
	C214.448868,114.585434 211.426895,116.016098 210.289490,115.526840 
	C208.533752,114.771614 206.425598,112.492065 206.325150,110.751785 
	C206.150894,107.733101 206.880920,104.396553 208.151154,101.612877 
	C211.237595,94.849136 210.501938,88.657181 206.427048,82.723053 
	C202.374710,76.821793 198.593933,70.933586 202.799759,63.257877 
	C197.868698,66.725403 197.306824,71.334282 198.476227,76.249123 
	C199.624069,81.073418 199.216599,85.355865 196.155289,89.464310 
	C193.286407,93.314491 192.928070,97.638680 194.512238,102.270164 
	C195.360275,104.749474 196.154465,107.567734 195.771744,110.047676 
	C195.456482,112.090622 193.712662,114.400459 191.929153,115.524895 
	C191.030624,116.091377 187.593979,114.661613 187.166885,113.468208 
	C186.534424,111.700905 187.341812,109.277412 187.938248,107.251648 
	C188.512054,105.302826 190.364807,103.480209 190.306808,101.644775 
	C190.159103,96.972809 189.257645,92.324661 188.825439,87.726318 
	C188.825439,87.726318 188.746033,87.673088 188.257507,88.150978 
M226.933197,348.452637 
	C226.812469,348.774078 226.691742,349.095490 226.802963,350.111786 
	C236.772293,372.108704 224.282181,392.785156 200.285858,394.008911 
	C187.222610,394.675110 177.379623,404.985779 177.568314,417.805817 
	C177.760406,430.855652 188.019699,440.822876 201.429153,440.987335 
	C220.807632,441.225067 239.564255,428.565186 247.161316,410.120209 
	C256.545319,387.336670 247.328796,359.110443 226.933197,348.452637 
M175.078384,433.498230 
	C175.183304,433.201294 175.288223,432.904388 175.185501,431.903442 
	C165.278702,409.758698 177.689209,389.508453 201.681061,387.765228 
	C206.662750,387.403290 212.114075,385.093933 216.164597,382.086761 
	C224.482803,375.911224 226.645584,364.377502 222.444901,354.967712 
	C217.871170,344.722260 207.448730,339.529053 195.073013,341.329132 
	C171.548019,344.750946 154.912445,361.331451 151.364639,384.892853 
	C148.568863,403.459930 159.379959,425.601135 175.078384,433.498230 
M261.000336,394.500000 
	C261.000336,433.226044 261.000336,471.952087 261.000336,510.657959 
	C278.061676,510.657959 294.301208,510.657959 310.590027,510.657959 
	C310.590027,430.652588 310.590027,350.989594 310.590027,271.341949 
	C293.938416,271.341949 277.698730,271.341949 261.000336,271.341949 
	C261.000336,312.287872 261.000336,352.893921 261.000336,394.500000 
M140.999588,278.589355 
	C140.999588,276.169708 140.999588,273.750061 140.999588,271.334656 
	C123.954170,271.334656 107.714172,271.334656 91.406097,271.334656 
	C91.406097,351.334930 91.406097,431.000183 91.406097,510.661255 
	C108.054153,510.661255 124.294243,510.661255 140.999603,510.661255 
	C140.999603,433.404419 140.999603,356.485016 140.999588,278.589355 
M187.925507,153.207657 
	C169.033340,160.730911 158.277267,178.527512 161.481400,196.961105 
	C164.834869,216.253891 180.299088,230.423340 199.175049,230.884201 
	C216.260162,231.301331 229.267044,223.813873 236.799179,208.452484 
	C244.246002,193.265076 242.402145,178.342850 231.551941,165.451782 
	C220.287476,152.068542 205.601501,148.126221 187.925507,153.207657 
M195.894135,260.809998 
	C235.055481,263.666016 257.242615,230.077438 255.338043,206.947235 
	C243.335434,228.590469 225.514282,240.894424 200.821381,240.836990 
	C176.216537,240.779755 158.510696,228.311020 146.331665,207.180435 
	C146.154266,209.282715 146.231567,211.101807 146.457779,212.902176 
	C149.468536,236.863281 168.323074,257.464569 195.894135,260.809998 
M234.497772,330.999634 
	C239.910889,330.999634 245.324005,330.999634 250.641785,330.999634 
	C250.641785,323.902161 250.641785,317.660858 250.641785,311.425415 
	C217.285782,311.425415 184.289398,311.425415 151.358047,311.425415 
	C151.358047,318.097504 151.358047,324.338837 151.358047,330.999634 
	C178.975098,330.999634 206.236755,330.999634 234.497772,330.999634 
M250.999557,464.393677 
	C250.999557,460.112793 250.999557,455.831909 250.999557,451.362915 
	C217.420120,451.362915 184.420349,451.362915 151.296600,451.362915 
	C151.296600,457.968353 151.296600,464.208405 151.296600,470.629700 
	C184.593124,470.629700 217.592438,470.629700 250.999420,470.629700 
	C250.999420,468.626099 250.999420,466.989868 250.999557,464.393677 
M172.500427,270.994293 
	C166.023849,270.994293 159.547272,270.994293 153.070679,270.994293 
	C168.219666,281.335022 183.439590,290.568756 198.806915,299.550385 
	C200.066757,300.286652 202.659195,299.867157 204.076355,299.036224 
	C218.439865,290.614838 232.690247,282.000305 246.960403,273.420105 
	C247.721100,272.962708 248.374786,272.327332 250.071976,270.994293 
	C223.697601,270.994293 198.598923,270.994293 172.500427,270.994293 
M233.820526,491.297882 
	C238.964813,488.215393 244.109100,485.132904 250.219910,481.471252 
	C216.875885,481.471252 185.002365,481.471252 151.802185,481.471252 
	C168.233444,491.343933 183.437653,500.567230 198.788330,509.539917 
	C200.050140,510.277466 202.627350,509.866547 204.051346,509.047180 
	C213.853256,503.407349 223.510895,497.516693 233.820526,491.297882 
z"/>
<path fill="#FFD300" opacity="1.000000" stroke="none" 
	d="
M261.000336,394.000000 
	C261.000336,352.893921 261.000336,312.287872 261.000336,271.341949 
	C277.698730,271.341949 293.938416,271.341949 310.590027,271.341949 
	C310.590027,350.989594 310.590027,430.652588 310.590027,510.657959 
	C294.301208,510.657959 278.061676,510.657959 261.000336,510.657959 
	C261.000336,471.952087 261.000336,433.226044 261.000336,394.000000 
z"/>
<path fill="#FFD300" opacity="1.000000" stroke="none" 
	d="
M140.999603,279.077484 
	C140.999603,356.485016 140.999603,433.404419 140.999603,510.661255 
	C124.294243,510.661255 108.054153,510.661255 91.406097,510.661255 
	C91.406097,431.000183 91.406097,351.334930 91.406097,271.334656 
	C107.714172,271.334656 123.954170,271.334656 140.999588,271.334656 
	C140.999588,273.750061 140.999588,276.169708 140.999603,279.077484 
z"/>
<path fill="#FFD200" opacity="1.000000" stroke="none" 
	d="
M188.308075,153.094849 
	C205.601501,148.126221 220.287476,152.068542 231.551941,165.451782 
	C242.402145,178.342850 244.246002,193.265076 236.799179,208.452484 
	C229.267044,223.813873 216.260162,231.301331 199.175049,230.884201 
	C180.299088,230.423340 164.834869,216.253891 161.481400,196.961105 
	C158.277267,178.527512 169.033340,160.730911 188.308075,153.094849 
z"/>
<path fill="#FED101" opacity="1.000000" stroke="none" 
	d="
M174.905685,433.105164 
	C159.379959,425.601135 148.568863,403.459930 151.364639,384.892853 
	C154.912445,361.331451 171.548019,344.750946 195.073013,341.329132 
	C207.448730,339.529053 217.871170,344.722260 222.444901,354.967712 
	C226.645584,364.377502 224.482803,375.911224 216.164597,382.086761 
	C212.114075,385.093933 206.662750,387.403290 201.681061,387.765228 
	C177.689209,389.508453 165.278702,409.758698 175.166992,432.379425 
	C175.148468,432.855408 174.905685,433.105164 174.905685,433.105164 
M209.002151,358.629211 
	C204.633377,354.356812 199.898758,353.466949 195.677750,356.124939 
	C191.912964,358.495667 190.173843,363.171692 191.499847,367.358337 
	C193.267075,372.938110 199.181091,375.810333 204.651718,373.745697 
	C210.233826,371.639069 212.159729,365.818390 209.002151,358.629211 
z"/>
<path fill="#FFD101" opacity="1.000000" stroke="none" 
	d="
M227.150620,348.836060 
	C247.328796,359.110443 256.545319,387.336670 247.161316,410.120209 
	C239.564255,428.565186 220.807632,441.225067 201.429153,440.987335 
	C188.019699,440.822876 177.760406,430.855652 177.568314,417.805817 
	C177.379623,404.985779 187.222610,394.675110 200.285858,394.008911 
	C224.282181,392.785156 236.772293,372.108704 226.832581,349.619812 
	C226.862198,349.127869 227.150620,348.836060 227.150620,348.836060 
M195.903458,426.001648 
	C200.180435,428.140747 204.756393,428.286011 207.661514,424.503845 
	C209.599075,421.981354 210.606949,417.876984 210.253891,414.676636 
	C209.784592,410.422607 206.222702,408.004883 201.763138,407.717255 
	C197.140457,407.419128 193.697266,409.382294 191.889175,413.683868 
	C189.885132,418.451660 191.394119,422.382385 195.903458,426.001648 
z"/>
<path fill="#FED001" opacity="1.000000" stroke="none" 
	d="
M195.443665,260.757202 
	C168.323074,257.464569 149.468536,236.863281 146.457779,212.902176 
	C146.231567,211.101807 146.154266,209.282715 146.331665,207.180435 
	C158.510696,228.311020 176.216537,240.779755 200.821381,240.836990 
	C225.514282,240.894424 243.335434,228.590469 255.338043,206.947235 
	C257.242615,230.077438 235.055481,263.666016 195.443665,260.757202 
z"/>
<path fill="#FFD300" opacity="1.000000" stroke="none" 
	d="
M233.998077,330.999634 
	C206.236755,330.999634 178.975098,330.999634 151.358047,330.999634 
	C151.358047,324.338837 151.358047,318.097504 151.358047,311.425415 
	C184.289398,311.425415 217.285782,311.425415 250.641785,311.425415 
	C250.641785,317.660858 250.641785,323.902161 250.641785,330.999634 
	C245.324005,330.999634 239.910889,330.999634 233.998077,330.999634 
z"/>
<path fill="#FFD300" opacity="1.000000" stroke="none" 
	d="
M250.999481,464.873657 
	C250.999420,466.989868 250.999420,468.626099 250.999420,470.629700 
	C217.592438,470.629700 184.593124,470.629700 151.296600,470.629700 
	C151.296600,464.208405 151.296600,457.968353 151.296600,451.362915 
	C184.420349,451.362915 217.420120,451.362915 250.999557,451.362915 
	C250.999557,455.831909 250.999557,460.112793 250.999481,464.873657 
z"/>
<path fill="#FECF01" opacity="1.000000" stroke="none" 
	d="
M188.657852,87.666985 
	C189.257645,92.324661 190.159103,96.972809 190.306808,101.644775 
	C190.364807,103.480209 188.512054,105.302826 187.938248,107.251648 
	C187.341812,109.277412 186.534424,111.700905 187.166885,113.468208 
	C187.593979,114.661613 191.030624,116.091377 191.929153,115.524895 
	C193.712662,114.400459 195.456482,112.090622 195.771744,110.047676 
	C196.154465,107.567734 195.360275,104.749474 194.512238,102.270164 
	C192.928070,97.638680 193.286407,93.314491 196.155289,89.464310 
	C199.216599,85.355865 199.624069,81.073418 198.476227,76.249123 
	C197.306824,71.334282 197.868698,66.725403 202.799759,63.257877 
	C198.593933,70.933586 202.374710,76.821793 206.427048,82.723053 
	C210.501938,88.657181 211.237595,94.849136 208.151154,101.612877 
	C206.880920,104.396553 206.150894,107.733101 206.325150,110.751785 
	C206.425598,112.492065 208.533752,114.771614 210.289490,115.526840 
	C211.426895,116.016098 214.448868,114.585434 215.018631,113.301537 
	C215.709442,111.744934 215.424057,108.714340 214.296494,107.592415 
	C211.271423,104.582413 211.448792,101.812355 212.701126,98.109558 
	C213.700058,95.156006 213.442383,91.777458 214.694916,87.975456 
	C216.107895,91.303314 217.552155,94.618347 218.924561,97.962860 
	C220.157150,100.966637 220.893051,104.265350 222.591003,106.967018 
	C225.609741,111.770187 226.752090,116.581581 225.243912,122.141754 
	C222.031433,133.985046 211.208603,141.863022 199.117813,140.934677 
	C187.324249,140.029175 177.239548,130.680328 176.363174,118.846985 
	C176.090927,115.170952 178.028717,111.268288 179.242523,107.563675 
	C180.350540,104.181969 181.706421,100.861717 183.213577,97.636101 
	C184.727432,94.396149 186.562958,91.306503 188.479065,87.937073 
	C188.700607,87.723160 188.657852,87.666985 188.657852,87.666985 
z"/>
<path fill="#FFD101" opacity="1.000000" stroke="none" 
	d="
M173.000336,270.994293 
	C198.598923,270.994293 223.697601,270.994293 250.071976,270.994293 
	C248.374786,272.327332 247.721100,272.962708 246.960403,273.420105 
	C232.690247,282.000305 218.439865,290.614838 204.076355,299.036224 
	C202.659195,299.867157 200.066757,300.286652 198.806915,299.550385 
	C183.439590,290.568756 168.219666,281.335022 153.070679,270.994293 
	C159.547272,270.994293 166.023849,270.994293 173.000336,270.994293 
z"/>
<path fill="#FFD101" opacity="1.000000" stroke="none" 
	d="
M233.517731,491.502319 
	C223.510895,497.516693 213.853256,503.407349 204.051346,509.047180 
	C202.627350,509.866547 200.050140,510.277466 198.788330,509.539917 
	C183.437653,500.567230 168.233444,491.343933 151.802185,481.471252 
	C185.002365,481.471252 216.875885,481.471252 250.219910,481.471252 
	C244.109100,485.132904 238.964813,488.215393 233.517731,491.502319 
z"/>
<path fill="#FECF01" opacity="1.000000" stroke="none" 
	d="
M188.723328,87.698120 
	C188.746033,87.673088 188.825439,87.726318 188.741638,87.696655 
	C188.657852,87.666985 188.700607,87.723160 188.723328,87.698120 
z"/>
<path fill="#FFD101" opacity="1.000000" stroke="none" 
	d="
M226.716614,349.272400 
	C226.691742,349.095490 226.812469,348.774078 227.041901,348.644348 
	C227.150620,348.836060 226.862198,349.127869 226.716614,349.272400 
z"/>
<path fill="#FED101" opacity="1.000000" stroke="none" 
	d="
M175.270813,432.731445 
	C175.288223,432.904388 175.183304,433.201294 174.992035,433.301697 
	C174.905685,433.105164 175.148468,432.855408 175.270813,432.731445 
z"/>
<path fill="#DB2331" opacity="1.000000" stroke="none" 
	d="
M209.220276,358.954132 
	C212.159729,365.818390 210.233826,371.639069 204.651718,373.745697 
	C199.181091,375.810333 193.267075,372.938110 191.499847,367.358337 
	C190.173843,363.171692 191.912964,358.495667 195.677750,356.124939 
	C199.898758,353.466949 204.633377,354.356812 209.220276,358.954132 
z"/>
<path fill="#DB2331" opacity="1.000000" stroke="none" 
	d="
M195.561905,425.797607 
	C191.394119,422.382385 189.885132,418.451660 191.889175,413.683868 
	C193.697266,409.382294 197.140457,407.419128 201.763138,407.717255 
	C206.222702,408.004883 209.784592,410.422607 210.253891,414.676636 
	C210.606949,417.876984 209.599075,421.981354 207.661514,424.503845 
	C204.756393,428.286011 200.180435,428.140747 195.561905,425.797607 
z"/>
</svg>