<svg version="1.1" id="Layer_1" xmlns="http://www.w3.org/2000/svg" xmlns:xlink="http://www.w3.org/1999/xlink" x="0px" y="0px"
	 width="100%" viewBox="0 0 612 367" enable-background="new 0 0 612 367" xml:space="preserve">
<path fill="#C6362D" opacity="1.000000" stroke="none" 
	d="
M1.000000,122.000000 
	C1.000000,81.690529 1.000000,41.381054 1.000000,1.000000 
	C204.022614,1.000000 407.045258,1.000000 610.533936,1.468657 
	C611.005676,41.625038 611.011353,81.312767 610.798340,121.215096 
	C607.774475,121.616554 604.969299,121.966576 602.164185,121.966972 
	C401.776123,121.995781 201.388062,121.996750 1.000000,122.000000 
z"/>
<path fill="#2F4284" opacity="1.000000" stroke="none" 
	d="
M611.000000,368.000000 
	C407.787140,368.000000 204.574295,368.000000 1.000000,368.000000 
	C1.000000,328.311432 1.000000,288.621735 1.468656,248.464966 
	C202.202957,247.997559 402.468597,248.000046 602.734253,247.958496 
	C604.807312,247.958069 606.880188,247.377945 609.285095,247.053741 
	C610.059692,247.050659 610.502380,247.062302 610.961182,247.534363 
	C610.984863,287.996521 610.992432,327.998260 611.000000,368.000000 
z"/>
<path fill="#FDFDF6" opacity="1.000000" stroke="none" 
	d="
M1.000000,246.000000 
	C1.000000,206.645767 1.000000,167.291550 1.459705,127.468857 
	C205.612946,127.000267 409.306458,127.000130 613.000000,127.000000 
	C613.000000,166.354233 613.000000,205.708450 612.755249,245.488007 
	C612.510498,245.913330 612.020203,245.995956 611.561951,245.906586 
	C409.897461,245.824951 208.691238,245.832169 7.485014,245.846970 
	C5.323339,245.847122 3.161671,245.946793 1.000000,246.000000 
M298.303253,138.962021 
	C297.657166,139.285614 297.011078,139.609222 296.364990,139.932816 
	C296.556732,140.219284 296.748474,140.505753 296.940216,140.792221 
	C297.644470,140.211960 298.348755,139.631699 299.620087,138.949997 
	C299.921478,138.546188 300.222870,138.142380 300.524261,137.738571 
	C300.267426,137.644211 299.822479,137.419647 299.783447,137.476044 
	C299.463715,137.938034 299.219604,138.452362 298.303253,138.962021 
M302.545166,224.708374 
	C303.204651,224.748978 303.864166,224.789581 305.161804,224.611542 
	C306.268463,224.703903 307.375122,224.796280 309.329437,224.959702 
	C310.883362,224.691467 312.437286,224.423233 314.546936,223.953629 
	C315.126556,223.862015 315.706207,223.770386 316.906799,223.772064 
	C317.266785,223.582855 317.626740,223.393661 318.467773,223.009171 
	C318.640778,223.013901 318.813751,223.018631 319.126801,223.719727 
	C320.788971,224.060593 322.451141,224.401459 324.646057,224.851578 
	C324.710815,225.525970 324.826630,226.731903 324.331299,227.917801 
	C318.418945,226.904068 313.456024,229.186203 308.152557,232.422501 
	C314.993042,233.966110 320.607086,233.218735 325.798431,228.009369 
	C328.941986,225.390732 332.085541,222.772095 335.057068,220.296738 
	C337.020966,220.063034 340.496490,220.626465 341.376587,219.370773 
	C344.684265,214.651566 347.145691,209.339218 350.050415,204.017822 
	C350.759949,205.048523 351.118378,205.569153 352.072266,206.954803 
	C352.271759,204.033127 352.411407,201.988113 352.609100,199.092621 
	C347.454407,203.232330 346.033630,202.777573 344.897034,197.130264 
	C345.005524,196.756699 345.113983,196.383133 345.874451,195.863052 
	C347.719604,195.448074 349.564758,195.033112 352.666321,194.335571 
	C352.638794,194.390320 353.273956,193.127747 353.893799,191.895569 
	C348.917511,188.731201 348.878357,188.613541 351.743195,185.919220 
	C351.850098,186.436752 351.867889,186.956360 352.071106,187.388824 
	C352.289978,187.854736 352.682617,188.239029 352.999451,188.658936 
	C353.439941,188.554306 353.880463,188.449677 354.320984,188.345047 
	C353.818176,181.408981 353.315399,174.472916 352.716217,166.207123 
	C350.876190,169.493439 349.855499,171.316376 348.834808,173.139313 
	C347.195068,169.223267 341.372101,165.380402 350.358582,162.385941 
	C345.233154,156.359100 340.695099,151.022949 335.573822,145.000992 
	C335.596893,144.723007 335.725800,143.171112 335.899780,141.076096 
	C330.959381,145.314453 328.265015,140.629318 324.849915,139.363434 
	C322.911499,138.644943 321.004944,137.544601 319.013214,137.353119 
	C317.207275,137.179520 315.305328,138.004807 313.445709,138.389694 
	C315.054932,139.946289 317.210419,141.032227 319.096802,140.679443 
	C321.554016,140.219910 322.107971,140.865234 321.726776,143.107346 
	C321.817444,143.070953 321.908112,143.034576 322.790039,142.995636 
	C324.023193,143.166367 325.256348,143.337097 326.489502,143.507828 
	C326.460175,143.828491 326.430847,144.149155 326.401550,144.469818 
	C323.936340,144.982742 321.471161,145.495667 318.478333,146.014664 
	C318.314270,145.951324 318.150208,145.887970 317.572723,145.384781 
	C316.991302,145.281219 316.409912,145.177643 315.064789,145.046967 
	C314.047577,145.040619 313.030396,145.034271 311.583466,144.472321 
	C310.903900,144.364883 310.224365,144.257446 308.920410,144.311752 
	C308.287476,144.223679 307.654572,144.135605 306.996124,143.391464 
	C306.707825,142.716583 306.419525,142.041702 306.131256,141.366821 
	C305.875214,141.450302 305.619171,141.533768 305.363129,141.617249 
	C305.568024,142.415741 305.772919,143.214233 305.576752,144.171295 
	C305.576752,144.171295 305.155731,144.077866 304.492493,143.998993 
	C303.675171,144.229233 302.857849,144.459473 301.275940,144.901184 
	C300.219482,144.949188 299.163025,144.997177 297.530029,144.663162 
	C296.358459,144.431534 295.043762,143.746155 294.044678,144.061325 
	C291.865692,144.748642 289.847321,145.945145 287.257690,147.173416 
	C287.147919,144.878082 287.079468,143.446182 287.542114,142.198700 
	C287.990387,142.007706 288.438629,141.816711 288.886902,141.625717 
	C288.684418,141.232285 288.481934,140.838867 288.279449,140.445450 
	C287.849304,140.959778 287.419159,141.474106 286.529053,142.265335 
	C284.257782,143.473495 282.106781,145.298355 279.691742,145.769379 
	C273.477020,146.981461 271.549194,152.822983 267.556000,156.378143 
	C266.949921,156.917755 267.934662,159.244247 268.238953,161.077835 
	C261.473053,164.828751 258.812927,170.890228 260.209167,179.180466 
	C257.831726,183.787491 258.329132,188.096268 262.192200,193.224411 
	C261.735535,187.739868 261.372040,183.374069 261.529175,178.658737 
	C262.142639,176.925888 262.756104,175.193054 263.369568,173.460220 
	C264.517761,174.993225 265.508514,177.491241 264.661896,178.673660 
	C260.751587,184.134903 267.036011,187.468018 267.000244,192.000351 
	C267.000244,192.000351 266.990204,192.021072 266.977783,192.803253 
	C266.616119,194.553391 266.004852,196.294998 265.944550,198.055450 
	C265.817505,201.765213 266.748840,204.989975 270.978516,206.771545 
	C269.775299,207.535583 268.450562,208.165070 267.407898,209.106827 
	C266.595062,209.841003 265.394012,211.390228 265.650909,211.835159 
	C266.489929,213.288406 267.917175,214.402039 269.118195,215.646286 
	C269.617920,214.466080 270.175171,213.305557 270.589508,212.096100 
	C270.758392,211.603058 270.617401,211.003845 270.617401,210.452957 
	C271.026825,210.387039 271.436279,210.321121 271.845703,210.255203 
	C272.190857,211.883743 272.535980,213.512283 272.961639,215.520630 
	C273.518738,215.520630 274.565063,215.520630 275.571869,215.520630 
	C276.555725,222.502838 279.066376,225.059677 288.229645,228.469360 
	C288.447418,227.023178 288.652710,225.659698 289.068329,222.899445 
	C290.426178,226.192322 291.211853,228.097687 292.106476,230.274078 
	C292.190979,230.322174 292.275482,230.370255 292.359985,230.418350 
	C292.241058,230.278107 292.122131,230.137863 292.015533,229.307343 
	C292.348694,226.602386 292.947845,227.170990 294.492523,228.797012 
	C296.211853,230.606903 298.514832,231.862320 300.563751,233.359100 
	C300.948395,232.810577 301.333069,232.262054 301.717712,231.713531 
	C300.272614,230.532089 298.947052,229.146637 297.356079,228.214081 
	C294.533386,226.559494 294.619232,225.209381 298.197815,223.739456 
	C299.475006,223.921158 300.752197,224.102844 302.545166,224.708374 
M263.051941,198.153656 
	C262.217468,196.721054 261.382965,195.288452 260.548492,193.855850 
	C259.756256,194.566223 258.964050,195.276581 258.171814,195.986938 
	C259.743988,197.029495 261.316162,198.072037 262.629791,199.737747 
	C262.419861,200.825119 262.209900,201.912506 261.499115,203.403381 
	C261.404419,204.199783 261.309723,204.996185 261.215027,205.792587 
	C261.476685,205.809311 261.738342,205.826050 262.000000,205.842773 
	C262.000000,204.895386 262.000000,203.947998 262.539764,203.398849 
	C263.625732,204.925903 264.711670,206.452972 265.797638,207.980026 
	C266.112732,207.761734 266.427856,207.543427 266.742950,207.325119 
	C265.537537,204.512207 264.332153,201.699295 263.051941,198.153656 
M259.485260,162.689240 
	C260.025391,163.024063 260.565521,163.358871 261.105652,163.693695 
	C261.238892,163.422867 261.372131,163.152023 261.505371,162.881195 
	C260.976532,162.678268 260.447662,162.475342 259.485260,162.689240 
M310.038910,227.815277 
	C310.436707,227.722321 310.834534,227.629379 311.232330,227.536453 
	C311.145630,227.417831 311.043793,227.189240 310.974670,227.198730 
	C310.570862,227.254135 310.174744,227.365311 310.038910,227.815277 
M291.535461,139.931992 
	C291.779846,139.783035 292.024231,139.634079 292.268616,139.485123 
	C292.017059,139.347244 291.685486,139.039917 291.533020,139.111908 
	C291.314423,139.215149 291.226440,139.595123 291.535461,139.931992 
M259.750214,202.829376 
	C259.586304,202.883591 259.422424,202.937820 259.258514,202.992035 
	C259.423279,203.045090 259.588074,203.098160 259.750214,202.829376 
M288.416992,138.482437 
	C288.416992,138.482437 288.522522,138.420151 288.416992,138.482437 
M342.482605,146.586151 
	C342.482605,146.586151 342.417603,146.476990 342.482605,146.586151 
M332.412933,226.481918 
	C332.412933,226.481918 332.523010,226.415970 332.412933,226.481918 
z"/>
<path fill="#FAFCFB" opacity="1.000000" stroke="none" 
	d="
M613.000000,126.600121 
	C409.306458,127.000130 205.612946,127.000267 1.459705,127.000198 
	C1.000000,126.250000 1.000000,125.500000 1.224832,124.339272 
	C1.757197,123.813248 1.958175,123.598312 2.515586,123.237228 
	C204.138046,123.185387 405.297516,123.179916 606.456970,123.178917 
	C607.622559,123.178909 608.788208,123.241570 610.136841,123.467987 
	C610.894958,123.474182 611.470032,123.287369 612.020691,123.085114 
	C611.996277,123.069679 612.026978,123.020729 612.271057,123.054596 
	C612.515137,123.088455 613.000000,123.000000 613.000000,123.000000 
	C613.000000,124.066750 613.000000,125.133492 613.000000,126.600121 
z"/>
<path fill="#BC191C" opacity="1.000000" stroke="none" 
	d="
M609.953796,123.274979 
	C608.788208,123.241570 607.622559,123.178909 606.456970,123.178917 
	C405.297516,123.179916 204.138046,123.185387 2.265109,123.118881 
	C1.367762,123.031372 1.183881,123.015686 1.000000,123.000000 
	C1.000000,123.000000 1.000000,122.500000 1.000000,122.250000 
	C201.388062,121.996750 401.776123,121.995781 602.164185,121.966972 
	C604.969299,121.966576 607.774475,121.616554 611.006592,121.216064 
	C611.433655,121.002419 611.850647,121.009506 611.934326,121.339233 
	C612.020996,122.119553 612.023987,122.570145 612.026978,123.020729 
	C612.026978,123.020729 611.996277,123.069679 611.665527,123.065323 
	C610.874390,123.132309 610.414124,123.203644 609.953796,123.274979 
z"/>
<path fill="#131D65" opacity="1.000000" stroke="none" 
	d="
M1.000000,246.250000 
	C3.161671,245.946793 5.323339,245.847122 7.485014,245.846970 
	C208.691238,245.832169 409.897461,245.824951 611.579346,246.157654 
	C612.004150,246.658051 611.953308,246.817993 611.662781,246.998108 
	C611.423035,247.018265 610.945068,247.073959 610.945068,247.073959 
	C610.502380,247.062302 610.059692,247.050659 608.822510,247.028519 
	C405.685394,247.012009 203.342697,247.006012 1.000000,247.000000 
	C1.000000,247.000000 1.000000,246.500000 1.000000,246.250000 
z"/>
<path fill="#2E3E93" opacity="1.000000" stroke="none" 
	d="
M1.000000,247.250000 
	C203.342697,247.006012 405.685394,247.012009 608.490601,247.043243 
	C606.880188,247.377945 604.807312,247.958069 602.734253,247.958496 
	C402.468597,248.000046 202.202957,247.997559 1.468656,247.998932 
	C1.000000,248.000000 1.000000,247.500000 1.000000,247.250000 
z"/>
<path fill="#E1A391" opacity="1.000000" stroke="none" 
	d="
M612.271057,123.054596 
	C612.023987,122.570145 612.020996,122.119553 611.990906,120.872940 
	C611.975830,80.384613 611.987915,40.692307 612.000000,0.999993 
	C612.333374,2.327369 612.956177,3.654368 612.957947,4.982192 
	C613.009766,44.008984 613.000000,83.035835 613.000000,122.531342 
	C613.000000,123.000000 612.515137,123.088455 612.271057,123.054596 
z"/>
<path fill="#939ECC" opacity="1.000000" stroke="none" 
	d="
M611.902527,246.977951 
	C611.953308,246.817993 612.004150,246.658051 612.037598,246.247025 
	C612.020203,245.995956 612.510498,245.913330 612.755249,245.956665 
	C613.000000,286.666656 613.000000,327.333344 612.499573,367.531342 
	C611.966919,327.034454 611.934692,287.006195 611.902527,246.977951 
z"/>
<path fill="#253372" opacity="1.000000" stroke="none" 
	d="
M611.662781,246.998108 
	C611.934692,287.006195 611.966919,327.034454 611.999573,367.531342 
	C612.000000,368.000000 611.500000,368.000000 611.250000,368.000000 
	C610.992432,327.998260 610.984863,287.996521 610.961182,247.534363 
	C610.945068,247.073959 611.423035,247.018265 611.662781,246.998108 
z"/>
<path fill="#C22127" opacity="1.000000" stroke="none" 
	d="
M611.750000,1.000000 
	C611.987915,40.692307 611.975830,80.384613 611.907227,120.543213 
	C611.850647,121.009506 611.433655,121.002419 611.225342,121.001450 
	C611.011353,81.312767 611.005676,41.625038 611.000000,1.468657 
	C611.000000,1.000000 611.500000,1.000000 611.750000,1.000000 
z"/>
<path fill="#EBCBB8" opacity="1.000000" stroke="none" 
	d="
M1.000000,123.250000 
	C1.183881,123.015686 1.367762,123.031372 1.802121,123.165398 
	C1.958175,123.598312 1.757197,123.813248 1.224832,123.964272 
	C1.000000,124.000000 1.000000,123.500000 1.000000,123.250000 
z"/>
<path fill="#C6362D" opacity="1.000000" stroke="none" 
	d="
M318.986755,223.023361 
	C318.813751,223.018631 318.640778,223.013901 317.971619,223.055573 
	C317.305389,223.065994 317.135345,223.030014 316.510071,223.008499 
	C312.036377,223.341446 308.017883,223.659927 303.725464,223.695374 
	C301.290863,223.282455 299.130249,223.152603 296.979187,223.009674 
	C296.988739,222.996628 296.986511,223.026154 296.777771,222.751190 
	C295.671448,222.348358 294.773865,222.220490 293.928711,222.074463 
	C293.981171,222.056320 293.909698,222.141266 293.913208,221.810745 
	C291.728790,220.659378 289.540863,219.838531 287.121521,218.733887 
	C280.613373,215.419281 275.861572,210.700821 271.943787,204.688202 
	C271.630676,204.066650 271.374176,203.753510 271.075989,203.092896 
	C269.686249,199.170609 268.338226,195.595840 266.990234,192.021072 
	C266.990204,192.021072 267.000244,192.000351 267.089844,191.677490 
	C267.545044,189.574173 267.910614,187.793732 268.689331,186.045990 
	C271.055756,186.027023 273.009094,185.975357 274.795593,186.213898 
	C272.991302,187.719177 271.353851,188.934250 269.532013,190.286148 
	C272.817688,192.393524 275.554749,194.149002 278.221924,195.920654 
	C278.152100,195.936829 278.162720,195.793854 278.142273,196.133575 
	C278.505981,196.962997 278.890076,197.452698 279.541473,198.133148 
	C287.336639,211.048889 299.443573,216.678558 313.378662,213.861038 
	C326.301178,211.248260 335.356659,201.208389 337.099609,188.083649 
	C338.697937,188.104965 340.084167,187.845886 341.470398,187.586792 
	C340.862305,185.780975 340.254211,183.975143 339.580841,181.975464 
	C339.632812,181.938812 340.271088,181.488541 341.182983,180.923691 
	C342.301636,180.521332 343.146667,180.233566 344.024750,179.934540 
	C343.289825,178.430435 342.673218,177.168427 342.445068,175.948715 
	C343.585693,176.428436 344.934937,176.795792 344.995758,177.314362 
	C345.494171,181.561996 345.752594,185.837769 345.877502,189.901566 
	C343.411346,191.034149 341.151550,192.370163 339.275024,193.479568 
	C340.807739,196.353470 341.937012,198.470947 343.083252,200.928955 
	C337.964172,211.737350 329.735504,218.777069 318.986755,223.023361 
M337.530365,202.704300 
	C337.061646,202.532623 336.592896,202.360931 336.124176,202.189255 
	C336.286560,202.942230 336.448975,203.695221 336.611389,204.448196 
	C337.074280,203.965469 337.537140,203.482742 338.270386,202.892807 
	C338.180267,202.928543 338.090118,202.964264 337.530365,202.704300 
M307.091278,217.724548 
	C307.036896,217.229218 306.982513,216.733902 306.928131,216.238556 
	C306.485626,216.352615 306.043091,216.466690 305.600586,216.580765 
	C305.899933,217.003891 306.199310,217.427032 307.091278,217.724548 
M326.399933,215.198944 
	C326.788605,215.203201 327.177246,215.207458 327.565887,215.211716 
	C327.567444,215.050446 327.579865,214.749023 327.569031,214.748184 
	C327.182312,214.718216 326.793457,214.716385 326.399933,215.198944 
M275.480652,196.573578 
	C275.480652,196.573578 275.427856,196.477631 275.480652,196.573578 
z"/>
<path fill="#F4F3F0" opacity="1.000000" stroke="none" 
	d="
M346.083862,190.105011 
	C345.752594,185.837769 345.494171,181.561996 344.995758,177.314362 
	C344.934937,176.795792 343.585693,176.428436 342.440796,175.562073 
	C342.079376,174.105988 342.110687,173.078812 342.521851,172.020691 
	C343.070587,170.779510 343.783173,169.272308 343.312836,168.411285 
	C341.432281,164.968628 339.809967,160.981979 336.938690,158.569290 
	C331.372894,153.892365 325.027985,150.142563 319.005951,146.008575 
	C321.471161,145.495667 323.936340,144.982742 326.401550,144.469818 
	C326.430847,144.149155 326.460175,143.828491 326.489502,143.507828 
	C325.256348,143.337097 324.023193,143.166367 322.395020,142.997818 
	C322.000000,143.000000 322.001740,143.001404 322.001740,143.001404 
	C322.107971,140.865234 321.554016,140.219910 319.096802,140.679443 
	C317.210419,141.032227 315.054932,139.946289 313.445709,138.389694 
	C315.305328,138.004807 317.207275,137.179520 319.013214,137.353119 
	C321.004944,137.544601 322.911499,138.644943 324.849915,139.363434 
	C328.265015,140.629318 330.959381,145.314453 335.899780,141.076096 
	C335.725800,143.171112 335.596893,144.723007 335.573822,145.000992 
	C340.695099,151.022949 345.233154,156.359100 350.358582,162.385941 
	C341.372101,165.380402 347.195068,169.223267 348.834808,173.139313 
	C349.855499,171.316376 350.876190,169.493439 352.716217,166.207123 
	C353.315399,174.472916 353.818176,181.408981 354.320984,188.345047 
	C353.880463,188.449677 353.439941,188.554306 352.999451,188.658936 
	C352.682617,188.239029 352.289978,187.854736 352.071106,187.388824 
	C351.867889,186.956360 351.850098,186.436752 351.743195,185.919220 
	C348.878357,188.613541 348.917511,188.731201 353.893799,191.895569 
	C353.273956,193.127747 352.638794,194.390320 352.666321,194.335571 
	C349.564758,195.033112 347.719604,195.448074 345.534363,195.561279 
	C345.490814,193.541336 345.787323,191.823166 346.083862,190.105011 
z"/>
<path fill="#F4F3F0" opacity="1.000000" stroke="none" 
	d="
M268.276215,186.013290 
	C267.910614,187.793732 267.545044,189.574173 267.081635,191.680008 
	C267.036011,187.468018 260.751587,184.134903 264.661896,178.673660 
	C265.508514,177.491241 264.517761,174.993225 263.369568,173.460220 
	C262.756104,175.193054 262.142639,176.925888 261.264587,178.829407 
	C261.000000,179.000061 260.991455,178.992569 260.991455,178.992569 
	C258.812927,170.890228 261.473053,164.828751 268.238953,161.077835 
	C267.934662,159.244247 266.949921,156.917755 267.556000,156.378143 
	C271.549194,152.822983 273.477020,146.981461 279.691742,145.769379 
	C282.106781,145.298355 284.257782,143.473495 286.764771,142.132935 
	C287.000458,142.000519 287.010986,142.014297 287.010986,142.014297 
	C287.079468,143.446182 287.147919,144.878082 287.257690,147.173416 
	C289.847321,145.945145 291.865692,144.748642 294.044678,144.061325 
	C295.043762,143.746155 296.358459,144.431534 297.757568,145.152374 
	C297.965179,146.046844 297.945282,146.452103 297.597687,146.907623 
	C295.464539,147.137741 293.659058,147.317612 291.510193,147.623444 
	C288.812042,148.852646 286.457306,149.955887 283.751740,151.088562 
	C282.976227,151.608688 282.551483,152.099396 281.946228,152.845306 
	C275.773895,158.305344 270.916870,164.278595 268.680420,172.313599 
	C268.380981,172.938599 268.266022,173.401382 268.069519,174.211899 
	C267.986725,175.031769 267.985382,175.503906 267.770325,176.239166 
	C267.668121,177.700562 267.779633,178.898834 267.933319,180.430542 
	C268.070587,181.199326 268.165680,181.634674 268.211060,182.464371 
	C268.199646,183.910248 268.237946,184.961761 268.276215,186.013290 
M276.693237,150.072479 
	C276.432190,150.584213 276.171143,151.095947 275.910095,151.607666 
	C276.655029,151.606308 277.399933,151.604965 278.144867,151.603622 
	C277.876862,151.092468 277.608826,150.581329 276.693237,150.072479 
M270.561798,158.302078 
	C270.292480,158.022049 270.026367,157.738525 269.740112,157.477036 
	C269.730469,157.468231 269.517914,157.681534 269.399933,157.791290 
	C269.670441,158.072342 269.940979,158.353378 270.561798,158.302078 
M264.826538,182.247223 
	C264.880829,182.412064 264.935089,182.576889 264.989380,182.741730 
	C265.042511,182.576004 265.095642,182.410263 264.826538,182.247223 
z"/>
<path fill="#F4F3F0" opacity="1.000000" stroke="none" 
	d="
M319.056763,223.371552 
	C329.735504,218.777069 337.964172,211.737350 343.353088,200.700653 
	C344.023926,199.325745 344.441864,198.519684 344.859802,197.713623 
	C346.033630,202.777573 347.454407,203.232330 352.609100,199.092621 
	C352.411407,201.988113 352.271759,204.033127 352.072266,206.954803 
	C351.118378,205.569153 350.759949,205.048523 350.050415,204.017822 
	C347.145691,209.339218 344.684265,214.651566 341.376587,219.370773 
	C340.496490,220.626465 337.020966,220.063034 335.057068,220.296738 
	C332.085541,222.772095 328.941986,225.390732 325.396393,228.002899 
	C324.994354,227.996429 324.942413,227.937836 324.942413,227.937836 
	C324.826630,226.731903 324.710815,225.525970 324.646057,224.851578 
	C322.451141,224.401459 320.788971,224.060593 319.056763,223.371552 
z"/>
<path fill="#BE3223" opacity="1.000000" stroke="none" 
	d="
M318.742126,146.011627 
	C325.027985,150.142563 331.372894,153.892365 336.938690,158.569290 
	C339.809967,160.981979 341.432281,164.968628 343.312836,168.411285 
	C343.783173,169.272308 343.070587,170.779510 342.217896,172.037689 
	C341.246887,172.920105 340.959625,173.754562 340.375702,174.461700 
	C337.214294,175.521927 338.041626,173.359497 337.847961,171.705490 
	C336.807892,169.094330 335.371979,168.414444 333.117859,169.754028 
	C333.011230,169.546326 332.954346,169.082870 332.881622,168.862991 
	C332.657074,168.359146 332.433746,168.152405 331.996307,167.852402 
	C331.853760,167.681885 331.788544,167.242218 332.080780,167.193817 
	C333.092346,167.191910 333.811646,167.238388 334.990417,167.314560 
	C334.150360,166.328247 333.595978,165.677338 333.336884,164.883804 
	C338.037964,162.776108 333.523590,160.885437 333.913696,158.410049 
	C332.332458,160.249802 331.157898,161.616379 329.663666,162.988861 
	C328.917297,162.993408 328.490631,162.992050 327.746002,162.870239 
	C323.286530,160.151016 319.145050,157.552261 314.850739,154.638748 
	C314.500702,153.201324 314.303497,152.078644 314.373016,151.095413 
	C315.754944,151.152283 316.870117,151.069717 318.233307,150.996765 
	C318.481323,151.006363 318.977448,151.022446 318.986084,151.266479 
	C318.994720,151.510513 318.999359,151.999390 318.794739,152.122803 
	C318.604858,152.594421 318.619598,152.942642 318.634308,153.290848 
	C318.756592,152.860764 318.878906,152.430679 319.251587,151.984619 
	C319.768433,151.813248 320.034912,151.657883 320.301392,151.502502 
	C319.875946,151.326736 319.450531,151.150940 319.127655,150.688599 
	C317.511047,149.591675 315.791870,148.781342 314.117035,147.632904 
	C314.853088,146.810074 315.544830,146.325317 316.529572,145.839233 
	C317.210449,145.833481 317.598267,145.829041 317.986115,145.824615 
	C318.150208,145.887970 318.314270,145.951324 318.742126,146.011627 
M321.338257,154.623917 
	C321.414062,154.881668 321.489838,155.139404 321.565643,155.397156 
	C321.851105,155.117599 322.136536,154.838043 322.421997,154.558487 
	C322.166412,154.476181 321.910797,154.393860 321.338257,154.623917 
z"/>
<path fill="#F4F3F0" opacity="1.000000" stroke="none" 
	d="
M272.000427,204.996613 
	C275.861572,210.700821 280.613373,215.419281 287.235535,219.040222 
	C289.690582,220.467316 291.800140,221.304291 293.909698,222.141266 
	C293.909698,222.141266 293.981171,222.056320 294.150452,222.335342 
	C295.208649,222.751633 296.097595,222.888901 296.986511,223.026154 
	C296.986511,223.026154 296.988739,222.996628 297.119049,223.180557 
	C297.249359,223.364487 297.424866,223.769913 297.424866,223.769913 
	C294.619232,225.209381 294.533386,226.559494 297.356079,228.214081 
	C298.947052,229.146637 300.272614,230.532089 301.717712,231.713531 
	C301.333069,232.262054 300.948395,232.810577 300.563751,233.359100 
	C298.514832,231.862320 296.211853,230.606903 294.492523,228.797012 
	C292.947845,227.170990 292.348694,226.602386 292.007751,229.653671 
	C292.000000,230.000000 291.997559,230.003052 291.997559,230.003052 
	C291.211853,228.097687 290.426178,226.192322 289.068329,222.899445 
	C288.652710,225.659698 288.447418,227.023178 288.229645,228.469360 
	C279.066376,225.059677 276.555725,222.502838 275.571869,215.520630 
	C274.565063,215.520630 273.518738,215.520630 272.961639,215.520630 
	C272.535980,213.512283 272.190857,211.883743 271.845703,210.255203 
	C271.436279,210.321121 271.026825,210.387039 270.617401,210.452957 
	C270.617401,211.003845 270.758392,211.603058 270.589508,212.096100 
	C270.175171,213.305557 269.617920,214.466080 269.118195,215.646286 
	C267.917175,214.402039 266.489929,213.288406 265.650909,211.835159 
	C265.394012,211.390228 266.595062,209.841003 267.407898,209.106827 
	C268.450562,208.165070 269.775299,207.535583 270.989258,206.385773 
	C271.000000,206.000000 270.998932,206.001190 271.216705,205.890610 
	C271.699615,205.574142 271.888245,205.313004 272.000427,204.996613 
z"/>
<path fill="#BC191C" opacity="1.000000" stroke="none" 
	d="
M314.106262,150.955963 
	C314.303497,152.078644 314.500702,153.201324 314.428467,154.662933 
	C310.122650,154.743027 306.086304,154.484207 302.020874,153.848419 
	C301.432465,151.831055 300.873199,150.190628 300.358459,148.680954 
	C298.765381,149.148056 297.700439,149.460327 295.615448,150.071671 
	C296.830444,148.380981 297.377930,147.619186 297.925385,146.857376 
	C297.945282,146.452103 297.965179,146.046844 298.045837,145.343384 
	C299.163025,144.997177 300.219482,144.949188 302.011292,144.843414 
	C303.456146,144.789352 304.165619,144.793060 304.950439,145.103394 
	C306.348022,146.038528 307.670319,146.667023 309.347443,147.464188 
	C308.196136,147.895477 307.287231,148.235947 305.245575,149.000763 
	C308.041901,150.533020 309.955719,151.581696 312.280243,152.855438 
	C312.602753,151.147156 312.809143,150.054153 313.255219,148.983002 
	C313.494934,149.004868 313.976715,149.018112 313.984711,149.014648 
	C313.992706,149.011169 314.008545,149.004410 314.020874,149.330078 
	C314.057526,150.089157 314.081879,150.522568 314.106262,150.955963 
z"/>
<path fill="#F4F3F0" opacity="1.000000" stroke="none" 
	d="
M325.018768,228.027039 
	C320.607086,233.218735 314.993042,233.966110 308.152557,232.422501 
	C313.456024,229.186203 318.418945,226.904068 324.636841,227.927826 
	C324.942413,227.937836 324.994354,227.996429 325.018768,228.027039 
z"/>
<path fill="#C44736" opacity="1.000000" stroke="none" 
	d="
M313.015503,148.961151 
	C312.809143,150.054153 312.602753,151.147156 312.280243,152.855438 
	C309.955719,151.581696 308.041901,150.533020 305.245575,149.000763 
	C307.287231,148.235947 308.196136,147.895477 309.347443,147.464188 
	C307.670319,146.667023 306.348022,146.038528 305.022125,144.924118 
	C305.018524,144.438217 305.155731,144.077866 305.155731,144.077866 
	C305.155731,144.077866 305.576752,144.171295 306.035706,144.181854 
	C306.670319,144.144089 306.845978,144.095795 307.021637,144.047516 
	C307.654572,144.135605 308.287476,144.223679 309.403625,144.482071 
	C310.595612,144.777573 311.304413,144.902740 312.013184,145.027924 
	C313.030396,145.034271 314.047577,145.040619 315.545013,145.254059 
	C316.025238,145.461151 316.236542,145.840546 316.236542,145.840546 
	C315.544830,146.325317 314.853088,146.810074 314.088409,147.660919 
	C314.015442,148.026993 313.965820,148.089828 313.761292,148.178955 
	C313.296143,148.436432 313.115723,148.667450 313.015503,148.961151 
z"/>
<path fill="#F4F3F0" opacity="1.000000" stroke="none" 
	d="
M266.984009,192.412170 
	C268.338226,195.595840 269.686249,199.170609 271.050629,203.520645 
	C271.044281,204.864334 271.021606,205.432755 270.998932,206.001190 
	C270.998932,206.001190 271.000000,206.000000 271.000610,205.999695 
	C266.748840,204.989975 265.817505,201.765213 265.944550,198.055450 
	C266.004852,196.294998 266.616119,194.553391 266.984009,192.412170 
z"/>
<path fill="#B02B16" opacity="1.000000" stroke="none" 
	d="
M344.878418,197.421936 
	C344.441864,198.519684 344.023926,199.325745 343.336121,200.360123 
	C341.937012,198.470947 340.807739,196.353470 339.275024,193.479568 
	C341.151550,192.370163 343.411346,191.034149 345.877502,189.901566 
	C345.787323,191.823166 345.490814,193.541336 345.208374,195.634521 
	C345.113983,196.383133 345.005524,196.756699 344.878418,197.421936 
z"/>
<path fill="#F4F3F0" opacity="1.000000" stroke="none" 
	d="
M261.004272,179.004166 
	C261.372040,183.374069 261.735535,187.739868 262.192200,193.224411 
	C258.329132,188.096268 257.831726,183.787491 260.600311,179.086517 
	C260.991455,178.992569 261.000000,179.000061 261.004272,179.004166 
z"/>
<path fill="#F4F3F0" opacity="1.000000" stroke="none" 
	d="
M262.000000,202.999893 
	C262.209900,201.912506 262.419861,200.825119 262.817627,199.368011 
	C263.005432,198.998291 263.126740,198.886368 263.126740,198.886368 
	C264.332153,201.699295 265.537537,204.512207 266.742950,207.325119 
	C266.427856,207.543427 266.112732,207.761734 265.797638,207.980026 
	C264.711670,206.452972 263.625732,204.925903 262.269897,203.199432 
	C262.000000,203.000000 262.000000,202.999893 262.000000,202.999893 
z"/>
<path fill="#BB3223" opacity="1.000000" stroke="none" 
	d="
M303.999420,223.978409 
	C308.017883,223.659927 312.036377,223.341446 316.310486,223.150085 
	C316.566132,223.277206 316.285828,223.678772 316.285828,223.678772 
	C315.706207,223.770386 315.126556,223.862015 313.871216,224.006363 
	C311.624237,224.335617 310.053009,224.612137 308.481781,224.888641 
	C307.375122,224.796280 306.268463,224.703903 304.715393,224.517853 
	C304.268951,224.424179 303.935577,224.081787 303.953186,224.056946 
	C303.970795,224.032120 303.999420,223.978409 303.999420,223.978409 
z"/>
<path fill="#F4F3F0" opacity="1.000000" stroke="none" 
	d="
M262.946899,199.056427 
	C261.316162,198.072037 259.743988,197.029495 258.171814,195.986938 
	C258.964050,195.276581 259.756256,194.566223 260.548492,193.855850 
	C261.382965,195.288452 262.217468,196.721054 263.089355,198.520020 
	C263.126740,198.886368 263.005432,198.998291 262.946899,199.056427 
z"/>
<path fill="#BB3223" opacity="1.000000" stroke="none" 
	d="
M297.811340,223.754684 
	C297.424866,223.769913 297.249359,223.364487 297.109497,223.193604 
	C299.130249,223.152603 301.290863,223.282455 303.725464,223.695374 
	C303.999420,223.978409 303.970795,224.032120 303.637451,224.114914 
	C302.879211,224.226654 302.454285,224.255600 302.029388,224.284546 
	C300.752197,224.102844 299.475006,223.921158 297.811340,223.754684 
z"/>
<path fill="#F4F3F0" opacity="1.000000" stroke="none" 
	d="
M259.702026,162.480835 
	C260.447662,162.475342 260.976532,162.678268 261.505371,162.881195 
	C261.372131,163.152023 261.238892,163.422867 261.105652,163.693695 
	C260.565521,163.358871 260.025391,163.024063 259.702026,162.480835 
z"/>
<path fill="#F4F3F0" opacity="1.000000" stroke="none" 
	d="
M307.008881,143.719482 
	C306.845978,144.095795 306.670319,144.144089 306.236206,144.102570 
	C305.772919,143.214233 305.568024,142.415741 305.363129,141.617249 
	C305.619171,141.533768 305.875214,141.450302 306.131256,141.366821 
	C306.419525,142.041702 306.707825,142.716583 307.008881,143.719482 
z"/>
<path fill="#F4F3F0" opacity="1.000000" stroke="none" 
	d="
M286.994751,141.994476 
	C287.419159,141.474106 287.849304,140.959778 288.279449,140.445450 
	C288.481934,140.838867 288.684418,141.232285 288.886902,141.625717 
	C288.438629,141.816711 287.990387,142.007706 287.276550,142.106506 
	C287.010986,142.014297 287.000458,142.000519 286.994751,141.994476 
z"/>
<path fill="#F4F3F0" opacity="1.000000" stroke="none" 
	d="
M299.053040,139.051453 
	C298.348755,139.631699 297.644470,140.211960 296.940216,140.792221 
	C296.748474,140.505753 296.556732,140.219284 296.364990,139.932816 
	C297.011078,139.609222 297.657166,139.285614 298.652771,138.981812 
	C299.002258,139.001617 299.053040,139.051453 299.053040,139.051453 
z"/>
<path fill="#F4F3F0" opacity="1.000000" stroke="none" 
	d="
M308.905609,224.924164 
	C310.053009,224.612137 311.624237,224.335617 313.593323,224.107056 
	C312.437286,224.423233 310.883362,224.691467 308.905609,224.924164 
z"/>
<path fill="#F4F3F0" opacity="1.000000" stroke="none" 
	d="
M262.000000,203.000305 
	C262.000000,203.947998 262.000000,204.895386 262.000000,205.842773 
	C261.738342,205.826050 261.476685,205.809311 261.215027,205.792587 
	C261.309723,204.996185 261.404419,204.199783 261.749573,203.201630 
	C262.000000,202.999893 262.000000,203.000000 262.000000,203.000305 
z"/>
<path fill="#F4F3F0" opacity="1.000000" stroke="none" 
	d="
M298.977386,138.976196 
	C299.219604,138.452362 299.463715,137.938034 299.783447,137.476044 
	C299.822479,137.419647 300.267426,137.644211 300.524261,137.738571 
	C300.222870,138.142380 299.921478,138.546188 299.336548,139.000732 
	C299.053040,139.051453 299.002258,139.001617 298.977386,138.976196 
z"/>
<path fill="#F4F3F0" opacity="1.000000" stroke="none" 
	d="
M311.798340,144.750122 
	C311.304413,144.902740 310.595612,144.777573 309.715820,144.401199 
	C310.224365,144.257446 310.903900,144.364883 311.798340,144.750122 
z"/>
<path fill="#F4F3F0" opacity="1.000000" stroke="none" 
	d="
M309.907471,227.636475 
	C310.174744,227.365311 310.570862,227.254135 310.974670,227.198730 
	C311.043793,227.189240 311.145630,227.417831 311.232330,227.536438 
	C310.834534,227.629379 310.436707,227.722321 309.907471,227.636475 
z"/>
<path fill="#F4F3F0" opacity="1.000000" stroke="none" 
	d="
M291.309082,139.894470 
	C291.226440,139.595123 291.314423,139.215149 291.533020,139.111908 
	C291.685486,139.039917 292.017059,139.347244 292.268616,139.485123 
	C292.024231,139.634079 291.779846,139.783035 291.309082,139.894470 
z"/>
<path fill="#F4F3F0" opacity="1.000000" stroke="none" 
	d="
M304.824097,144.038422 
	C305.155731,144.077866 305.018524,144.438217 304.946838,144.617493 
	C304.165619,144.793060 303.456146,144.789352 302.393585,144.737671 
	C302.857849,144.459473 303.675171,144.229233 304.824097,144.038422 
z"/>
<path fill="#F4F3F0" opacity="1.000000" stroke="none" 
	d="
M302.287292,224.496460 
	C302.454285,224.255600 302.879211,224.226654 303.619843,224.139740 
	C303.935577,224.081787 304.268951,224.424179 304.396301,224.627182 
	C303.864166,224.789581 303.204651,224.748978 302.287292,224.496460 
z"/>
<path fill="#F4F3F0" opacity="1.000000" stroke="none" 
	d="
M316.529572,145.839233 
	C316.236542,145.840546 316.025238,145.461151 315.926880,145.267609 
	C316.409912,145.177643 316.991302,145.281219 317.779419,145.604691 
	C317.598267,145.829041 317.210449,145.833481 316.529572,145.839233 
z"/>
<path fill="#F4F3F0" opacity="1.000000" stroke="none" 
	d="
M259.751526,202.990295 
	C259.588074,203.098160 259.423279,203.045090 259.258514,202.992035 
	C259.422424,202.937820 259.586304,202.883591 259.751526,202.990295 
z"/>
<path fill="#F4F3F0" opacity="1.000000" stroke="none" 
	d="
M292.001587,229.998810 
	C292.122131,230.137863 292.241058,230.278107 292.359985,230.418350 
	C292.275482,230.370255 292.190979,230.322174 292.052002,230.138565 
	C291.997559,230.003052 292.000000,230.000000 292.001587,229.998810 
z"/>
<path fill="#F4F3F0" opacity="1.000000" stroke="none" 
	d="
M288.469757,138.451294 
	C288.522522,138.420151 288.416992,138.482437 288.469757,138.451294 
z"/>
<path fill="#F4F3F0" opacity="1.000000" stroke="none" 
	d="
M342.450104,146.531570 
	C342.417603,146.476990 342.482605,146.586151 342.450104,146.531570 
z"/>
<path fill="#F4F3F0" opacity="1.000000" stroke="none" 
	d="
M332.467957,226.448944 
	C332.523010,226.415970 332.412933,226.481918 332.467957,226.448944 
z"/>
<path fill="#F4F3F0" opacity="1.000000" stroke="none" 
	d="
M316.596313,223.725418 
	C316.285828,223.678772 316.566132,223.277206 316.765717,223.135620 
	C317.135345,223.030014 317.305389,223.065994 317.731079,223.153229 
	C317.626740,223.393661 317.266785,223.582855 316.596313,223.725418 
z"/>
<path fill="#F4F3F0" opacity="1.000000" stroke="none" 
	d="
M321.999390,142.999084 
	C321.908112,143.034576 321.817444,143.070953 321.864258,143.054382 
	C322.001740,143.001404 322.000000,143.000000 321.999390,142.999084 
z"/>
<path fill="#EBCBB8" opacity="1.000000" stroke="none" 
	d="
M610.136841,123.467987 
	C610.414124,123.203644 610.874390,123.132309 611.689941,123.080765 
	C611.470032,123.287369 610.894958,123.474182 610.136841,123.467987 
z"/>
<path fill="#EEEFEA" opacity="1.000000" stroke="none" 
	d="
M302.049957,154.225372 
	C306.086304,154.484207 310.122650,154.743027 314.581268,154.977676 
	C319.145050,157.552261 323.286530,160.151016 327.893402,163.110519 
	C328.897003,163.993912 329.435272,164.516571 329.986267,165.024399 
	C329.998993,165.009567 329.963654,165.019821 330.023254,165.281601 
	C330.369202,165.739105 330.655487,165.934830 331.011658,166.365845 
	C331.211578,166.933792 331.450348,167.141373 331.814087,167.227219 
	C331.830353,167.230560 331.788544,167.242218 331.788544,167.242218 
	C331.788544,167.242218 331.853760,167.681885 332.024384,168.093079 
	C332.382111,168.783783 332.635223,168.976639 332.954346,169.082870 
	C332.954346,169.082870 333.011230,169.546326 333.180359,170.082458 
	C334.210114,172.118179 335.070709,173.617752 335.961487,175.092880 
	C335.991669,175.068451 335.926910,175.025955 335.837006,175.397110 
	C335.882660,176.519073 336.018219,177.269897 336.107727,178.337555 
	C336.355042,179.437637 336.648468,180.220886 336.894653,181.428955 
	C336.860748,183.836929 336.874115,185.820099 336.887451,187.803253 
	C335.356659,201.208389 326.301178,211.248260 313.378662,213.861038 
	C299.443573,216.678558 287.336639,211.048889 279.479706,197.822739 
	C278.821350,196.812332 278.492035,196.303101 278.162720,195.793854 
	C278.162720,195.793854 278.152100,195.936829 278.165894,195.518127 
	C277.497803,190.786316 276.815918,186.473190 276.314331,181.848099 
	C276.627136,180.351868 276.759674,179.167603 276.981750,177.605377 
	C277.311676,176.489944 277.552124,175.752457 277.905304,174.870743 
	C278.106079,174.487274 278.110168,174.246567 278.224609,173.707443 
	C279.816010,170.922516 280.670807,167.784088 282.718750,166.076935 
	C287.547485,162.051666 292.944824,158.708435 298.461243,155.105591 
	C299.890198,154.823029 300.970062,154.524200 302.049957,154.225372 
M323.340393,174.388504 
	C324.287781,178.594666 325.235168,182.800827 326.025757,187.693924 
	C324.754120,188.668427 322.315155,188.412537 322.856354,191.301956 
	C323.033661,192.248413 321.878967,193.749084 320.947296,194.543381 
	C317.708496,197.304535 313.761993,199.425797 311.125427,202.643326 
	C308.983246,205.257523 307.549255,205.488449 305.114014,203.805908 
	C302.171844,201.773102 299.207642,199.772156 295.515625,197.745773 
	C295.386627,197.955032 295.257599,198.164276 295.066467,198.380630 
	C295.066467,198.380630 295.004456,198.372574 295.619324,198.339279 
	C295.638824,198.134964 295.658356,197.930649 295.454834,197.083923 
	C294.320770,196.335541 293.186707,195.587158 292.065918,194.068176 
	C291.070618,189.951279 289.222260,185.824615 289.269257,181.719650 
	C289.350616,174.616821 294.258759,170.402451 300.209595,167.241379 
	C301.440002,166.587784 302.231720,165.108276 303.225647,164.009415 
	C301.810730,163.460480 300.432129,162.587112 298.974030,162.423935 
	C294.740723,161.950165 285.924377,168.021210 283.862488,171.931091 
	C280.887726,177.571991 281.474426,183.383484 282.768768,189.065872 
	C283.975311,194.362656 286.077515,199.496826 291.207062,202.493484 
	C293.842102,204.032867 296.534454,205.474106 299.132233,207.660751 
	C301.006470,208.145599 303.020050,209.327820 304.729187,208.986328 
	C310.156128,207.902039 315.462616,206.222260 320.838501,204.862930 
	C321.324249,204.740082 321.974274,205.266953 323.814423,205.989029 
	C321.792572,204.459152 320.905426,203.787872 320.018280,203.116592 
	C329.516693,204.573517 326.344482,194.299759 330.694733,192.321396 
	C330.097137,190.260559 329.632843,188.659378 329.871826,186.943390 
	C330.582947,185.760742 331.294067,184.578094 332.005188,183.395447 
	C328.020721,181.041260 331.717529,177.660004 330.789124,174.660065 
	C329.725372,174.308685 328.520630,173.910736 327.656616,172.731506 
	C327.483032,170.818192 327.309479,168.904892 327.118958,166.804825 
	C324.419708,167.376755 322.257568,167.834900 319.271149,168.467682 
	C321.109497,170.657776 322.498383,172.312439 323.340393,174.388504 
M315.685638,194.841446 
	C319.810760,190.788284 323.320068,186.128418 321.639526,180.119232 
	C318.646423,169.416687 314.008453,167.248779 302.620972,169.249435 
	C297.770844,170.101578 294.059357,172.731354 292.336639,178.544327 
	C291.078491,184.665207 292.646210,190.307144 297.351227,194.046158 
	C302.620850,198.233856 308.886505,198.855637 315.685638,194.841446 
z"/>
<path fill="#BC191C" opacity="1.000000" stroke="none" 
	d="
M276.134033,182.160065 
	C276.815918,186.473190 277.497803,190.786316 278.235718,195.501953 
	C275.554749,194.149002 272.817688,192.393524 269.532013,190.286148 
	C271.353851,188.934250 272.991302,187.719177 274.823853,185.829315 
	C274.996246,184.125992 274.973450,183.097443 274.990173,181.804230 
	C275.163635,181.297913 275.297546,181.056259 275.431458,180.814590 
	C275.665649,181.263077 275.899872,181.711578 276.134033,182.160065 
z"/>
<path fill="#B02B16" opacity="1.000000" stroke="none" 
	d="
M337.099579,188.083649 
	C336.874115,185.820099 336.860748,183.836929 337.195312,181.406967 
	C338.017761,180.647018 338.492249,180.333893 338.982361,180.009766 
	C338.997955,179.998779 339.026672,179.973648 339.270569,179.979797 
	C339.514435,179.985962 340.002014,180.004501 340.102875,180.217209 
	C340.386292,180.693787 340.621490,180.896576 340.909393,181.038269 
	C340.271088,181.488541 339.632812,181.938812 339.580841,181.975464 
	C340.254211,183.975143 340.862305,185.780975 341.470398,187.586792 
	C340.084167,187.845886 338.697937,188.104965 337.099579,188.083649 
z"/>
<path fill="#E7D544" opacity="1.000000" stroke="none" 
	d="
M274.950653,182.068893 
	C274.973450,183.097443 274.996246,184.125992 274.990723,185.539108 
	C273.009094,185.975357 271.055756,186.027023 268.689331,186.045990 
	C268.237946,184.961761 268.199646,183.910248 268.381042,182.451401 
	C268.600708,182.044083 268.942810,182.045380 268.995117,182.411148 
	C269.328461,183.510330 269.609497,184.243729 269.890503,184.977142 
	C270.132599,184.927704 270.374664,184.878281 270.616760,184.828842 
	C270.720276,183.894104 270.823822,182.959351 271.196747,181.998657 
	C271.645630,181.990891 271.825134,182.009079 272.053772,182.397064 
	C272.376709,183.507065 272.650513,184.247238 272.924316,184.987411 
	C273.167145,184.939133 273.409973,184.890854 273.652802,184.842575 
	C273.763947,183.896835 273.875092,182.951096 274.230713,181.969910 
	C274.475220,181.934448 274.950653,182.068893 274.950653,182.068893 
z"/>
<path fill="#BB3223" opacity="1.000000" stroke="none" 
	d="
M341.182983,180.923676 
	C340.621490,180.896576 340.386292,180.693787 340.377441,179.975037 
	C340.675232,178.310120 340.799347,177.100082 340.926025,175.666199 
	C340.835449,175.160202 340.750061,174.875763 340.672394,174.589020 
	C340.959625,173.754562 341.246887,172.920105 341.838074,172.068649 
	C342.110687,173.078812 342.079376,174.105988 342.052307,175.519791 
	C342.673218,177.168427 343.289825,178.430435 344.024750,179.934540 
	C343.146667,180.233566 342.301636,180.521332 341.182983,180.923676 
z"/>
<path fill="#BB3223" opacity="1.000000" stroke="none" 
	d="
M293.913208,221.810745 
	C291.800140,221.304291 289.690582,220.467316 287.466980,219.324036 
	C289.540863,219.838531 291.728790,220.659378 293.913208,221.810745 
z"/>
<path fill="#C4342C" opacity="1.000000" stroke="none" 
	d="
M306.794983,217.787354 
	C306.199310,217.427032 305.899933,217.003891 305.600586,216.580750 
	C306.043091,216.466690 306.485626,216.352615 306.928131,216.238556 
	C306.982513,216.733902 307.036896,217.229218 306.794983,217.787354 
z"/>
<path fill="#C4342C" opacity="1.000000" stroke="none" 
	d="
M337.765198,202.852142 
	C337.537140,203.482742 337.074280,203.965469 336.611389,204.448196 
	C336.448975,203.695221 336.286560,202.942230 336.124176,202.189255 
	C336.592896,202.360931 337.061646,202.532623 337.765198,202.852142 
z"/>
<path fill="#C4342C" opacity="1.000000" stroke="none" 
	d="
M326.402405,214.954788 
	C326.793457,214.716385 327.182312,214.718216 327.569031,214.748184 
	C327.579865,214.749023 327.567444,215.050446 327.565918,215.211716 
	C327.177246,215.207458 326.788605,215.203201 326.402405,214.954788 
z"/>
<path fill="#BB3223" opacity="1.000000" stroke="none" 
	d="
M296.777771,222.751190 
	C296.097595,222.888901 295.208649,222.751633 294.097992,222.353485 
	C294.773865,222.220490 295.671448,222.348358 296.777771,222.751190 
z"/>
<path fill="#FDFDF6" opacity="1.000000" stroke="none" 
	d="
M271.216705,205.890610 
	C271.021606,205.432755 271.044281,204.864334 271.092346,203.868134 
	C271.374176,203.753510 271.630676,204.066650 271.943787,204.688202 
	C271.888245,205.313004 271.699615,205.574142 271.216705,205.890610 
z"/>
<path fill="#BC191C" opacity="1.000000" stroke="none" 
	d="
M278.142273,196.133575 
	C278.492035,196.303101 278.821350,196.812332 279.212433,197.631989 
	C278.890076,197.452698 278.505981,196.962997 278.142273,196.133575 
z"/>
<path fill="#C4342C" opacity="1.000000" stroke="none" 
	d="
M338.135193,202.946396 
	C338.090118,202.964264 338.180267,202.928543 338.135193,202.946396 
z"/>
<path fill="#BC191C" opacity="1.000000" stroke="none" 
	d="
M275.454254,196.525604 
	C275.427856,196.477631 275.480652,196.573578 275.454254,196.525604 
z"/>
<path fill="#BB3223" opacity="1.000000" stroke="none" 
	d="
M298.112152,155.089340 
	C292.944824,158.708435 287.547485,162.051666 282.718750,166.076935 
	C280.670807,167.784088 279.816010,170.922516 277.826294,173.714508 
	C275.831879,174.686707 274.430084,175.354828 273.013550,176.024292 
	C272.998810,176.025635 272.968872,176.018951 272.653198,175.872040 
	C271.179962,174.533905 270.022430,173.342651 268.864899,172.151398 
	C270.916870,164.278595 275.773895,158.305344 282.248230,152.722504 
	C283.187988,151.916016 283.645264,151.487579 284.102539,151.059143 
	C286.457306,149.955887 288.812042,148.852646 291.559265,147.989273 
	C291.980621,148.473343 292.009552,148.717560 292.021667,148.979218 
	C292.004913,148.996658 291.975677,149.035156 291.671814,149.074402 
	C291.832825,153.118073 294.597168,154.527298 298.112152,155.089340 
M276.469849,166.796814 
	C276.831696,166.392273 277.193542,165.987732 277.555389,165.583191 
	C277.274963,165.446823 276.808014,165.137131 276.746063,165.203796 
	C276.464325,165.506958 276.296570,165.916077 276.469849,166.796814 
z"/>
<path fill="#C4342C" opacity="1.000000" stroke="none" 
	d="
M292.038452,148.961792 
	C292.009552,148.717560 291.980621,148.473343 291.902649,147.863312 
	C293.659058,147.317612 295.464539,147.137741 297.597687,146.907623 
	C297.377930,147.619186 296.830444,148.380981 295.615448,150.071671 
	C297.700439,149.460327 298.765381,149.148056 300.358459,148.680954 
	C300.873199,150.190628 301.432465,151.831055 302.020874,153.848434 
	C300.970062,154.524200 299.890198,154.823029 298.461243,155.105591 
	C294.597168,154.527298 291.832825,153.118073 291.802612,149.272186 
	C292.591431,149.414825 292.945587,149.398911 293.299744,149.382996 
	C292.879303,149.242599 292.458893,149.102203 292.038452,148.961792 
z"/>
<path fill="#E0964B" opacity="1.000000" stroke="none" 
	d="
M268.680420,172.313599 
	C270.022430,173.342651 271.179962,174.533905 272.696808,176.223450 
	C272.410217,177.345856 271.764282,177.969955 271.260010,178.392548 
	C270.929077,177.448608 270.456512,176.706192 269.959900,175.686752 
	C269.340912,174.894562 268.746002,174.379379 268.151062,173.864182 
	C268.266022,173.401382 268.380981,172.938599 268.680420,172.313599 
z"/>
<path fill="#BB3223" opacity="1.000000" stroke="none" 
	d="
M269.983917,175.963760 
	C270.456512,176.706192 270.929077,177.448608 271.219666,178.778320 
	C271.019623,179.877716 271.001556,180.389816 270.701172,180.949173 
	C269.996399,181.321396 269.573944,181.646378 269.103668,182.002197 
	C269.055878,182.033051 268.942810,182.045380 268.942810,182.045380 
	C268.942810,182.045380 268.600708,182.044083 268.430756,182.057053 
	C268.165680,181.634674 268.070587,181.199326 267.959778,180.407318 
	C267.944061,180.050659 267.997131,180.004425 268.263062,179.805450 
	C269.010376,178.400620 269.491760,177.194763 269.983948,175.988815 
	C269.994781,175.988724 269.983917,175.963760 269.983917,175.963760 
z"/>
<path fill="#FDFDF6" opacity="1.000000" stroke="none" 
	d="
M277.017029,150.071320 
	C277.608826,150.581329 277.876862,151.092468 278.144867,151.603622 
	C277.399933,151.604965 276.655029,151.606308 275.910095,151.607666 
	C276.171143,151.095947 276.432190,150.584213 277.017029,150.071320 
z"/>
<path fill="#B02B16" opacity="1.000000" stroke="none" 
	d="
M268.069550,174.211899 
	C268.746002,174.379379 269.340912,174.894562 269.959900,175.686752 
	C269.983917,175.963760 269.994781,175.988724 269.704224,175.957596 
	C268.940674,176.111008 268.467682,176.295532 268.010864,176.353668 
	C268.027039,176.227264 267.984070,175.976059 267.984070,175.976059 
	C267.985382,175.503906 267.986725,175.031769 268.069550,174.211899 
z"/>
<path fill="#BB3223" opacity="1.000000" stroke="none" 
	d="
M267.770355,176.239166 
	C267.984070,175.976059 268.027039,176.227264 268.009094,176.796722 
	C267.993134,178.245590 267.995117,179.125015 267.997131,180.004425 
	C267.997131,180.004425 267.944061,180.050659 267.917603,180.073883 
	C267.779633,178.898834 267.668121,177.700562 267.770355,176.239166 
z"/>
<path fill="#FDFDF6" opacity="1.000000" stroke="none" 
	d="
M270.386658,158.468262 
	C269.940979,158.353378 269.670441,158.072342 269.399933,157.791290 
	C269.517914,157.681534 269.730469,157.468231 269.740112,157.477036 
	C270.026367,157.738525 270.292480,158.022049 270.386658,158.468262 
z"/>
<path fill="#FDFDF6" opacity="1.000000" stroke="none" 
	d="
M283.751740,151.088562 
	C283.645264,151.487579 283.187988,151.916016 282.428711,152.467270 
	C282.551483,152.099396 282.976227,151.608688 283.751740,151.088562 
z"/>
<path fill="#FDFDF6" opacity="1.000000" stroke="none" 
	d="
M264.987640,182.245880 
	C265.095642,182.410263 265.042511,182.576004 264.989380,182.741730 
	C264.935089,182.576889 264.880829,182.412064 264.987640,182.245880 
z"/>
<path fill="#BB3223" opacity="1.000000" stroke="none" 
	d="
M329.983368,162.982971 
	C331.157898,161.616379 332.332458,160.249802 333.913696,158.410049 
	C333.523590,160.885437 338.037964,162.776108 333.320160,164.873367 
	C333.008148,165.005554 332.975800,164.984589 332.959808,164.684067 
	C331.970032,163.928009 330.996216,163.472458 330.012634,163.009308 
	C330.002838,163.001709 329.983368,162.982971 329.983368,162.982971 
z"/>
<path fill="#BB3223" opacity="1.000000" stroke="none" 
	d="
M335.931335,175.117310 
	C335.070709,173.617752 334.210114,172.118179 333.286987,170.290161 
	C335.371979,168.414444 336.807892,169.094330 337.518738,171.758331 
	C336.852417,173.117233 336.391876,174.117264 335.931335,175.117310 
z"/>
<path fill="#E7D544" opacity="1.000000" stroke="none" 
	d="
M335.961487,175.092880 
	C336.391876,174.117264 336.852417,173.117233 337.642151,172.064362 
	C338.041626,173.359497 337.214294,175.521927 340.375702,174.461700 
	C340.750061,174.875763 340.835449,175.160202 340.658569,175.753082 
	C339.922363,176.379364 339.456116,176.694916 338.684204,176.905548 
	C337.561279,176.209061 336.744110,175.617508 335.926910,175.025955 
	C335.926910,175.025955 335.991669,175.068451 335.961487,175.092880 
z"/>
<path fill="#C6362D" opacity="1.000000" stroke="none" 
	d="
M314.044067,147.998993 
	C315.791870,148.781342 317.511047,149.591675 319.115723,150.700439 
	C319.001190,150.998856 318.977448,151.022446 318.977448,151.022446 
	C318.977448,151.022446 318.481323,151.006363 318.036011,150.745117 
	C316.396667,149.990738 315.202606,149.497574 314.008545,149.004410 
	C314.008545,149.004410 313.992706,149.011169 313.985718,148.782425 
	C313.978760,148.553680 313.965820,148.089828 313.965820,148.089828 
	C313.965820,148.089828 314.015442,148.026993 314.044067,147.998993 
z"/>
<path fill="#C44736" opacity="1.000000" stroke="none" 
	d="
M314.020874,149.330078 
	C315.202606,149.497574 316.396667,149.990738 317.788025,150.735519 
	C316.870117,151.069717 315.754944,151.152283 314.373016,151.095413 
	C314.081879,150.522568 314.057526,150.089157 314.020874,149.330078 
z"/>
<path fill="#BB3223" opacity="1.000000" stroke="none" 
	d="
M333.024872,165.015991 
	C333.595978,165.677338 334.150360,166.328247 334.990417,167.314560 
	C333.811646,167.238388 333.092346,167.191910 332.080780,167.193817 
	C331.788544,167.242218 331.830353,167.230560 331.889832,166.905731 
	C332.291504,166.048798 332.633667,165.516693 332.975800,164.984589 
	C332.975800,164.984589 333.008148,165.005554 333.024872,165.015991 
z"/>
<path fill="#BB3223" opacity="1.000000" stroke="none" 
	d="
M329.973511,165.039230 
	C329.435272,164.516571 328.897003,163.993912 328.211365,163.230972 
	C328.490631,162.992050 328.917297,162.993408 329.663666,162.988861 
	C329.983368,162.982971 330.002838,163.001709 330.003357,163.346191 
	C329.993744,164.140198 329.983643,164.589706 329.973511,165.039230 
z"/>
<path fill="#C6362D" opacity="1.000000" stroke="none" 
	d="
M321.496735,154.467743 
	C321.910797,154.393860 322.166412,154.476181 322.421997,154.558487 
	C322.136536,154.838043 321.851105,155.117599 321.565643,155.397156 
	C321.489838,155.139404 321.414062,154.881668 321.496735,154.467743 
z"/>
<path fill="#C6362D" opacity="1.000000" stroke="none" 
	d="
M319.013123,150.987000 
	C319.450531,151.150940 319.875946,151.326736 320.301392,151.502502 
	C320.034912,151.657883 319.768433,151.813248 319.250977,151.984314 
	C319.000000,152.000000 318.999359,151.999390 318.999359,151.999390 
	C318.999359,151.999390 318.994720,151.510513 318.986084,151.266479 
	C318.977448,151.022446 319.001190,150.998856 319.013123,150.987000 
z"/>
<path fill="#C6362D" opacity="1.000000" stroke="none" 
	d="
M319.000610,152.000305 
	C318.878906,152.430679 318.756592,152.860764 318.634308,153.290848 
	C318.619598,152.942642 318.604858,152.594421 318.794739,152.122803 
	C318.999359,151.999390 319.000000,152.000000 319.000610,152.000305 
z"/>
<path fill="#BB3223" opacity="1.000000" stroke="none" 
	d="
M332.881622,168.862991 
	C332.635223,168.976639 332.382111,168.783783 332.166931,168.263611 
	C332.433746,168.152405 332.657074,168.359146 332.881622,168.862991 
z"/>
<path fill="#BE3223" opacity="1.000000" stroke="none" 
	d="
M313.761292,148.178955 
	C313.965820,148.089828 313.978760,148.553680 313.977722,148.785889 
	C313.976715,149.018112 313.494934,149.004868 313.255219,148.983002 
	C313.115723,148.667450 313.296143,148.436432 313.761292,148.178955 
z"/>
<path fill="#3E4D36" opacity="1.000000" stroke="none" 
	d="
M299.200928,206.959686 
	C296.534454,205.474106 293.842102,204.032867 291.207062,202.493484 
	C286.077515,199.496826 283.975311,194.362656 282.768768,189.065872 
	C281.474426,183.383484 280.887726,177.571991 283.862488,171.931091 
	C285.924377,168.021210 294.740723,161.950165 298.974030,162.423935 
	C300.432129,162.587112 301.810730,163.460480 303.225647,164.009415 
	C302.231720,165.108276 301.440002,166.587784 300.209595,167.241379 
	C294.258759,170.402451 289.350616,174.616821 289.269257,181.719650 
	C289.222260,185.824615 291.070618,189.951279 292.053955,194.868500 
	C293.253967,196.354660 294.465912,197.040482 295.677856,197.726318 
	C295.658356,197.930649 295.638824,198.134964 295.367920,198.581818 
	C295.216125,198.790115 295.315796,198.755875 295.415436,198.721634 
	C295.319824,198.605591 295.224213,198.489548 295.128601,198.373505 
	C295.257599,198.164276 295.386627,197.955032 295.903412,198.152328 
	C296.934875,199.567841 297.525024,200.616302 298.234100,201.577026 
	C299.479034,203.263870 299.974426,205.794220 299.200928,206.959686 
z"/>
<path fill="#3A579F" opacity="1.000000" stroke="none" 
	d="
M292.863953,177.935074 
	C294.059357,172.731354 297.770844,170.101578 302.620972,169.249435 
	C314.008453,167.248779 318.646423,169.416687 321.639526,180.119232 
	C323.320068,186.128418 319.810760,190.788284 315.222412,194.662201 
	C314.178955,193.702805 313.598724,192.922653 313.345764,191.959061 
	C313.745514,191.144196 314.109314,190.330170 313.845642,189.909454 
	C311.029510,185.416260 312.521271,182.301895 316.811157,179.947403 
	C317.144958,179.764206 317.277466,179.214355 318.054077,177.910828 
	C310.685944,180.232422 308.077362,176.252335 307.083221,169.542236 
	C303.632721,178.233826 303.632721,178.233826 294.923279,178.180206 
	C293.963898,178.053558 293.413940,177.994324 292.863953,177.935074 
z"/>
<path fill="#334629" opacity="1.000000" stroke="none" 
	d="
M299.166565,207.310211 
	C299.974426,205.794220 299.479034,203.263870 298.234100,201.577026 
	C297.525024,200.616302 296.934875,199.567841 296.272095,198.158142 
	C299.207642,199.772156 302.171844,201.773102 305.114014,203.805908 
	C307.549255,205.488449 308.983246,205.257523 311.125427,202.643326 
	C313.761993,199.425797 317.708496,197.304535 320.947296,194.543381 
	C321.878967,193.749084 323.033661,192.248413 322.856354,191.301956 
	C322.315155,188.412537 324.754120,188.668427 326.477631,187.344360 
	C327.675842,187.015930 328.422180,187.037064 329.168518,187.058182 
	C329.632843,188.659378 330.097137,190.260559 330.694733,192.321396 
	C326.344482,194.299759 329.516693,204.573517 320.018280,203.116592 
	C320.905426,203.787872 321.792572,204.459152 323.814423,205.989029 
	C321.974274,205.266953 321.324249,204.740082 320.838501,204.862930 
	C315.462616,206.222260 310.156128,207.902039 304.729187,208.986328 
	C303.020050,209.327820 301.006470,208.145599 299.166565,207.310211 
z"/>
<path fill="#3C59AA" opacity="1.000000" stroke="none" 
	d="
M313.018494,192.142517 
	C313.598724,192.922653 314.178955,193.702805 314.878906,194.750000 
	C308.886505,198.855637 302.620850,198.233856 297.351227,194.046158 
	C292.646210,190.307144 291.078491,184.665207 292.600281,178.239700 
	C293.413940,177.994324 293.963898,178.053558 294.900879,178.316284 
	C295.287842,178.519760 295.118469,178.739960 295.081177,179.101685 
	C295.202576,180.517288 295.361206,181.571182 295.519836,182.625092 
	C295.792542,182.566269 296.065247,182.507446 296.337952,182.448639 
	C296.276245,181.865906 296.214569,181.283157 296.511383,180.720703 
	C303.793793,182.438721 300.529236,186.997513 299.162811,190.989273 
	C309.580261,188.706512 309.580261,188.706512 313.018494,192.142517 
z"/>
<path fill="#3E4D36" opacity="1.000000" stroke="none" 
	d="
M329.520172,187.000793 
	C328.422180,187.037064 327.675842,187.015930 326.556030,187.000900 
	C325.235168,182.800827 324.287781,178.594666 323.942596,174.205688 
	C325.468506,173.852859 326.392181,173.682831 327.315887,173.512802 
	C328.520630,173.910736 329.725372,174.308685 330.789124,174.660065 
	C331.717529,177.660004 328.020721,181.041260 332.005188,183.395447 
	C331.294067,184.578094 330.582947,185.760742 329.520172,187.000793 
z"/>
<path fill="#334629" opacity="1.000000" stroke="none" 
	d="
M327.486267,173.122162 
	C326.392181,173.682831 325.468506,173.852859 324.216034,173.994995 
	C322.498383,172.312439 321.109497,170.657776 319.271149,168.467682 
	C322.257568,167.834900 324.419708,167.376755 327.118958,166.804825 
	C327.309479,168.904892 327.483032,170.818192 327.486267,173.122162 
z"/>
<path fill="#BC191C" opacity="1.000000" stroke="none" 
	d="
M270.983459,180.901932 
	C271.001556,180.389816 271.019623,179.877716 271.078033,178.979828 
	C271.764282,177.969955 272.410217,177.345856 273.012512,176.370361 
	C272.968872,176.018951 272.998810,176.025635 273.424866,176.042587 
	C275.164764,175.711349 276.478668,175.363144 277.792542,175.014954 
	C277.552124,175.752457 277.311676,176.489944 276.752258,177.742401 
	C275.290161,179.170517 274.147095,180.083679 273.000793,180.999329 
	C272.997528,181.001801 272.989441,181.007721 272.654938,180.997711 
	C271.874786,180.959106 271.429138,180.930527 270.983459,180.901932 
z"/>
<path fill="#C44736" opacity="1.000000" stroke="none" 
	d="
M273.004059,180.996857 
	C274.147095,180.083679 275.290161,179.170517 276.662720,178.120346 
	C276.759674,179.167603 276.627136,180.351868 276.314331,181.848099 
	C275.899872,181.711578 275.665649,181.263077 275.431458,180.814590 
	C275.297546,181.056259 275.163635,181.297913 274.990173,181.804230 
	C274.950653,182.068893 274.475220,181.934448 274.126404,181.749115 
	C273.590088,181.278885 273.332214,181.089905 273.004059,180.996857 
z"/>
<path fill="#B02B16" opacity="1.000000" stroke="none" 
	d="
M335.837006,175.397110 
	C336.744110,175.617508 337.561279,176.209061 338.694641,177.276062 
	C339.016083,178.492233 339.021393,179.232941 339.026672,179.973648 
	C339.026672,179.973648 338.997955,179.998779 338.682739,179.972015 
	C337.629639,179.303741 336.891724,178.662231 336.153809,178.020706 
	C336.018219,177.269897 335.882660,176.519073 335.837006,175.397110 
z"/>
<path fill="#BE3223" opacity="1.000000" stroke="none" 
	d="
M329.986267,165.024399 
	C329.983643,164.589706 329.993744,164.140198 330.013123,163.353790 
	C330.996216,163.472458 331.970032,163.928009 332.959808,164.684067 
	C332.633667,165.516693 332.291504,166.048798 331.873596,166.902374 
	C331.450348,167.141373 331.211578,166.933792 330.923615,166.122849 
	C330.498352,165.436310 330.230988,165.228073 329.963654,165.019821 
	C329.963654,165.019821 329.998993,165.009567 329.986267,165.024399 
z"/>
<path fill="#C44736" opacity="1.000000" stroke="none" 
	d="
M277.905273,174.870743 
	C276.478668,175.363144 275.164764,175.711349 273.439606,176.041260 
	C274.430084,175.354828 275.831879,174.686707 277.631958,174.011505 
	C278.110168,174.246567 278.106079,174.487274 277.905273,174.870743 
z"/>
<path fill="#334629" opacity="1.000000" stroke="none" 
	d="
M295.566345,197.405121 
	C294.465912,197.040482 293.253967,196.354660 292.047333,195.253815 
	C293.186707,195.587158 294.320770,196.335541 295.566345,197.405121 
z"/>
<path fill="#C6362D" opacity="1.000000" stroke="none" 
	d="
M336.107727,178.337555 
	C336.891724,178.662231 337.629639,179.303741 338.667145,179.983017 
	C338.492249,180.333893 338.017761,180.647018 337.242584,180.982147 
	C336.648468,180.220886 336.355042,179.437637 336.107727,178.337555 
z"/>
<path fill="#334629" opacity="1.000000" stroke="none" 
	d="
M295.097534,198.377075 
	C295.224213,198.489548 295.319824,198.605591 295.415436,198.721634 
	C295.315796,198.755875 295.216125,198.790115 295.060486,198.598465 
	C295.004456,198.372574 295.066467,198.380630 295.097534,198.377075 
z"/>
<path fill="#BB3223" opacity="1.000000" stroke="none" 
	d="
M330.023254,165.281601 
	C330.230988,165.228073 330.498352,165.436310 330.853760,165.887558 
	C330.655487,165.934830 330.369202,165.739105 330.023254,165.281601 
z"/>
<path fill="#C6362D" opacity="1.000000" stroke="none" 
	d="
M339.270569,179.979797 
	C339.021393,179.232941 339.016083,178.492233 339.000366,177.381012 
	C339.456116,176.694916 339.922363,176.379364 340.656036,175.976929 
	C340.799347,177.100082 340.675232,178.310120 340.276550,179.762329 
	C340.002014,180.004501 339.514435,179.985962 339.270569,179.979797 
z"/>
<path fill="#BC191C" opacity="1.000000" stroke="none" 
	d="
M273.000793,180.999329 
	C273.332214,181.089905 273.590088,181.278885 273.881927,181.784561 
	C273.875092,182.951096 273.763947,183.896835 273.652802,184.842575 
	C273.409973,184.890854 273.167145,184.939133 272.924316,184.987411 
	C272.650513,184.247238 272.376709,183.507065 272.269714,182.282440 
	C272.708344,181.595840 272.892670,181.332397 272.989441,181.007721 
	C272.989441,181.007721 272.997528,181.001801 273.000793,180.999329 
z"/>
<path fill="#BC191C" opacity="1.000000" stroke="none" 
	d="
M270.927368,182.024612 
	C270.823822,182.959351 270.720276,183.894104 270.616760,184.828842 
	C270.374664,184.878281 270.132599,184.927704 269.890503,184.977142 
	C269.609497,184.243729 269.328461,183.510330 268.995117,182.411148 
	C268.942810,182.045380 269.055878,182.033051 269.398376,182.015198 
	C270.136353,182.006439 270.531860,182.015518 270.927368,182.024612 
z"/>
<path fill="#C22127" opacity="1.000000" stroke="none" 
	d="
M271.196747,181.998657 
	C270.531860,182.015518 270.136353,182.006439 269.446167,181.984344 
	C269.573944,181.646378 269.996399,181.321396 270.701172,180.949173 
	C271.429138,180.930527 271.874786,180.959106 272.654938,180.997711 
	C272.892670,181.332397 272.708344,181.595840 272.220581,181.912628 
	C271.825134,182.009079 271.645630,181.990891 271.196747,181.998657 
z"/>
<path fill="#E7D544" opacity="1.000000" stroke="none" 
	d="
M276.278839,166.541946 
	C276.296570,165.916077 276.464325,165.506958 276.746063,165.203796 
	C276.808014,165.137131 277.274963,165.446823 277.555389,165.583191 
	C277.193542,165.987732 276.831696,166.392273 276.278839,166.541946 
z"/>
<path fill="#BB3223" opacity="1.000000" stroke="none" 
	d="
M292.021667,148.979233 
	C292.458893,149.102203 292.879303,149.242599 293.299744,149.382996 
	C292.945587,149.398911 292.591431,149.414825 292.106476,149.232941 
	C291.975677,149.035156 292.004913,148.996658 292.021667,148.979233 
z"/>
<path fill="#E0964B" opacity="1.000000" stroke="none" 
	d="
M268.263062,179.805450 
	C267.995117,179.125015 267.993134,178.245590 267.992889,176.923126 
	C268.467682,176.295532 268.940674,176.111008 269.693420,175.957687 
	C269.491760,177.194763 269.010376,178.400620 268.263062,179.805450 
z"/>
<path fill="#E7D544" opacity="1.000000" stroke="none" 
	d="
M295.118469,178.739960 
	C295.118469,178.739960 295.287842,178.519760 295.310272,178.383698 
	C303.632721,178.233826 303.632721,178.233826 307.083221,169.542236 
	C308.077362,176.252335 310.685944,180.232422 318.054077,177.910828 
	C317.277466,179.214355 317.144958,179.764206 316.811157,179.947403 
	C312.521271,182.301895 311.029510,185.416260 313.845642,189.909454 
	C314.109314,190.330170 313.745514,191.144196 313.345764,191.959061 
	C309.580261,188.706512 309.580261,188.706512 299.162811,190.989273 
	C300.529236,186.997513 303.793793,182.438721 296.487732,180.431549 
	C295.776520,179.661392 295.447510,179.200668 295.118469,178.739960 
z"/>
<path fill="#3A579F" opacity="1.000000" stroke="none" 
	d="
M295.081177,179.101685 
	C295.447510,179.200668 295.776520,179.661392 296.129211,180.411270 
	C296.214569,181.283157 296.276245,181.865906 296.337952,182.448639 
	C296.065247,182.507446 295.792542,182.566269 295.519836,182.625092 
	C295.361206,181.571182 295.202576,180.517288 295.081177,179.101685 
z"/>
</svg>