<svg version="1.1" id="Layer_1" xmlns="http://www.w3.org/2000/svg" xmlns:xlink="http://www.w3.org/1999/xlink" x="0px" y="0px"
	 width="100%" viewBox="0 0 200 133" enable-background="new 0 0 200 133" xml:space="preserve">
<path fill="#D91124" opacity="1.000000" stroke="none" 
	d="
M68.000000,134.000000 
	C45.703308,134.000000 23.406620,134.000000 1.054965,134.000000 
	C1.054965,89.776108 1.054965,45.552128 1.054965,1.000000 
	C23.019808,1.000000 45.041245,1.000000 67.426430,1.458417 
	C67.776764,41.632149 67.755577,81.347458 67.761116,121.062775 
	C67.761711,125.375191 67.916656,129.687592 68.000000,134.000000 
z"/>
<path fill="#D91124" opacity="1.000000" stroke="none" 
	d="
M134.000000,1.000000 
	C156.296692,1.000000 178.593384,1.000000 200.945038,1.000000 
	C200.945038,45.223896 200.945038,89.447876 200.945038,134.000000 
	C178.980194,134.000000 156.958755,134.000000 134.573578,133.541565 
	C134.223236,93.367836 134.244415,53.652527 134.238892,13.937222 
	C134.238297,9.624804 134.083359,5.312407 134.000000,1.000000 
z"/>
<path fill="#FEFEFE" opacity="1.000000" stroke="none" 
	d="
M133.531342,1.000000 
	C134.083359,5.312407 134.238297,9.624804 134.238892,13.937222 
	C134.244415,53.652527 134.223236,93.367836 134.104919,133.541565 
	C112.312439,134.000000 90.624878,134.000000 68.468658,134.000000 
	C67.916656,129.687592 67.761711,125.375191 67.761116,121.062775 
	C67.755577,81.347458 67.776764,41.632149 67.895088,1.458417 
	C89.687561,1.000000 111.375122,1.000000 133.531342,1.000000 
M88.316528,85.031448 
	C88.172920,84.815628 87.986031,84.648079 87.757652,84.315269 
	C87.757652,84.315269 87.557274,84.241455 87.236794,83.606239 
	C86.154739,80.407013 85.072685,77.207787 84.081505,73.260406 
	C85.962814,68.989090 86.433075,64.882759 82.614548,61.415119 
	C86.248192,53.326153 86.174789,52.733089 81.697014,49.663151 
	C74.918579,54.935375 73.774040,62.466129 73.928810,70.535950 
	C75.021446,71.436661 76.581657,72.722816 78.739609,74.501732 
	C77.047523,74.912178 76.225456,75.111588 75.399551,75.311928 
	C76.750191,82.458450 82.395515,85.684875 88.196808,89.685371 
	C90.579735,92.633804 93.507561,93.333923 97.564980,91.995644 
	C97.975586,92.019089 98.386200,92.042542 99.398819,92.296326 
	C100.445885,92.189323 101.492943,92.082321 103.240486,92.025520 
	C105.489059,92.619812 107.737633,93.214104 110.620117,93.974052 
	C111.312172,93.632126 112.004227,93.290192 113.391563,92.702202 
	C113.901154,92.173668 114.410751,91.645142 114.920349,91.116615 
	C114.162872,90.745590 113.405388,90.374565 112.819504,89.586166 
	C112.819504,89.586166 112.909882,89.144035 113.764496,89.099846 
	C121.517082,88.905853 122.424385,88.068413 121.936752,81.352882 
	C123.215340,79.910316 124.493927,78.467751 126.418686,76.646744 
	C129.485641,72.942101 128.502808,70.421661 124.372818,68.223808 
	C128.117828,61.127731 127.446648,58.731113 121.445602,56.187946 
	C121.605148,54.254303 122.422318,52.028748 121.731552,50.472553 
	C121.094032,49.036350 118.925583,47.651909 117.275986,47.436840 
	C114.666069,47.096561 112.526009,49.318199 113.125275,51.596565 
	C113.612442,53.448811 116.200752,54.748417 117.885376,57.047195 
	C118.449471,60.137035 114.175018,63.327209 117.370049,66.113602 
	C116.649445,67.419739 115.928841,68.725876 115.145866,70.544243 
	C115.225060,70.696922 115.304260,70.849609 115.303276,71.775101 
	C115.160591,72.267616 115.017906,72.760124 114.453728,73.229553 
	C114.453728,73.229553 114.075668,73.041756 113.995476,72.326126 
	C112.644638,70.845657 111.293793,69.365189 110.183556,67.199188 
	C110.873337,65.369926 111.562515,63.540447 112.253036,61.711468 
	C113.505959,58.392914 113.136215,55.828445 109.083733,54.190701 
	C109.469582,52.950680 109.807785,51.693382 110.249969,50.473789 
	C111.742958,46.355980 110.483803,44.041847 105.975601,43.085003 
	C105.843239,40.405220 104.781799,39.357380 102.214226,40.937355 
	C101.680817,41.265591 100.750214,41.942127 100.650467,41.837936 
	C96.866341,37.885445 95.319756,42.461403 92.754242,44.533073 
	C92.361618,46.315060 91.951500,48.093426 91.581482,49.880096 
	C91.233635,51.559666 90.928116,53.248001 90.161499,55.365273 
	C89.645302,57.186539 89.129112,59.007805 88.911392,61.717491 
	C88.937256,64.490189 88.963112,67.262886 88.501053,70.487328 
	C88.332161,71.351753 88.163269,72.216171 87.625580,73.741455 
	C86.628510,81.064217 88.230774,83.820625 93.912865,84.403702 
	C94.642380,84.866997 95.371902,85.330292 95.803917,86.569092 
	C95.523689,87.283379 95.243462,87.997658 94.219292,88.597740 
	C93.260139,88.311844 92.300995,88.025948 91.273720,87.805061 
	C91.273720,87.805061 91.288315,87.712029 90.995308,87.254829 
	C90.530464,86.974777 90.065628,86.694733 89.560730,86.327957 
	C89.560730,86.327957 89.465752,86.317726 89.248657,85.966522 
	C89.071907,85.746124 88.852043,85.584320 88.563126,85.396889 
	C88.563126,85.396889 88.477859,85.374680 88.316528,85.031448 
z"/>
<path fill="#2FB058" opacity="1.000000" stroke="none" 
	d="
M87.868515,89.067642 
	C82.395515,85.684875 76.750191,82.458450 75.399551,75.311928 
	C76.225456,75.111588 77.047523,74.912178 78.739609,74.501732 
	C76.581657,72.722816 75.021446,71.436661 73.928810,70.535950 
	C73.774040,62.466129 74.918579,54.935375 81.697014,49.663151 
	C86.174789,52.733089 86.248192,53.326153 82.614548,61.415119 
	C86.433075,64.882759 85.962814,68.989090 83.850357,73.885376 
	C84.374184,77.979744 82.302765,82.592964 87.557274,84.241455 
	C87.557274,84.241455 87.757652,84.315269 87.764008,84.639603 
	C87.911339,85.263924 88.147171,85.400841 88.477859,85.374680 
	C88.477859,85.374680 88.563126,85.396889 88.619400,85.666702 
	C88.856705,86.233986 89.120056,86.361053 89.465752,86.317726 
	C89.465752,86.317726 89.560730,86.327957 89.643661,86.668121 
	C90.247169,87.242874 90.767746,87.477448 91.288315,87.712029 
	C91.288315,87.712029 91.273720,87.805061 91.017593,88.020309 
	C89.797142,88.512924 88.832832,88.790283 87.868515,89.067642 
z"/>
<path fill="#E1B40F" opacity="1.000000" stroke="none" 
	d="
M96.101418,85.793587 
	C95.371902,85.330292 94.642380,84.866997 93.665504,83.836243 
	C88.149132,78.287216 88.945213,75.412796 96.967484,71.711426 
	C98.951210,71.725197 100.573418,71.786049 102.528107,71.941391 
	C105.449249,72.973663 107.353569,78.365402 111.449364,71.298256 
	C111.449364,74.430260 111.935059,76.163734 111.355774,76.664009 
	C109.791679,78.014755 107.774231,78.840515 105.936661,79.874588 
	C106.324501,80.070160 106.712341,80.265739 107.100182,80.461319 
	C106.607361,81.270462 106.297989,82.348351 105.585037,82.835022 
	C103.895218,83.988541 102.013908,84.861549 99.797417,85.855698 
	C98.290359,85.840157 97.195885,85.816872 96.101418,85.793587 
z"/>
<path fill="#F5F9F1" opacity="1.000000" stroke="none" 
	d="
M92.950066,43.812492 
	C95.319756,42.461403 96.866341,37.885445 100.650467,41.837936 
	C100.750214,41.942127 101.680817,41.265591 102.214226,40.937355 
	C104.781799,39.357380 105.843239,40.405220 105.928299,43.854034 
	C108.227631,49.126835 106.528854,51.740372 101.673325,53.048389 
	C100.872551,53.315834 100.359154,53.548069 99.637405,53.774193 
	C99.429054,53.768078 99.012306,53.757256 98.917374,53.458282 
	C97.550034,51.225948 96.254898,49.307022 95.013817,47.353748 
	C94.281662,46.201443 93.635117,44.994732 92.950066,43.812492 
z"/>
<path fill="#DA3328" opacity="1.000000" stroke="none" 
	d="
M100.210007,85.847946 
	C102.013908,84.861549 103.895218,83.988541 105.585037,82.835022 
	C106.297989,82.348351 106.607361,81.270462 107.100182,80.461319 
	C106.712341,80.265739 106.324501,80.070160 105.936661,79.874588 
	C107.774231,78.840515 109.791679,78.014755 111.355774,76.664009 
	C111.935059,76.163734 111.449364,74.430260 111.449364,71.298256 
	C107.353569,78.365402 105.449249,72.973663 102.828079,71.694405 
	C106.690544,71.014595 110.764534,69.480522 114.075668,73.041756 
	C114.075668,73.041756 114.453728,73.229553 114.732880,73.229614 
	C115.012032,73.229675 115.028427,73.093285 115.011246,73.370911 
	C115.309555,73.785942 115.625053,73.923340 115.959076,74.026306 
	C115.977608,73.991882 115.925598,74.053429 115.858704,74.481522 
	C115.904091,76.355896 116.016365,77.802177 115.877594,79.467880 
	C114.354050,81.757179 113.081543,83.827065 111.540771,86.041908 
	C110.304031,87.114769 109.335579,88.042671 108.163895,88.702858 
	C107.580078,87.891266 107.199493,87.347397 106.816223,86.432297 
	C105.064125,86.096985 103.314713,86.132904 101.443451,86.511703 
	C101.498093,87.021004 101.674606,87.187416 101.713364,87.091377 
	C101.086952,87.013008 100.598297,87.197098 100.350754,87.187691 
	C100.464584,86.612114 100.337296,86.230026 100.210007,85.847946 
z"/>
<path fill="#39B055" opacity="1.000000" stroke="none" 
	d="
M118.078239,66.347809 
	C114.175018,63.327209 118.449471,60.137035 117.995667,56.410088 
	C118.531937,55.238155 118.957916,54.703327 119.361343,54.196812 
	C120.131683,55.336685 120.671364,56.135254 121.211044,56.933823 
	C127.446648,58.731113 128.117828,61.127731 124.026535,68.760567 
	C123.438179,69.862312 123.196091,70.427299 122.703064,71.013046 
	C122.285393,71.053314 122.118660,71.072815 121.748886,71.013229 
	C121.025558,70.956642 120.505280,70.979156 119.750076,70.778305 
	C119.036186,69.152565 118.557213,67.750183 118.078239,66.347809 
z"/>
<path fill="#0B81A2" opacity="1.000000" stroke="none" 
	d="
M88.612923,60.829071 
	C89.129112,59.007805 89.645302,57.186539 90.849960,55.139198 
	C93.354736,54.927666 95.171051,54.942207 96.995407,55.355202 
	C99.890312,60.018753 100.424011,64.780357 99.516708,69.851273 
	C96.066315,69.959969 93.056450,69.970444 89.977936,69.616699 
	C90.013054,68.523972 90.116837,67.795456 90.484695,67.081146 
	C91.101166,67.105888 91.453545,67.116432 91.759476,67.339554 
	C91.835457,67.906425 91.957886,68.260719 92.080307,68.615013 
	C92.094086,68.048309 92.107864,67.481606 92.065338,66.635178 
	C91.695503,65.896431 91.381958,65.437393 91.186600,64.656204 
	C92.198479,64.294388 93.092163,64.254723 93.988274,64.599182 
	C94.333084,66.258362 94.675468,67.533424 95.017860,68.808487 
	C95.504372,68.779823 95.990883,68.751160 96.477394,68.722488 
	C96.974304,66.460876 97.471214,64.199272 97.799774,61.602230 
	C94.625259,61.120892 91.619087,60.974983 88.612923,60.829071 
z"/>
<path fill="#ACC47E" opacity="1.000000" stroke="none" 
	d="
M109.117264,54.958057 
	C113.136215,55.828445 113.505959,58.392914 112.253036,61.711468 
	C111.562515,63.540447 110.873337,65.369926 109.732292,67.577507 
	C107.893852,67.320312 106.506676,66.684807 105.050461,65.788689 
	C104.227486,63.576771 103.235092,61.672600 102.835464,59.651237 
	C102.672699,58.827938 103.604446,57.531292 104.385460,56.845444 
	C105.297485,56.044537 106.589012,55.675770 108.066193,55.078880 
	C108.650101,55.011520 108.883682,54.984787 109.117264,54.958057 
z"/>
<path fill="#25AF57" opacity="1.000000" stroke="none" 
	d="
M121.328323,56.560883 
	C120.671364,56.135254 120.131683,55.336685 119.361343,54.196812 
	C118.957916,54.703327 118.531937,55.238155 117.981613,56.033043 
	C116.200752,54.748417 113.612442,53.448811 113.125275,51.596565 
	C112.526009,49.318199 114.666069,47.096561 117.275986,47.436840 
	C118.925583,47.651909 121.094032,49.036350 121.731552,50.472553 
	C122.422318,52.028748 121.605148,54.254303 121.328323,56.560883 
z"/>
<path fill="#2CAF55" opacity="1.000000" stroke="none" 
	d="
M111.809052,85.896957 
	C113.081543,83.827065 114.354050,81.757179 116.107071,79.727211 
	C118.253311,80.472023 119.919022,81.176910 121.584732,81.881805 
	C122.424385,88.068413 121.517082,88.905853 113.383400,88.999672 
	C113.002304,88.899498 112.962639,88.642670 112.946411,88.333046 
	C112.556480,87.314598 112.182762,86.605782 111.809052,85.896957 
z"/>
<path fill="#DA3328" opacity="1.000000" stroke="none" 
	d="
M96.605965,71.758499 
	C88.945213,75.412796 88.149132,78.287216 93.464386,83.567192 
	C88.230774,83.820625 86.628510,81.064217 88.098511,73.157883 
	C91.249619,72.302368 93.927788,72.030434 96.605965,71.758499 
z"/>
<path fill="#DD8B32" opacity="1.000000" stroke="none" 
	d="
M96.967484,71.711426 
	C93.927788,72.030434 91.249619,72.302368 88.282913,72.827454 
	C88.163269,72.216171 88.332161,71.351753 89.010056,70.257996 
	C89.694901,70.012749 89.870743,69.996834 90.046593,69.980911 
	C93.056450,69.970444 96.066315,69.959969 99.748894,69.879120 
	C100.421616,69.808746 100.885857,69.752007 101.220024,69.809875 
	C102.742630,68.594933 103.931061,67.322113 105.119499,66.049294 
	C106.506676,66.684807 107.893852,67.320312 109.611992,67.920273 
	C111.293793,69.365189 112.644638,70.845657 114.035568,72.683945 
	C110.764534,69.480522 106.690544,71.014595 102.495605,71.599915 
	C100.573418,71.786049 98.951210,71.725197 96.967484,71.711426 
z"/>
<path fill="#A6C882" opacity="1.000000" stroke="none" 
	d="
M109.100494,54.574379 
	C108.883682,54.984787 108.650101,55.011520 107.712997,55.075764 
	C105.326546,54.413242 103.643623,53.713207 101.960693,53.013176 
	C106.528854,51.740372 108.227631,49.126835 105.922363,44.214890 
	C110.483803,44.041847 111.742958,46.355980 110.249969,50.473789 
	C109.807785,51.693382 109.469582,52.950680 109.100494,54.574379 
z"/>
<path fill="#ADCA88" opacity="1.000000" stroke="none" 
	d="
M96.987358,54.956749 
	C95.171051,54.942207 93.354736,54.927666 91.071205,54.922806 
	C90.928116,53.248001 91.233635,51.559666 91.581482,49.880096 
	C91.951500,48.093426 92.361618,46.315060 92.852158,44.172783 
	C93.635117,44.994732 94.281662,46.201443 95.013817,47.353748 
	C96.254898,49.307022 97.550034,51.225948 98.636177,53.576809 
	C97.962387,54.315117 97.474869,54.635929 96.987358,54.956749 
z"/>
<path fill="#26AE54" opacity="1.000000" stroke="none" 
	d="
M117.724144,66.230705 
	C118.557213,67.750183 119.036186,69.152565 119.908409,71.136871 
	C120.550911,73.541061 120.800148,75.363319 120.987625,77.451630 
	C120.305649,77.892921 119.318092,78.401329 119.125374,78.188850 
	C117.958023,76.901764 116.972130,75.450096 115.925598,74.053429 
	C115.925598,74.053429 115.977608,73.991882 115.847549,73.829109 
	C115.540398,73.412064 115.310715,73.221046 115.028427,73.093285 
	C115.028427,73.093285 115.012032,73.229675 114.943626,73.241158 
	C115.017906,72.760124 115.160591,72.267616 115.517693,71.360596 
	C115.557480,70.641396 115.382858,70.336700 115.208229,70.032013 
	C115.928841,68.725876 116.649445,67.419739 117.724144,66.230705 
z"/>
<path fill="#15AB51" opacity="1.000000" stroke="none" 
	d="
M121.049385,77.185585 
	C120.800148,75.363319 120.550911,73.541061 120.143326,71.360229 
	C120.505280,70.979156 121.025558,70.956642 121.849487,71.279663 
	C122.771729,71.907524 123.390343,72.189850 124.008949,72.472168 
	C123.657303,71.978874 123.305656,71.485588 122.954010,70.992294 
	C123.196091,70.427299 123.438179,69.862312 123.914917,69.092049 
	C128.502808,70.421661 129.485641,72.942101 125.807953,76.922562 
	C123.814606,77.194115 122.431999,77.189850 121.049385,77.185585 
z"/>
<path fill="#4BAB58" opacity="1.000000" stroke="none" 
	d="
M120.987625,77.451630 
	C122.431999,77.189850 123.814606,77.194115 125.484863,77.111786 
	C124.493927,78.467751 123.215340,79.910316 121.760742,81.617340 
	C119.919022,81.176910 118.253311,80.472023 116.358116,79.507797 
	C116.016365,77.802177 115.904091,76.355896 115.858704,74.481522 
	C116.972130,75.450096 117.958023,76.901764 119.125374,78.188850 
	C119.318092,78.401329 120.305649,77.892921 120.987625,77.451630 
z"/>
<path fill="#C99D41" opacity="1.000000" stroke="none" 
	d="
M89.977936,69.616699 
	C89.870743,69.996834 89.694901,70.012749 89.254013,70.032127 
	C88.963112,67.262886 88.937256,64.490189 88.762161,61.273281 
	C91.619087,60.974983 94.625259,61.120892 97.492233,61.749649 
	C96.230644,62.893349 95.108246,63.554203 93.985855,64.215057 
	C93.092163,64.254723 92.198479,64.294388 90.936577,64.828094 
	C90.452446,65.903740 90.336533,66.485344 90.220619,67.066948 
	C90.116837,67.795456 90.013054,68.523972 89.977936,69.616699 
z"/>
<path fill="#32B25E" opacity="1.000000" stroke="none" 
	d="
M88.032661,89.376511 
	C88.832832,88.790283 89.797142,88.512924 91.051651,87.987808 
	C92.300995,88.025948 93.260139,88.311844 94.655914,88.737679 
	C95.092537,88.877617 95.192955,89.062233 95.286697,89.316345 
	C95.911552,90.317802 96.442665,91.065163 96.973778,91.812523 
	C93.507561,93.333923 90.579735,92.633804 88.032661,89.376511 
z"/>
<path fill="#3AA858" opacity="1.000000" stroke="none" 
	d="
M109.986206,93.808403 
	C107.737633,93.214104 105.489059,92.619812 102.778046,91.803131 
	C102.315605,91.580750 102.031342,91.228783 102.387085,90.998917 
	C104.081696,90.462944 105.420570,90.156845 106.799103,89.861450 
	C106.838760,89.872154 106.986115,89.892242 107.337219,90.025398 
	C108.518326,90.715202 109.348335,91.271851 110.158249,92.159760 
	C110.087509,92.930145 110.036858,93.369270 109.986206,93.808403 
z"/>
<path fill="#32B25E" opacity="1.000000" stroke="none" 
	d="
M87.397034,83.923843 
	C82.302765,82.592964 84.374184,77.979744 83.804916,74.259453 
	C85.072685,77.207787 86.154739,80.407013 87.397034,83.923843 
z"/>
<path fill="#D8704E" opacity="1.000000" stroke="none" 
	d="
M95.192955,89.062233 
	C95.192955,89.062233 95.092537,88.877617 95.027885,88.794785 
	C95.243462,87.997658 95.523689,87.283379 95.952667,86.181335 
	C97.195885,85.816872 98.290359,85.840157 99.797417,85.855698 
	C100.337296,86.230026 100.464584,86.612114 100.344429,87.641747 
	C100.116898,88.893036 100.136803,89.496765 99.968491,90.249229 
	C99.780273,90.397957 99.328110,90.558372 99.019012,90.331078 
	C97.537590,89.756599 96.365273,89.409416 95.192955,89.062233 
z"/>
<path fill="#E19F7C" opacity="1.000000" stroke="none" 
	d="
M110.178337,91.828499 
	C109.348335,91.271851 108.518326,90.715202 107.871407,90.075279 
	C109.061195,89.962151 110.067894,89.932297 111.337036,89.931274 
	C111.948959,89.974579 112.298431,89.989059 112.647911,90.003540 
	C113.405388,90.374565 114.162872,90.745590 114.920349,91.116608 
	C114.410751,91.645142 113.901154,92.173668 112.798370,92.691818 
	C111.529572,92.397125 110.853951,92.112808 110.178337,91.828499 
z"/>
<path fill="#E19F7C" opacity="1.000000" stroke="none" 
	d="
M99.328110,90.558372 
	C99.328110,90.558372 99.780273,90.397957 100.250916,90.287804 
	C101.158157,90.528030 101.594749,90.878410 102.031342,91.228783 
	C102.031342,91.228783 102.315605,91.580750 102.427811,91.778030 
	C101.492943,92.082321 100.445885,92.189323 99.223160,91.940613 
	C99.141037,91.242722 99.234573,90.900551 99.328110,90.558372 
z"/>
<path fill="#2FB058" opacity="1.000000" stroke="none" 
	d="
M99.019012,90.331078 
	C99.234573,90.900551 99.141037,91.242722 98.922150,91.825439 
	C98.386200,92.042542 97.975586,92.019089 97.269379,91.904083 
	C96.442665,91.065163 95.911552,90.317802 95.286697,89.316345 
	C96.365273,89.409416 97.537590,89.756599 99.019012,90.331078 
z"/>
<path fill="#84BB59" opacity="1.000000" stroke="none" 
	d="
M110.158249,92.159760 
	C110.853951,92.112808 111.529572,92.397125 112.450729,92.814850 
	C112.004227,93.290192 111.312172,93.632126 110.303162,93.891228 
	C110.036858,93.369270 110.087509,92.930145 110.158249,92.159760 
z"/>
<path fill="#84BB59" opacity="1.000000" stroke="none" 
	d="
M112.733704,89.794846 
	C112.298431,89.989059 111.948959,89.974579 111.303040,89.707916 
	C111.658615,89.184723 112.310623,88.913696 112.962639,88.642670 
	C112.962639,88.642670 113.002304,88.899498 112.956093,89.021767 
	C112.909882,89.144035 112.819504,89.586166 112.733704,89.794846 
z"/>
<path fill="#32B25E" opacity="1.000000" stroke="none" 
	d="
M91.141815,87.483429 
	C90.767746,87.477448 90.247169,87.242874 89.663696,86.711487 
	C90.065628,86.694733 90.530464,86.974777 91.141815,87.483429 
z"/>
<path fill="#4BAB58" opacity="1.000000" stroke="none" 
	d="
M115.177048,70.288132 
	C115.382858,70.336700 115.557480,70.641396 115.557785,70.974197 
	C115.304260,70.849609 115.225060,70.696922 115.177048,70.288132 
z"/>
<path fill="#32B25E" opacity="1.000000" stroke="none" 
	d="
M89.357208,86.142120 
	C89.120056,86.361053 88.856705,86.233986 88.632370,85.708809 
	C88.852043,85.584320 89.071907,85.746124 89.357208,86.142120 
z"/>
<path fill="#32B25E" opacity="1.000000" stroke="none" 
	d="
M88.397194,85.203064 
	C88.147171,85.400841 87.911339,85.263924 87.763123,84.746368 
	C87.986031,84.648079 88.172920,84.815628 88.397194,85.203064 
z"/>
<path fill="#E5DC95" opacity="1.000000" stroke="none" 
	d="
M101.673325,53.048386 
	C103.643623,53.713207 105.326546,54.413242 107.362679,55.116394 
	C106.589012,55.675770 105.297485,56.044537 104.385460,56.845444 
	C103.604446,57.531292 102.672699,58.827938 102.835464,59.651237 
	C103.235092,61.672600 104.227486,63.576771 105.050461,65.788689 
	C103.931061,67.322113 102.742630,68.594933 101.209915,69.363342 
	C100.525681,63.832718 100.185715,58.806515 99.845749,53.780304 
	C100.359154,53.548069 100.872551,53.315834 101.673325,53.048386 
z"/>
<path fill="#2A8997" opacity="1.000000" stroke="none" 
	d="
M99.637405,53.774193 
	C100.185715,58.806515 100.525681,63.832718 100.875748,69.305466 
	C100.885857,69.752007 100.421616,69.808746 100.189423,69.780899 
	C100.424011,64.780357 99.890312,60.018753 96.995407,55.355198 
	C97.474869,54.635929 97.962387,54.315117 98.731110,53.875778 
	C99.012306,53.757256 99.429054,53.768078 99.637405,53.774193 
z"/>
<path fill="#DE865E" opacity="1.000000" stroke="none" 
	d="
M102.387085,90.998917 
	C101.594749,90.878410 101.158157,90.528030 100.439133,90.139076 
	C100.136803,89.496765 100.116898,88.893036 100.103317,87.835243 
	C100.598297,87.197098 101.086952,87.013008 102.082474,87.054558 
	C103.070747,87.176880 103.552170,87.073563 104.031357,86.981720 
	C104.029137,86.993202 104.010033,86.983185 104.123421,87.179840 
	C104.427383,87.615227 104.653923,87.812706 105.215988,88.175781 
	C105.889519,88.696121 106.263481,89.009605 106.683289,89.451462 
	C106.729149,89.579819 106.759445,89.850746 106.759445,89.850746 
	C105.420570,90.156845 104.081696,90.462944 102.387085,90.998917 
z"/>
<path fill="#25AF57" opacity="1.000000" stroke="none" 
	d="
M106.799103,89.861450 
	C106.759445,89.850746 106.729149,89.579819 106.977448,89.464310 
	C107.606209,89.222725 107.986664,89.096649 108.367119,88.970573 
	C109.335579,88.042671 110.304031,87.114769 111.540771,86.041916 
	C112.182762,86.605782 112.556480,87.314598 112.946411,88.333046 
	C112.310623,88.913696 111.658615,89.184723 111.040596,89.679092 
	C110.067894,89.932297 109.061195,89.962151 107.520309,89.942123 
	C106.986115,89.892242 106.838760,89.872154 106.799103,89.861450 
z"/>
<path fill="#D8704E" opacity="1.000000" stroke="none" 
	d="
M108.163895,88.702858 
	C107.986664,89.096649 107.606209,89.222725 106.931595,89.335953 
	C106.263481,89.009605 105.889519,88.696121 105.127670,87.961716 
	C104.558044,87.274452 104.314796,87.088585 104.010033,86.983185 
	C104.010033,86.983185 104.029137,86.993202 104.073959,86.766800 
	C104.118790,86.540390 104.184418,86.106956 104.459610,86.118080 
	C105.429497,86.353981 106.124207,86.578758 106.818909,86.803528 
	C107.199493,87.347397 107.580078,87.891266 108.163895,88.702858 
z"/>
<path fill="#E5B967" opacity="1.000000" stroke="none" 
	d="
M106.816223,86.432297 
	C106.124207,86.578758 105.429497,86.353981 104.023163,86.096458 
	C102.729454,86.098747 102.147377,86.133789 101.565308,86.168823 
	C103.314713,86.132904 105.064125,86.096985 106.816223,86.432297 
z"/>
<path fill="#E19F7C" opacity="1.000000" stroke="none" 
	d="
M101.443451,86.511703 
	C102.147377,86.133789 102.729454,86.098747 103.747971,86.085335 
	C104.184418,86.106956 104.118790,86.540390 104.076187,86.755318 
	C103.552170,87.073563 103.070747,87.176880 102.220230,87.317017 
	C101.674606,87.187416 101.498093,87.021004 101.443451,86.511703 
z"/>
<path fill="#4BAB58" opacity="1.000000" stroke="none" 
	d="
M115.011246,73.370911 
	C115.310715,73.221046 115.540398,73.412064 115.829018,73.863533 
	C115.625053,73.923340 115.309555,73.785942 115.011246,73.370911 
z"/>
<path fill="#26AE54" opacity="1.000000" stroke="none" 
	d="
M122.703064,71.013046 
	C123.305656,71.485588 123.657303,71.978874 124.008949,72.472168 
	C123.390343,72.189850 122.771729,71.907524 122.052528,71.358765 
	C122.118660,71.072815 122.285393,71.053314 122.703064,71.013046 
z"/>
<path fill="#2A8997" opacity="1.000000" stroke="none" 
	d="
M93.988274,64.599182 
	C95.108246,63.554203 96.230644,62.893349 97.660583,62.085075 
	C97.471214,64.199272 96.974304,66.460876 96.477394,68.722488 
	C95.990883,68.751160 95.504372,68.779823 95.017860,68.808487 
	C94.675468,67.533424 94.333084,66.258362 93.988274,64.599182 
z"/>
<path fill="#2A8997" opacity="1.000000" stroke="none" 
	d="
M90.484695,67.081146 
	C90.336533,66.485344 90.452446,65.903740 90.818390,65.150253 
	C91.381958,65.437393 91.695503,65.896431 91.986862,66.688858 
	C91.964676,67.022255 91.805931,67.126976 91.805931,67.126976 
	C91.453545,67.116432 91.101166,67.105888 90.484695,67.081146 
z"/>
<path fill="#2A8997" opacity="1.000000" stroke="none" 
	d="
M92.043159,66.968582 
	C92.107864,67.481606 92.094086,68.048309 92.080307,68.615013 
	C91.957886,68.260719 91.835457,67.906425 91.759476,67.339554 
	C91.805931,67.126976 91.964676,67.022255 92.043159,66.968582 
z"/>
<path fill="#E19F7C" opacity="1.000000" stroke="none" 
	d="
M104.123421,87.179840 
	C104.314796,87.088585 104.558044,87.274452 104.828102,87.754868 
	C104.653923,87.812706 104.427383,87.615227 104.123421,87.179840 
z"/>
</svg>