<svg version="1.1" id="Layer_1" xmlns="http://www.w3.org/2000/svg" xmlns:xlink="http://www.w3.org/1999/xlink" x="0px" y="0px"
	 width="100%" viewBox="0 0 2560 1707" enable-background="new 0 0 2560 1707" xml:space="preserve">
<path fill="#D72B1F" opacity="1.000000" stroke="none" 
	d="
M2562.000000,856.000000 
	C2562.000000,1140.611206 2562.000000,1425.222290 2562.000000,1709.916748 
	C1708.888550,1709.916748 855.777100,1709.916748 2.000000,1709.916748 
	C2.000000,1425.944336 2.000000,1141.888062 2.929247,856.874084 
	C283.546783,855.913452 563.235107,855.913452 842.923401,855.881348 
	C847.563049,855.880798 852.202759,855.489319 857.695007,855.408081 
	C862.544983,855.582214 866.542297,855.669128 870.539673,855.669189 
	C1430.034790,855.675232 1989.530029,855.674194 2549.025146,855.688354 
	C2553.350098,855.688477 2557.675049,855.891602 2562.000000,856.000000 
z"/>
<path fill="#FFFFFF" opacity="1.000000" stroke="none" 
	d="
M2562.000000,855.074707 
	C2557.675049,855.891602 2553.350098,855.688477 2549.025146,855.688354 
	C1989.530029,855.674194 1430.034790,855.675232 870.539673,855.669189 
	C866.542297,855.669128 862.544983,855.582214 857.659790,854.532837 
	C856.749878,849.531799 856.708557,845.533875 856.708496,841.535889 
	C856.705444,565.989685 856.708984,290.443481 856.676514,14.897278 
	C856.675964,10.598158 856.235291,6.299090 856.000000,1.999999 
	C1424.477661,2.000000 1992.955444,2.000000 2562.000000,2.000000 
	C2562.000000,286.049561 2562.000000,570.099487 2562.000000,855.074707 
z"/>
<path fill="#0039A6" opacity="1.000000" stroke="none" 
	d="
M855.070007,1.999999 
	C856.235291,6.299090 856.675964,10.598158 856.676514,14.897278 
	C856.708984,290.443481 856.705444,565.989685 856.708496,841.535889 
	C856.708557,845.533875 856.749878,849.531799 856.807190,854.405029 
	C852.202759,855.489319 847.563049,855.880798 842.923401,855.881348 
	C563.235107,855.913452 283.546783,855.913452 2.929247,855.958191 
	C2.000000,571.476746 2.000000,286.953461 2.000000,2.000000 
	C286.046509,2.000000 570.093201,2.000000 855.070007,1.999999 
M430.850525,511.513092 
	C433.882355,513.550476 436.981445,515.495117 439.935822,517.639282 
	C474.981995,543.074585 510.003510,568.543945 545.042908,593.988525 
	C547.700806,595.918579 550.445190,597.729553 555.298950,601.079407 
	C538.967651,550.635925 523.360291,502.428436 507.753357,454.222290 
	C549.101807,424.139587 589.631165,394.652802 630.160522,365.165985 
	C629.945679,364.455536 629.730835,363.745117 629.515991,363.034668 
	C579.080261,363.034668 528.644531,363.034668 478.107971,363.034668 
	C462.219116,314.260284 446.681213,266.563202 431.143311,218.866104 
	C430.459930,218.954330 429.776550,219.042542 429.093170,219.130768 
	C413.478943,267.049469 397.864716,314.968170 382.067139,363.449585 
	C330.942474,363.449585 280.781555,363.449585 230.620605,363.449585 
	C230.452820,363.999054 230.285049,364.548492 230.117264,365.097961 
	C270.920166,394.781494 311.723114,424.464996 352.617645,454.215179 
	C336.769257,503.103699 321.225739,551.051758 305.682251,598.999817 
	C319.521057,590.909485 331.887024,581.925659 344.279541,572.978699 
	C372.626678,552.513062 400.986786,532.065369 430.850525,511.513092 
z"/>
<path fill="#FDFDFE" opacity="1.000000" stroke="none" 
	d="
M430.096069,511.561768 
	C400.986786,532.065369 372.626678,552.513062 344.279541,572.978699 
	C331.887024,581.925659 319.521057,590.909485 305.682251,598.999817 
	C321.225739,551.051758 336.769257,503.103699 352.617645,454.215179 
	C311.723114,424.464996 270.920166,394.781494 230.117264,365.097961 
	C230.285049,364.548492 230.452820,363.999054 230.620605,363.449585 
	C280.781555,363.449585 330.942474,363.449585 382.067139,363.449585 
	C397.864716,314.968170 413.478943,267.049469 429.093170,219.130768 
	C429.776550,219.042542 430.459930,218.954330 431.143311,218.866104 
	C446.681213,266.563202 462.219116,314.260284 478.107971,363.034668 
	C528.644531,363.034668 579.080261,363.034668 629.515991,363.034668 
	C629.730835,363.745117 629.945679,364.455536 630.160522,365.165985 
	C589.631165,394.652802 549.101807,424.139587 507.753357,454.222290 
	C523.360291,502.428436 538.967651,550.635925 555.298950,601.079407 
	C550.445190,597.729553 547.700806,595.918579 545.042908,593.988525 
	C510.003510,568.543945 474.981995,543.074585 439.935822,517.639282 
	C436.981445,515.495117 433.882355,513.550476 430.096069,511.561768 
z"/>
</svg>