<svg version="1.1" id="Layer_1" xmlns="http://www.w3.org/2000/svg" xmlns:xlink="http://www.w3.org/1999/xlink" x="0px" y="0px"
	 width="100%" viewBox="0 0 1200 800" enable-background="new 0 0 1200 800" xml:space="preserve">
<path fill="#B40A2D" opacity="1.000000" stroke="none" 
	d="
M1.000000,561.000000 
	C1.000000,454.645233 1.000000,348.290466 1.459705,241.467834 
	C401.612946,240.999969 801.306458,240.999985 1201.000000,241.000000 
	C1201.000000,347.354767 1201.000000,453.709564 1200.540283,560.532166 
	C800.387024,561.000000 400.693512,561.000000 1.000000,561.000000 
M634.656372,501.848083 
	C654.138123,515.980957 673.619934,530.113831 693.101685,544.246704 
	C693.444763,543.991821 693.787842,543.736877 694.130859,543.481995 
	C693.597717,541.637939 693.116394,539.777100 692.523682,537.952393 
	C682.101440,505.871735 671.756226,473.765442 661.134460,441.750946 
	C659.552185,436.981842 659.951172,434.308411 664.397278,431.140594 
	C692.481384,411.131378 720.289978,390.735382 748.179932,370.453979 
	C749.311462,369.631104 750.348022,368.677582 752.474609,366.921234 
	C749.409485,366.921234 747.651978,366.921265 745.894470,366.921234 
	C711.233398,366.921112 676.571899,366.849640 641.911682,367.020172 
	C638.013916,367.039368 636.356262,365.772369 635.299011,362.165192 
	C633.525940,356.115784 631.107544,350.259003 629.174622,344.252289 
	C621.132507,319.260406 613.184509,294.238190 605.162048,269.239960 
	C604.049805,265.773987 602.714478,262.379608 601.482483,258.952087 
	C601.041321,258.972168 600.600098,258.992249 600.158936,259.012299 
	C598.780457,263.191956 597.385620,267.366333 596.026001,271.552094 
	C586.213135,301.760315 576.349487,331.952362 566.676392,362.205292 
	C565.522949,365.812653 563.902832,367.035675 560.042603,367.017334 
	C525.382324,366.852325 490.720917,366.921173 456.059814,366.921295 
	C454.317444,366.921295 452.575073,366.921295 449.365051,366.921295 
	C451.961365,368.941681 453.313416,370.056519 454.728088,371.085297 
	C482.752289,391.465546 510.747589,411.885986 538.864929,432.137024 
	C541.961121,434.367035 542.628662,436.234589 541.397827,439.921539 
	C533.563782,463.388885 526.014343,486.951324 518.376099,510.484039 
	C514.780945,521.560242 511.196533,532.639954 507.172180,545.060913 
	C509.814331,543.383728 511.359467,542.515747 512.784241,541.481873 
	C540.964355,521.033508 569.156494,500.601471 597.257751,480.045166 
	C599.950989,478.075043 601.773071,477.731537 604.625000,479.895721 
	C614.310425,487.245575 624.244690,494.267609 634.656372,501.848083 
z"/>
<path fill="#377E3F" opacity="1.000000" stroke="none" 
	d="
M1.000000,161.000000 
	C1.000000,107.681602 1.000000,54.363201 1.000001,1.052159 
	C401.000000,1.059515 801.000000,1.059515 1201.000000,1.059515 
	C1201.000000,54.104263 1201.000000,107.089500 1200.540283,160.537369 
	C800.387024,161.000000 400.693512,161.000000 1.000000,161.000000 
z"/>
<path fill="#377E3F" opacity="1.000000" stroke="none" 
	d="
M1201.000000,641.000000 
	C1201.000000,694.318420 1201.000000,747.636841 1201.000000,800.947754 
	C801.000000,800.940308 401.000000,800.940308 1.000000,800.940308 
	C1.000000,747.895447 1.000000,694.910400 1.459705,641.462646 
	C401.612946,641.000000 801.306458,641.000000 1201.000000,641.000000 
z"/>
<path fill="#FFFFFF" opacity="1.000000" stroke="none" 
	d="
M1.000000,161.459702 
	C400.693512,161.000000 800.387024,161.000000 1200.540283,161.000000 
	C1201.000000,187.360199 1201.000000,213.720398 1201.000000,240.540298 
	C801.306458,240.999985 401.612946,240.999969 1.459705,240.999969 
	C1.000000,214.639801 1.000000,188.279602 1.000000,161.459702 
z"/>
<path fill="#FFFFFF" opacity="1.000000" stroke="none" 
	d="
M1201.000000,640.540283 
	C801.306458,641.000000 401.612946,641.000000 1.459705,641.000000 
	C1.000000,614.639832 1.000000,588.279602 1.000000,561.459717 
	C400.693512,561.000000 800.387024,561.000000 1200.540283,561.000000 
	C1201.000000,587.360168 1201.000000,613.720398 1201.000000,640.540283 
z"/>
<path fill="#ECC71D" opacity="1.000000" stroke="none" 
	d="
M634.370117,501.631470 
	C624.244690,494.267609 614.310425,487.245575 604.625000,479.895721 
	C601.773071,477.731537 599.950989,478.075043 597.257751,480.045166 
	C569.156494,500.601471 540.964355,521.033508 512.784241,541.481873 
	C511.359467,542.515747 509.814331,543.383728 507.172180,545.060913 
	C511.196533,532.639954 514.780945,521.560242 518.376099,510.484039 
	C526.014343,486.951324 533.563782,463.388885 541.397827,439.921539 
	C542.628662,436.234589 541.961121,434.367035 538.864929,432.137024 
	C510.747589,411.885986 482.752289,391.465546 454.728088,371.085297 
	C453.313416,370.056519 451.961365,368.941681 449.365051,366.921295 
	C452.575073,366.921295 454.317444,366.921295 456.059814,366.921295 
	C490.720917,366.921173 525.382324,366.852325 560.042603,367.017334 
	C563.902832,367.035675 565.522949,365.812653 566.676392,362.205292 
	C576.349487,331.952362 586.213135,301.760315 596.026001,271.552094 
	C597.385620,267.366333 598.780457,263.191956 600.158936,259.012299 
	C600.600098,258.992249 601.041321,258.972168 601.482483,258.952087 
	C602.714478,262.379608 604.049805,265.773987 605.162048,269.239960 
	C613.184509,294.238190 621.132507,319.260406 629.174622,344.252289 
	C631.107544,350.259003 633.525940,356.115784 635.299011,362.165192 
	C636.356262,365.772369 638.013916,367.039368 641.911682,367.020172 
	C676.571899,366.849640 711.233398,366.921112 745.894470,366.921234 
	C747.651978,366.921265 749.409485,366.921234 752.474609,366.921234 
	C750.348022,368.677582 749.311462,369.631104 748.179932,370.453979 
	C720.289978,390.735382 692.481384,411.131378 664.397278,431.140594 
	C659.951172,434.308411 659.552185,436.981842 661.134460,441.750946 
	C671.756226,473.765442 682.101440,505.871735 692.523682,537.952393 
	C693.116394,539.777100 693.597717,541.637939 694.130859,543.481995 
	C693.787842,543.736877 693.444763,543.991821 693.101685,544.246704 
	C673.619934,530.113831 654.138123,515.980957 634.370117,501.631470 
z"/>
</svg>