<svg version="1.1" id="Layer_1" xmlns="http://www.w3.org/2000/svg" xmlns:xlink="http://www.w3.org/1999/xlink" x="0px" y="0px"
	 width="100%" viewBox="0 0 612 384" enable-background="new 0 0 612 384" xml:space="preserve">
<path fill="#DC0D13" opacity="1.000000" stroke="none" 
	d="
M193.000000,385.000000 
	C129.036469,385.000000 65.072945,385.000000 1.054708,385.000000 
	C1.054708,257.109436 1.054708,129.218842 1.054708,1.000000 
	C64.687187,1.000000 128.374939,1.000000 192.549622,1.468347 
	C193.036575,44.191776 193.036575,86.446861 193.036575,129.000000 
	C333.445862,129.000000 473.222931,129.000000 613.000000,129.000000 
	C613.000000,171.354233 613.000000,213.708450 612.531494,256.519592 
	C472.517609,256.976501 332.972321,256.976501 193.000000,256.976501 
	C193.000000,300.097382 193.000000,342.548706 193.000000,385.000000 
M76.114990,48.893734 
	C76.114990,48.893734 76.199974,48.875004 76.113976,48.261505 
	C75.840752,47.971031 75.567528,47.680557 75.071121,46.764416 
	C69.839958,39.197285 64.608803,31.630156 59.377647,24.063026 
	C59.031136,25.409628 59.741829,26.475197 59.462280,26.924061 
	C57.592686,29.926062 58.896301,32.592510 60.187790,35.190121 
	C63.811489,42.478573 67.550430,49.709724 71.412621,57.636623 
	C72.982201,60.805683 74.551781,63.974739 75.858826,66.613716 
	C73.917854,68.270775 72.389816,69.575310 70.431007,70.987343 
	C70.431007,70.987343 70.020172,71.153313 69.388000,70.998055 
	C68.959991,70.926758 68.531990,70.855461 67.966888,70.276505 
	C67.676872,70.089485 67.386864,69.902473 67.165260,69.159073 
	C67.121635,68.789574 67.078003,68.420067 67.308220,67.557327 
	C66.515762,67.128616 65.723297,66.699898 64.295372,66.172928 
	C63.869370,66.203751 63.443371,66.234573 62.500061,66.119247 
	C62.329525,66.174232 62.158985,66.229225 61.329735,66.192451 
	C60.888763,66.225380 60.447788,66.258316 59.348515,66.092056 
	C58.900528,66.161163 58.452538,66.230263 57.120136,66.202545 
	C54.748325,66.222176 52.376514,66.241806 49.241489,66.080383 
	C47.958588,66.218002 46.675690,66.355629 44.590824,66.767990 
	C44.318478,69.656776 44.099358,72.551826 43.760010,75.432716 
	C43.355888,78.863495 44.750027,80.122246 48.227062,80.010262 
	C54.479084,79.808907 60.742966,79.975784 67.277054,80.169548 
	C67.658615,80.138954 67.828690,79.918625 67.832001,79.198822 
	C67.832001,79.198822 68.080917,79.009148 68.531296,78.650497 
	C69.187653,78.386101 69.844009,78.121704 70.500374,77.857315 
	C71.073341,79.623260 71.646317,81.389206 72.297028,83.394753 
	C70.321274,83.868599 68.162186,84.386414 65.151085,85.042480 
	C63.425674,85.084625 61.700260,85.126762 59.140759,84.918221 
	C56.210598,85.347420 53.226719,85.566002 50.372730,86.293877 
	C48.925987,86.662842 47.713631,87.950867 46.395309,88.823380 
	C47.362823,90.035217 48.088772,91.837036 49.342312,92.350296 
	C53.400429,94.011841 57.652248,95.200310 62.611622,96.857483 
	C65.687332,97.510551 68.799629,98.031891 71.823486,98.871704 
	C73.359169,99.298218 74.735497,100.298515 75.612297,101.407204 
	C71.094612,105.470413 66.576927,109.533623 61.587078,113.747459 
	C61.291782,114.127655 60.996487,114.507851 60.164822,115.049324 
	C59.786987,115.450523 59.409153,115.851723 58.401344,116.526962 
	C54.450531,119.707481 50.499718,122.888008 45.922760,126.310455 
	C45.611862,126.626862 45.300964,126.943260 44.545712,127.304741 
	C44.248550,127.459496 44.103958,127.704369 44.041302,128.029694 
	C44.041302,128.029694 44.044838,128.100906 43.444805,128.290955 
	C42.828949,129.139236 42.213089,129.987534 41.597229,130.835815 
	C41.773716,131.254318 41.950207,131.672806 42.126698,132.091309 
	C44.888565,131.453445 47.650436,130.815582 50.982780,130.174728 
	C51.325794,130.018921 51.668804,129.863098 52.518543,129.754913 
	C52.766628,129.539749 53.014713,129.324585 53.669582,129.116806 
	C53.669582,129.116806 53.984146,128.858795 54.659050,128.814362 
	C56.436676,127.542709 58.214298,126.271057 60.461620,124.910995 
	C60.780304,124.783081 60.990189,124.555038 61.649902,124.155876 
	C62.023506,123.761490 62.397110,123.367104 63.113209,122.875526 
	C63.113209,122.875526 63.242474,122.543793 63.879997,122.356049 
	C64.620239,121.586845 65.360489,120.817650 66.593346,119.671227 
	C67.753700,118.508499 68.914055,117.345772 70.619194,116.044106 
	C70.841255,115.755363 71.063309,115.466614 71.029030,115.132454 
	C71.029030,115.132454 71.279121,115.206215 71.700554,115.140793 
	C71.977760,114.986557 72.115082,114.750816 72.754990,114.142746 
	C77.183884,110.124214 81.612778,106.105682 86.748627,101.717033 
	C92.136703,100.201515 97.524788,98.685997 103.211220,97.751724 
	C112.160851,105.942230 120.912537,114.365768 130.152542,122.214432 
	C134.135101,125.597305 138.978790,128.099731 143.724701,130.395569 
	C146.177628,131.582184 149.272156,131.442490 152.076797,131.902039 
	C152.219650,131.455460 152.362488,131.008896 152.505341,130.562317 
	C137.381805,117.341286 122.258286,104.120247 106.859535,90.236893 
	C107.232086,86.484398 107.604630,82.731903 108.468643,79.135323 
	C110.024628,78.639809 111.580612,78.144302 113.876701,77.786530 
	C116.251274,77.715736 119.234421,78.525986 120.875076,77.392708 
	C124.405853,74.953812 125.724205,76.547028 127.709709,79.834457 
	C128.471832,79.791046 129.233948,79.747635 130.647202,79.829063 
	C131.084320,79.780174 131.521439,79.731293 132.878326,79.895058 
	C135.031128,79.913673 137.183945,79.949188 139.336731,79.948082 
	C150.984467,79.942108 150.984467,79.938988 149.974747,67.365402 
	C149.659836,67.116608 149.344940,66.867813 148.802643,66.485374 
	C148.802643,66.485374 148.639587,66.692696 147.847458,66.231079 
	C141.113235,66.311218 134.379013,66.391350 126.949631,66.686340 
	C126.300095,67.869789 125.650558,69.053238 124.395981,70.023773 
	C123.577080,69.803955 122.758171,69.584145 121.601288,69.032005 
	C121.601288,69.032005 121.142860,68.911545 120.654755,68.263100 
	C120.072891,67.175125 118.791016,65.878342 119.041489,65.038643 
	C119.768860,62.600143 121.110664,60.344921 122.642067,57.520824 
	C125.801559,51.301075 128.987411,45.094521 132.110840,38.856716 
	C134.034317,35.015305 136.348282,31.254938 134.655762,26.591551 
	C134.499313,26.160492 135.661636,25.250807 136.211594,24.563368 
	C128.632309,28.886145 125.528473,37.031471 120.445442,44.264702 
	C120.202065,44.803272 119.958687,45.341839 119.252228,46.244167 
	C118.807388,47.106419 118.362549,47.968670 117.426048,49.034588 
	C117.319748,49.356930 117.213448,49.679268 116.840141,50.222374 
	C116.840141,50.222374 116.784813,50.564384 116.235962,50.856323 
	C116.097862,51.234943 115.959763,51.613564 115.607445,52.104271 
	C115.607445,52.104271 115.621071,52.345646 115.109550,52.671947 
	C114.955956,53.035843 114.802368,53.399738 114.989662,53.866444 
	C114.989662,53.866444 114.654648,53.742329 114.125198,54.141521 
	C111.922020,57.953434 109.718849,61.765343 107.268608,66.004715 
	C107.037582,62.844479 106.825935,59.949390 106.687302,56.479218 
	C106.605339,55.923786 106.523369,55.368351 106.205429,54.163971 
	C105.147522,53.758686 104.089622,53.353405 102.634956,52.314144 
	C101.484589,50.083183 100.334213,47.852226 99.525467,45.545963 
	C99.727379,43.865112 100.493454,42.006817 100.030540,40.535072 
	C98.307678,35.057617 101.317665,32.314960 105.440178,29.984602 
	C106.077759,29.624195 106.619965,29.095062 107.642334,28.308453 
	C104.124191,25.644413 100.957817,23.246740 97.519707,20.643303 
	C94.082100,23.053921 90.703728,25.422997 86.769119,28.182135 
	C89.811020,30.567356 92.102737,32.364334 94.421837,34.980061 
	C94.641853,36.323719 94.861877,37.667374 94.768005,39.689880 
	C94.813080,41.196564 94.858147,42.703243 94.875214,44.944363 
	C92.946014,47.923244 91.016823,50.902126 88.438110,53.855183 
	C88.252640,56.251995 88.067169,58.648808 87.636543,61.770855 
	C87.739517,62.515053 87.842491,63.259251 87.819725,64.442673 
	C87.819725,64.442673 87.920753,64.888229 87.582794,65.351112 
	C87.089760,65.532448 86.596718,65.713783 85.910706,65.179916 
	C83.695854,61.314556 81.481003,57.449192 79.129646,53.095104 
	C78.824318,52.696712 78.518982,52.298317 78.144356,51.280842 
	C77.835846,51.023277 77.527336,50.765713 77.190437,50.194988 
	C77.190437,50.194988 76.940887,50.003670 76.943481,49.465099 
	C76.678116,49.247719 76.412758,49.030342 76.114990,48.893734 
z"/>
<path fill="#FFFFFF" opacity="1.000000" stroke="none" 
	d="
M613.000000,128.531342 
	C473.222931,129.000000 333.445862,129.000000 193.036575,129.000000 
	C193.036575,86.446861 193.036575,44.191776 193.018280,1.468347 
	C332.888153,1.000000 472.776276,1.000000 613.000000,1.000000 
	C613.000000,43.353638 613.000000,85.708160 613.000000,128.531342 
z"/>
<path fill="#008102" opacity="1.000000" stroke="none" 
	d="
M193.468658,385.000000 
	C193.000000,342.548706 193.000000,300.097382 193.000000,256.976501 
	C332.972321,256.976501 472.517609,256.976501 612.531494,256.988251 
	C613.000000,299.632568 613.000000,342.265167 613.000000,385.000000 
	C473.312469,385.000000 333.624878,385.000000 193.468658,385.000000 
z"/>
<path fill="#F5C9CB" opacity="1.000000" stroke="none" 
	d="
M107.977173,78.979408 
	C107.604630,82.731903 107.232086,86.484398 106.741623,90.800102 
	C105.386757,93.299034 104.149811,95.234749 102.912865,97.170471 
	C97.524788,98.685997 92.136703,100.201515 86.367508,101.470474 
	C85.670715,97.811363 85.415733,94.391747 85.018547,90.988716 
	C84.742668,88.625107 84.271217,86.284340 84.142914,83.715866 
	C89.017365,82.845192 87.533409,80.441139 86.293625,77.877869 
	C87.741997,77.496307 88.868698,77.251709 90.102104,77.163559 
	C90.440445,77.379555 90.672089,77.439102 90.903732,77.498650 
	C90.604729,77.330276 90.305725,77.161911 89.819962,76.774841 
	C89.093681,76.016762 88.554176,75.477394 88.416229,74.954208 
	C94.210564,74.991432 99.603348,75.012474 105.064072,75.344009 
	C106.092957,76.438004 107.053894,77.221489 108.016876,78.249023 
	C108.018921,78.493073 107.977173,78.979408 107.977173,78.979408 
z"/>
<path fill="#F8E6E5" opacity="1.000000" stroke="none" 
	d="
M103.062042,97.461098 
	C104.149811,95.234749 105.386757,93.299034 106.879234,91.131256 
	C122.258286,104.120247 137.381805,117.341286 152.505341,130.562317 
	C152.362488,131.008896 152.219650,131.455460 152.076797,131.902039 
	C149.272156,131.442490 146.177628,131.582184 143.724701,130.395569 
	C138.978790,128.099731 134.135101,125.597305 130.152542,122.214432 
	C120.912537,114.365768 112.160851,105.942230 103.062042,97.461098 
z"/>
<path fill="#F5C9CB" opacity="1.000000" stroke="none" 
	d="
M76.183868,101.039421 
	C74.735497,100.298515 73.359169,99.298218 71.823486,98.871704 
	C68.799629,98.031891 65.687332,97.510551 61.906128,96.538162 
	C60.792038,92.535538 60.383446,88.852219 59.974850,85.168900 
	C61.700260,85.126762 63.425674,85.084625 66.037346,85.055725 
	C71.911743,84.955322 76.899879,84.841690 82.061714,85.088211 
	C82.235413,90.766594 82.235413,96.084816 82.235413,101.039421 
	C79.808472,101.039421 77.996170,101.039421 76.183868,101.039421 
z"/>
<path fill="#F9F0EF" opacity="1.000000" stroke="none" 
	d="
M75.898087,101.223312 
	C77.996170,101.039421 79.808472,101.039421 82.235413,101.039421 
	C82.235413,96.084816 82.235413,90.766594 82.275314,84.914871 
	C82.839195,84.232033 83.363159,84.082703 83.887131,83.933365 
	C84.271217,86.284340 84.742668,88.625107 85.018547,90.988716 
	C85.415733,94.391747 85.670715,97.811363 86.014023,101.655525 
	C81.612778,106.105682 77.183884,110.124214 72.490395,114.015968 
	C71.515587,109.530304 69.058151,114.172867 67.636642,113.171059 
	C68.850800,113.849442 70.064964,114.527832 71.279121,115.206215 
	C71.279121,115.206215 71.029030,115.132454 70.901779,115.251328 
	C70.541161,115.641144 70.307785,115.912094 70.074417,116.183044 
	C68.914055,117.345772 67.753700,118.508499 66.058136,119.782768 
	C64.964493,118.803894 64.406059,117.713478 63.847630,116.623062 
	C63.510532,116.702034 63.173435,116.780998 62.836338,116.859962 
	C62.971718,118.754570 63.107094,120.649185 63.242474,122.543793 
	C63.242474,122.543793 63.113209,122.875526 62.666473,122.972092 
	C61.843582,123.454720 61.467430,123.840790 61.091278,124.226860 
	C60.990189,124.555038 60.780304,124.783081 59.868912,124.950775 
	C57.512184,126.279961 55.748165,127.569382 53.984146,128.858795 
	C53.984146,128.858795 53.669582,129.116806 53.225502,129.132935 
	C52.458748,129.243958 52.202213,129.430023 52.011818,129.707291 
	C51.668804,129.863098 51.325794,130.018921 50.350723,130.081665 
	C47.800880,130.113846 45.883091,130.239059 43.837376,130.372635 
	C43.905235,129.629547 43.975037,128.865234 44.044838,128.100906 
	C44.044838,128.100906 44.041302,128.029694 44.271095,127.965904 
	C44.751564,127.754669 44.914623,127.540520 44.990074,127.259659 
	C45.300964,126.943260 45.611862,126.626862 46.578079,126.174377 
	C51.520203,124.114525 55.807003,122.190758 60.176895,120.229706 
	C59.816807,118.979683 59.424061,117.616302 59.031319,116.252914 
	C59.409153,115.851723 59.786987,115.450523 60.679066,114.910149 
	C61.481956,114.379593 61.770603,113.988213 62.059246,113.596832 
	C66.576927,109.533623 71.094612,105.470413 75.898087,101.223312 
M72.736206,108.895775 
	C72.600601,108.547920 72.464996,108.200073 72.329391,107.852226 
	C72.122002,108.016273 71.914612,108.180328 71.707230,108.344383 
	C71.953720,108.616776 72.200211,108.889175 72.736206,108.895775 
M52.224686,125.603813 
	C52.018383,125.774673 51.812080,125.945534 51.605782,126.116394 
	C51.709698,126.227196 51.813614,126.338005 51.917522,126.448814 
	C52.100544,126.253265 52.283562,126.057724 52.224686,125.603813 
z"/>
<path fill="#F9EEEC" opacity="1.000000" stroke="none" 
	d="
M117.917709,48.830921 
	C118.362549,47.968670 118.807388,47.106419 119.758759,45.917534 
	C120.496086,45.038731 120.726875,44.486565 120.957672,43.934402 
	C125.528473,37.031471 128.632309,28.886145 136.211594,24.563368 
	C135.661636,25.250807 134.499313,26.160492 134.655762,26.591551 
	C136.348282,31.254938 134.034317,35.015305 132.110840,38.856716 
	C128.987411,45.094521 125.801559,51.301075 122.071411,57.897934 
	C120.376480,59.119526 118.451866,59.820141 118.269615,60.833965 
	C117.566444,64.745674 115.006332,64.107727 112.389572,64.080208 
	C111.219002,59.996075 118.001228,57.999535 114.654648,53.742329 
	C114.654648,53.742329 114.989662,53.866444 115.089035,53.665352 
	C115.332634,53.091389 115.476852,52.718517 115.621071,52.345646 
	C115.621071,52.345646 115.607445,52.104271 115.958176,51.873058 
	C116.467537,51.282692 116.626175,50.923538 116.784813,50.564384 
	C116.784813,50.564384 116.840141,50.222374 117.177414,49.970322 
	C117.763252,49.474365 117.897591,49.178581 117.917709,48.830921 
z"/>
<path fill="#F9EEEC" opacity="1.000000" stroke="none" 
	d="
M78.213654,51.899925 
	C78.518982,52.298317 78.824318,52.696712 79.032127,53.638176 
	C78.018044,55.917744 77.101479,57.654232 75.846306,60.032238 
	C74.595757,59.198402 72.919838,58.080940 71.243919,56.963478 
	C67.550430,49.709724 63.811489,42.478573 60.187790,35.190121 
	C58.896301,32.592510 57.592686,29.926062 59.462280,26.924061 
	C59.741829,26.475197 59.031136,25.409628 59.377647,24.063026 
	C64.608803,31.630156 69.839958,39.197285 75.218430,47.384453 
	C75.643814,48.294662 75.921898,48.584831 76.199974,48.875004 
	C76.199974,48.875004 76.114990,48.893734 76.183220,49.097740 
	C76.398796,49.616718 76.628609,49.850693 76.940887,50.003670 
	C76.940887,50.003670 77.190437,50.194988 77.277252,50.641296 
	C77.647270,51.358376 77.930466,51.629150 78.213654,51.899925 
z"/>
<path fill="#F8E6E5" opacity="1.000000" stroke="none" 
	d="
M94.394447,34.161316 
	C92.102737,32.364334 89.811020,30.567356 86.769119,28.182135 
	C90.703728,25.422997 94.082100,23.053921 97.519707,20.643303 
	C100.957817,23.246740 104.124191,25.644413 107.642334,28.308453 
	C106.619965,29.095062 106.077759,29.624195 105.440178,29.984602 
	C101.317665,32.314960 98.307678,35.057617 100.030540,40.535072 
	C100.493454,42.006817 99.727379,43.865112 99.147980,45.350147 
	C98.584877,43.099060 98.686264,40.962502 98.133614,39.011177 
	C97.570816,37.023979 98.082458,33.859726 94.394447,34.161316 
z"/>
<path fill="#DB1E28" opacity="1.000000" stroke="none" 
	d="
M84.142914,83.715866 
	C83.363159,84.082703 82.839195,84.232033 82.101624,84.554710 
	C76.899879,84.841690 71.911743,84.955322 66.463356,84.986595 
	C68.162186,84.386414 70.321274,83.868599 72.297028,83.394753 
	C71.646317,81.389206 71.073341,79.623260 70.500366,77.857315 
	C69.844009,78.121704 69.187653,78.386101 68.303528,78.462021 
	C68.083260,77.539482 68.090759,76.805420 68.483383,76.025658 
	C70.589012,76.252716 72.309502,76.525482 74.195099,77.107925 
	C74.486702,76.064003 74.805908,74.695732 74.704269,73.359482 
	C74.375046,69.030998 76.132858,68.227386 79.644638,70.535736 
	C79.396942,73.128731 79.218285,75.369225 79.118690,76.618172 
	C81.459480,77.095215 83.715714,77.555031 85.971954,78.014839 
	C87.533409,80.441139 89.017365,82.845192 84.142914,83.715866 
M75.457375,83.483604 
	C75.457375,83.483604 75.513062,83.460358 75.457375,83.483604 
M80.463509,81.493385 
	C80.463509,81.493385 80.514587,81.471024 80.463509,81.493385 
M77.540779,80.507988 
	C77.540779,80.507988 77.485611,80.532196 77.540779,80.507988 
z"/>
<path fill="#F5CFCE" opacity="1.000000" stroke="none" 
	d="
M79.713676,70.183235 
	C76.132858,68.227386 74.375046,69.030998 74.704269,73.359482 
	C74.805908,74.695732 74.486702,76.064003 74.124588,76.709808 
	C73.613708,73.860939 74.755234,70.882545 70.861778,70.879837 
	C72.389816,69.575310 73.917854,68.270775 75.858826,66.613716 
	C74.551781,63.974739 72.982201,60.805683 71.328270,57.300049 
	C72.919838,58.080940 74.595757,59.198402 75.846306,60.032238 
	C77.101479,57.654232 78.018044,55.917744 79.100380,53.882542 
	C81.481003,57.449192 83.695854,61.314556 85.919533,65.621361 
	C85.928360,66.062805 85.752480,66.229889 85.511642,66.038956 
	C82.529793,65.769432 79.824982,65.737030 80.155014,69.867874 
	C80.016495,69.984535 79.713676,70.183235 79.713676,70.183235 
z"/>
<path fill="#F9F0EF" opacity="1.000000" stroke="none" 
	d="
M94.408142,34.570686 
	C98.082458,33.859726 97.570816,37.023979 98.133614,39.011177 
	C98.686264,40.962502 98.584877,43.099060 98.977173,45.387798 
	C100.334213,47.852226 101.484589,50.083183 102.901352,52.906410 
	C103.478760,53.972828 103.789764,54.446980 104.075569,55.182663 
	C104.034386,55.618637 104.018394,55.793072 103.628830,55.980133 
	C102.508530,56.006065 101.761810,56.019367 100.983627,55.825455 
	C100.810616,55.403454 100.669067,55.188671 100.527527,54.973888 
	C100.351250,55.302998 100.174973,55.632111 99.617050,55.966354 
	C97.505119,55.477726 95.774834,54.983963 94.506767,54.622101 
	C92.887161,55.108181 91.458611,55.616951 89.986115,55.874439 
	C89.808250,55.905540 89.392906,54.578556 89.087631,53.881008 
	C91.016823,50.902126 92.946014,47.923244 94.914711,44.226494 
	C94.996773,42.009426 95.039330,40.510227 95.081894,39.011032 
	C94.861877,37.667374 94.641853,36.323719 94.408142,34.570686 
z"/>
<path fill="#F8E6E5" opacity="1.000000" stroke="none" 
	d="
M59.557804,85.043564 
	C60.383446,88.852219 60.792038,92.535538 61.515038,96.394943 
	C57.652248,95.200310 53.400429,94.011841 49.342312,92.350296 
	C48.088772,91.837036 47.362823,90.035217 46.395309,88.823380 
	C47.713631,87.950867 48.925987,86.662842 50.372730,86.293877 
	C53.226719,85.566002 56.210598,85.347420 59.557804,85.043564 
z"/>
<path fill="#F5C9CB" opacity="1.000000" stroke="none" 
	d="
M68.098267,76.071365 
	C68.090759,76.805420 68.083260,77.539482 68.078339,78.641342 
	C68.080917,79.009148 67.832001,79.198822 67.580185,79.419586 
	C67.328362,79.640350 67.001892,79.988808 67.001892,79.988808 
	C60.742966,79.975784 54.479084,79.808907 48.227062,80.010262 
	C44.750027,80.122246 43.355888,78.863495 43.760010,75.432716 
	C44.099358,72.551826 44.318478,69.656776 45.381195,66.755974 
	C47.449280,66.583115 48.726994,66.422279 50.004704,66.261429 
	C52.376514,66.241806 54.748325,66.222176 57.732277,66.410187 
	C58.898552,66.508965 59.452682,66.400101 60.006817,66.291245 
	C60.447788,66.258316 60.888763,66.225380 61.766281,66.355904 
	C62.202831,66.519356 62.658623,66.556084 62.658623,66.556084 
	C62.658623,66.556084 63.017368,66.265396 63.017368,66.265396 
	C63.443371,66.234573 63.869370,66.203751 64.453941,66.564346 
	C62.788631,67.309097 60.977631,67.768631 59.137959,67.991707 
	C56.128292,68.356674 53.099964,68.567757 49.769039,68.998367 
	C48.064850,69.377296 46.671127,69.601601 45.360977,69.812454 
	C44.519371,76.864616 44.549324,76.900948 51.244179,77.216431 
	C53.969913,77.314941 56.449314,77.184174 59.174694,77.274948 
	C60.278435,77.638725 61.136196,77.780945 62.283772,77.907188 
	C63.050629,77.592659 63.527676,77.294106 64.332764,77.004196 
	C65.098442,77.012482 65.536064,77.012115 66.005341,77.219284 
	C66.186752,77.635620 66.336502,77.844429 66.486259,78.053230 
	C66.604225,77.697990 66.722198,77.342758 66.861481,76.739578 
	C66.882805,76.491646 66.934380,75.996628 67.226273,76.000946 
	C67.711540,76.027298 67.904900,76.049332 68.098267,76.071365 
z"/>
<path fill="#F5CFCE" opacity="1.000000" stroke="none" 
	d="
M114.389923,53.941925 
	C118.001228,57.999535 111.219002,59.996075 112.389572,64.080208 
	C115.006332,64.107727 117.566444,64.745674 118.269615,60.833965 
	C118.451866,59.820141 120.376480,59.119526 121.856094,58.146420 
	C121.110664,60.344921 119.768860,62.600143 119.041489,65.038643 
	C118.791016,65.878342 120.072891,67.175125 120.630806,68.788605 
	C120.317795,69.653999 120.028725,69.993904 119.430313,70.153580 
	C117.751228,69.674797 116.381477,69.376236 114.893265,68.718765 
	C113.182335,67.926041 111.612495,67.327934 109.991028,67.104431 
	C108.358826,66.879448 106.675285,67.026909 105.245621,66.729935 
	C104.991203,64.619667 104.505402,62.790638 104.172256,60.710686 
	C105.088036,59.324608 105.851166,58.189457 106.614296,57.054306 
	C106.825935,59.949390 107.037582,62.844479 107.268608,66.004715 
	C109.718849,61.765343 111.922020,57.953434 114.389923,53.941925 
z"/>
<path fill="#FBFAF8" opacity="1.000000" stroke="none" 
	d="
M104.019600,60.961609 
	C104.505402,62.790638 104.991203,64.619667 104.777222,66.717834 
	C99.062859,66.981979 94.048286,66.976982 88.901787,66.707489 
	C88.486824,65.924744 88.203789,65.406487 87.920753,64.888229 
	C87.920753,64.888229 87.819725,64.442673 88.164536,63.989861 
	C90.376907,62.997505 92.244469,62.457962 94.530464,61.930206 
	C96.624466,61.937862 98.300034,61.933727 100.338890,61.950134 
	C101.807983,61.634323 102.913795,61.297966 104.019600,60.961609 
z"/>
<path fill="#F9EEEC" opacity="1.000000" stroke="none" 
	d="
M119.739655,70.333801 
	C120.028725,69.993904 120.317795,69.653999 120.874863,69.112823 
	C121.142860,68.911545 121.601288,69.032005 121.831543,69.478638 
	C123.041534,70.029076 124.021278,70.132881 125.001022,70.236687 
	C125.650558,69.053238 126.300095,67.869789 127.409119,66.808914 
	C127.944916,67.571426 128.021225,68.211357 128.079987,69.196655 
	C128.373856,70.359695 128.685287,71.177368 128.999817,72.391945 
	C129.015503,73.844810 129.028107,74.900780 128.850922,76.132309 
	C128.759232,77.107758 128.857361,77.907646 128.709900,78.776169 
	C127.998161,79.032547 127.531990,79.220276 127.065826,79.407997 
	C125.724205,76.547028 124.405853,74.953812 120.875076,77.392708 
	C119.234421,78.525986 116.251274,77.715736 113.547256,77.424629 
	C113.129890,76.679390 113.041969,76.296051 112.930206,75.940353 
	C112.906349,75.967995 112.943481,76.032585 113.332794,76.101921 
	C119.161064,77.834442 119.161064,77.834442 119.739655,70.333801 
z"/>
<path fill="#FBFAF8" opacity="1.000000" stroke="none" 
	d="
M61.993958,77.923172 
	C61.136196,77.780945 60.278435,77.638725 59.258080,76.906296 
	C61.209606,73.138771 58.521770,71.313828 57.511360,69.111404 
	C60.288353,69.080429 62.628334,69.077599 65.047211,69.361389 
	C65.735298,70.075874 66.344482,70.503738 67.001343,71.145599 
	C67.234299,71.544533 67.419571,71.729477 67.604851,71.914413 
	C67.771233,71.537666 67.937607,71.160912 68.103981,70.784164 
	C68.531990,70.855461 68.959991,70.926758 69.828445,71.305397 
	C70.515625,72.072968 70.762360,72.533188 71.004570,72.996712 
	C71.000046,73.000008 70.993507,73.009087 70.653656,73.161819 
	C67.944214,75.579529 62.880169,72.980263 61.993958,77.923172 
z"/>
<path fill="#F5C9CB" opacity="1.000000" stroke="none" 
	d="
M148.639587,66.692696 
	C148.639587,66.692696 148.802643,66.485374 149.018951,66.822861 
	C149.494690,67.439804 149.754120,67.719254 150.013535,67.998703 
	C150.984467,79.938988 150.984467,79.942108 139.336731,79.948082 
	C137.183945,79.949188 135.031128,79.913673 132.458740,79.534302 
	C132.359558,78.781815 132.679962,78.390091 133.331833,77.999405 
	C134.105225,77.995247 134.547165,77.990044 135.429443,77.998329 
	C137.924454,77.993439 139.979095,77.975060 142.379822,77.927353 
	C149.645691,76.741890 150.420044,75.434166 147.620026,69.003929 
	C146.491760,69.042953 145.739944,69.075134 144.731659,69.078720 
	C144.307114,69.013458 144.139038,68.976791 144.115143,68.580040 
	C145.719391,67.710869 147.179489,67.201782 148.639587,66.692696 
z"/>
<path fill="#F5CFCE" opacity="1.000000" stroke="none" 
	d="
M99.975601,61.929588 
	C98.300034,61.933727 96.624466,61.937862 94.733070,61.687645 
	C94.340668,60.251877 94.566505,58.383247 93.919861,58.004585 
	C90.616203,56.070011 89.436134,59.063335 87.881699,61.045620 
	C88.067169,58.648808 88.252640,56.251995 88.762871,53.868095 
	C89.392906,54.578556 89.808250,55.905540 89.986115,55.874439 
	C91.458611,55.616951 92.887161,55.108181 94.506767,54.622101 
	C95.774834,54.983963 97.505119,55.477726 99.623222,56.299183 
	C99.999229,58.394447 99.987411,60.162018 99.975601,61.929588 
z"/>
<path fill="#F7B4B4" opacity="1.000000" stroke="none" 
	d="
M148.243530,66.461884 
	C147.179489,67.201782 145.719391,67.710869 143.751892,68.607803 
	C142.517899,69.037369 141.791290,69.079079 140.633072,69.071472 
	C138.463394,69.026497 136.725357,69.030830 134.561218,69.016541 
	C132.429260,69.014565 130.723373,69.031219 128.789154,68.991013 
	C128.560822,68.934166 128.097549,68.851288 128.097549,68.851288 
	C128.021225,68.211357 127.944916,67.571426 127.756691,66.701492 
	C134.379013,66.391350 141.113235,66.311218 148.243530,66.461884 
z"/>
<path fill="#F6DCDD" opacity="1.000000" stroke="none" 
	d="
M58.716331,116.389938 
	C59.424061,117.616302 59.816807,118.979683 60.176895,120.229706 
	C55.807003,122.190758 51.520203,124.114525 46.891151,126.053413 
	C50.499718,122.888008 54.450531,119.707481 58.716331,116.389938 
z"/>
<path fill="#FAF6F5" opacity="1.000000" stroke="none" 
	d="
M71.009094,72.993416 
	C70.762360,72.533188 70.515625,72.072968 70.144531,71.383026 
	C70.020172,71.153313 70.431007,70.987343 70.646393,70.933594 
	C74.755234,70.882545 73.613708,73.860939 73.959488,76.400116 
	C72.309502,76.525482 70.589012,76.252716 68.483391,76.025658 
	C67.904900,76.049332 67.711540,76.027298 66.905479,76.013412 
	C65.530098,76.346230 64.767403,76.670883 64.004715,76.995544 
	C63.527676,77.294106 63.050629,77.592659 62.283772,77.907196 
	C62.880169,72.980263 67.944214,75.579529 70.696594,73.241951 
	C71.079384,73.169350 71.294609,73.181099 71.294609,73.181099 
	C71.294609,73.181099 71.009094,72.993416 71.009094,72.993416 
z"/>
<path fill="#FADFE3" opacity="1.000000" stroke="none" 
	d="
M87.759125,61.408237 
	C89.436134,59.063335 90.616203,56.070011 93.919861,58.004585 
	C94.566505,58.383247 94.340668,60.251877 94.314636,61.675858 
	C92.244469,62.457962 90.376907,62.997505 88.227402,63.770248 
	C87.842491,63.259251 87.739517,62.515053 87.759125,61.408237 
z"/>
<path fill="#FADFE3" opacity="1.000000" stroke="none" 
	d="
M100.338890,61.950134 
	C99.987411,60.162018 99.999229,58.394447 100.004868,56.294048 
	C100.174973,55.632111 100.351250,55.302998 100.527527,54.973888 
	C100.669067,55.188671 100.810616,55.403454 101.193817,56.029350 
	C102.291115,56.282806 103.146759,56.125156 104.002411,55.967506 
	C104.018394,55.793072 104.034386,55.618637 104.464752,55.179817 
	C105.399887,54.881268 105.920647,54.847092 106.441406,54.812920 
	C106.523369,55.368351 106.605339,55.923786 106.650803,56.766762 
	C105.851166,58.189457 105.088036,59.324608 104.172256,60.710686 
	C102.913795,61.297966 101.807983,61.634323 100.338890,61.950134 
z"/>
<path fill="#F1A6A7" opacity="1.000000" stroke="none" 
	d="
M64.968315,69.074783 
	C62.628334,69.077599 60.288353,69.080429 57.102631,69.045990 
	C55.159828,69.030586 54.062759,69.052460 52.604687,69.044899 
	C51.522289,68.958229 50.800900,68.900986 50.079510,68.843742 
	C53.099964,68.567757 56.128292,68.356674 59.137959,67.991707 
	C60.977631,67.768631 62.788631,67.309097 64.771675,66.613472 
	C65.723297,66.699898 66.515762,67.128616 66.884430,67.858276 
	C65.963203,68.464417 65.465759,68.769600 64.968315,69.074783 
z"/>
<path fill="#F6DCDD" opacity="1.000000" stroke="none" 
	d="
M43.744823,128.195923 
	C43.975037,128.865234 43.905235,129.629547 43.837376,130.372635 
	C45.883091,130.239059 47.800880,130.113846 50.065487,130.083160 
	C47.650436,130.815582 44.888565,131.453445 42.126698,132.091309 
	C41.950207,131.672806 41.773716,131.254318 41.597229,130.835815 
	C42.213089,129.987534 42.828949,129.139236 43.744823,128.195923 
z"/>
<path fill="#F8E6E5" opacity="1.000000" stroke="none" 
	d="
M133.000366,77.998375 
	C132.679962,78.390091 132.359558,78.781815 131.998856,79.427971 
	C131.521439,79.731293 131.084320,79.780174 130.178207,79.573196 
	C129.468185,79.101448 129.216949,78.898178 128.955490,78.707527 
	C128.857361,77.907646 128.759232,77.107758 129.209991,76.153114 
	C130.839371,76.665024 131.919876,77.331703 133.000366,77.998375 
z"/>
<path fill="#E12C37" opacity="1.000000" stroke="none" 
	d="
M112.954056,75.912712 
	C113.041969,76.296051 113.129890,76.679390 113.177200,77.355759 
	C111.580612,78.144302 110.024628,78.639809 108.222908,79.057365 
	C107.977173,78.979408 108.018921,78.493073 108.276901,78.028793 
	C110.007935,77.013908 111.480995,76.463310 112.954056,75.912712 
z"/>
<path fill="#F6DCDD" opacity="1.000000" stroke="none" 
	d="
M54.321598,128.836578 
	C55.748165,127.569382 57.512184,126.279961 59.634064,124.994980 
	C58.214298,126.271057 56.436676,127.542709 54.321598,128.836578 
z"/>
<path fill="#F6DCDD" opacity="1.000000" stroke="none" 
	d="
M63.561234,122.449921 
	C63.107094,120.649185 62.971718,118.754570 62.836338,116.859962 
	C63.173435,116.780998 63.510532,116.702034 63.847630,116.623062 
	C64.406059,117.713478 64.964493,118.803894 65.811829,119.971382 
	C65.360489,120.817650 64.620239,121.586845 63.561234,122.449921 
z"/>
<path fill="#F8E6E5" opacity="1.000000" stroke="none" 
	d="
M71.489838,115.173508 
	C70.064964,114.527832 68.850800,113.849442 67.636642,113.171059 
	C69.058151,114.172867 71.515587,109.530304 72.169167,114.161377 
	C72.115082,114.750816 71.977760,114.986557 71.489838,115.173508 
z"/>
<path fill="#F8E6E5" opacity="1.000000" stroke="none" 
	d="
M94.924950,39.350456 
	C95.039330,40.510227 94.996773,42.009426 94.928711,43.859276 
	C94.858147,42.703243 94.813080,41.196564 94.924950,39.350456 
z"/>
<path fill="#F5CFCE" opacity="1.000000" stroke="none" 
	d="
M87.751770,65.119675 
	C88.203789,65.406487 88.486824,65.924744 88.698792,66.920311 
	C88.087502,67.596588 87.547264,67.795547 86.872032,67.759430 
	C86.408844,67.092865 86.080666,66.661377 85.752480,66.229889 
	C85.752480,66.229889 85.928360,66.062805 86.016022,65.978958 
	C86.596718,65.713783 87.089760,65.532448 87.751770,65.119675 
z"/>
<path fill="#F5CFCE" opacity="1.000000" stroke="none" 
	d="
M106.323418,54.488441 
	C105.920647,54.847092 105.399887,54.881268 104.489944,54.918285 
	C103.789764,54.446980 103.478760,53.972828 103.099731,53.223396 
	C104.089622,53.353405 105.147522,53.758686 106.323418,54.488441 
z"/>
<path fill="#FADFE3" opacity="1.000000" stroke="none" 
	d="
M65.047211,69.361397 
	C65.465759,68.769600 65.963203,68.464417 66.747513,68.104904 
	C67.078003,68.420067 67.121635,68.789574 67.102234,69.742096 
	C67.010689,70.527275 66.982185,70.729439 66.953674,70.931602 
	C66.344482,70.503738 65.735298,70.075874 65.047211,69.361397 
z"/>
<path fill="#F1A6A7" opacity="1.000000" stroke="none" 
	d="
M49.623096,66.170914 
	C48.726994,66.422279 47.449280,66.583115 45.782181,66.618607 
	C46.675690,66.355629 47.958588,66.218002 49.623096,66.170914 
z"/>
<path fill="#F5CFCE" opacity="1.000000" stroke="none" 
	d="
M124.698502,70.130234 
	C124.021278,70.132881 123.041534,70.029076 122.000534,69.644806 
	C122.758171,69.584145 123.577080,69.803955 124.698502,70.130234 
z"/>
<path fill="#F5C9CB" opacity="1.000000" stroke="none" 
	d="
M128.709900,78.776169 
	C129.216949,78.898178 129.468185,79.101448 129.852631,79.510780 
	C129.233948,79.747635 128.471832,79.791046 127.387772,79.621231 
	C127.531990,79.220276 127.998161,79.032547 128.709900,78.776169 
z"/>
<path fill="#FAF6F5" opacity="1.000000" stroke="none" 
	d="
M67.001343,71.145599 
	C66.982185,70.729439 67.010689,70.527275 67.068024,70.020287 
	C67.386864,69.902473 67.676872,70.089485 68.035431,70.530334 
	C67.937607,71.160912 67.771233,71.537666 67.604851,71.914413 
	C67.419571,71.729477 67.234299,71.544533 67.001343,71.145599 
z"/>
<path fill="#F6DCDD" opacity="1.000000" stroke="none" 
	d="
M61.370590,124.191368 
	C61.467430,123.840790 61.843582,123.454720 62.495224,123.020683 
	C62.397110,123.367104 62.023506,123.761490 61.370590,124.191368 
z"/>
<path fill="#F6DCDD" opacity="1.000000" stroke="none" 
	d="
M61.823162,113.672150 
	C61.770603,113.988213 61.481956,114.379593 60.947250,114.829506 
	C60.996487,114.507851 61.291782,114.127655 61.823162,113.672150 
z"/>
<path fill="#F1A6A7" opacity="1.000000" stroke="none" 
	d="
M59.677666,66.191650 
	C59.452682,66.400101 58.898552,66.508965 58.174484,66.458595 
	C58.452538,66.230263 58.900528,66.161163 59.677666,66.191650 
z"/>
<path fill="#F5CFCE" opacity="1.000000" stroke="none" 
	d="
M120.701553,44.099552 
	C120.726875,44.486565 120.496086,45.038731 119.990303,45.735649 
	C119.958687,45.341839 120.202065,44.803272 120.701553,44.099552 
z"/>
<path fill="#F6DCDD" opacity="1.000000" stroke="none" 
	d="
M44.767891,127.282204 
	C44.914623,127.540520 44.751564,127.754669 44.306416,127.970741 
	C44.103958,127.704369 44.248550,127.459496 44.767891,127.282204 
z"/>
<path fill="#F6DCDD" opacity="1.000000" stroke="none" 
	d="
M52.265182,129.731110 
	C52.202213,129.430023 52.458748,129.243958 53.022106,129.129242 
	C53.014713,129.324585 52.766628,129.539749 52.265182,129.731110 
z"/>
<path fill="#F8E6E5" opacity="1.000000" stroke="none" 
	d="
M70.346802,116.113571 
	C70.307785,115.912094 70.541161,115.641144 71.029953,115.274033 
	C71.063309,115.466614 70.841255,115.755363 70.346802,116.113571 
z"/>
<path fill="#F5CFCE" opacity="1.000000" stroke="none" 
	d="
M115.365311,52.508797 
	C115.476852,52.718517 115.332634,53.091389 114.918594,53.613945 
	C114.802368,53.399738 114.955956,53.035843 115.365311,52.508797 
z"/>
<path fill="#F5CFCE" opacity="1.000000" stroke="none" 
	d="
M76.156975,48.568253 
	C75.921898,48.584831 75.643814,48.294662 75.330025,47.697285 
	C75.567528,47.680557 75.840752,47.971031 76.156975,48.568253 
z"/>
<path fill="#F5CFCE" opacity="1.000000" stroke="none" 
	d="
M76.942184,49.734383 
	C76.628609,49.850693 76.398796,49.616718 76.199417,49.057354 
	C76.412758,49.030342 76.678116,49.247719 76.942184,49.734383 
z"/>
<path fill="#F1A6A7" opacity="1.000000" stroke="none" 
	d="
M62.758713,66.192322 
	C63.017368,66.265396 62.658623,66.556084 62.658623,66.556084 
	C62.658623,66.556084 62.202831,66.519356 62.095638,66.401787 
	C62.158985,66.229225 62.329525,66.174232 62.758713,66.192322 
z"/>
<path fill="#F5CFCE" opacity="1.000000" stroke="none" 
	d="
M117.671875,48.932755 
	C117.897591,49.178581 117.763252,49.474365 117.310928,49.859936 
	C117.213448,49.679268 117.319748,49.356930 117.671875,48.932755 
z"/>
<path fill="#DB1E28" opacity="1.000000" stroke="none" 
	d="
M67.139473,80.079178 
	C67.001892,79.988808 67.328362,79.640350 67.557816,79.574448 
	C67.828690,79.918625 67.658615,80.138954 67.139473,80.079178 
z"/>
<path fill="#F7B4B4" opacity="1.000000" stroke="none" 
	d="
M149.994141,67.682053 
	C149.754120,67.719254 149.494690,67.439804 149.132660,66.889679 
	C149.344940,66.867813 149.659836,67.116608 149.994141,67.682053 
z"/>
<path fill="#F5CFCE" opacity="1.000000" stroke="none" 
	d="
M78.179001,51.590385 
	C77.930466,51.629150 77.647270,51.358376 77.291451,50.797874 
	C77.527336,50.765713 77.835846,51.023277 78.179001,51.590385 
z"/>
<path fill="#F5CFCE" opacity="1.000000" stroke="none" 
	d="
M116.510391,50.710354 
	C116.626175,50.923538 116.467537,51.282692 116.065285,51.817017 
	C115.959763,51.613564 116.097862,51.234943 116.510391,50.710354 
z"/>
<path fill="#F6DCDD" opacity="1.000000" stroke="none" 
	d="
M87.007034,67.994507 
	C87.547264,67.795547 88.087502,67.596588 88.830719,67.184799 
	C94.048286,66.976982 99.062859,66.981979 104.545837,66.999069 
	C106.675285,67.026909 108.358826,66.879448 109.991028,67.104431 
	C111.612495,67.327934 113.182335,67.926041 114.745392,68.801422 
	C114.715965,69.242973 114.378983,69.208046 114.143494,69.109421 
	C113.472603,69.036049 113.037201,69.061302 112.601807,69.086555 
	C112.866257,69.443092 113.130714,69.799622 113.607689,70.443100 
	C113.527969,72.497559 113.235725,74.265068 112.943481,76.032585 
	C112.943481,76.032585 112.906349,75.967995 112.930199,75.940353 
	C111.480995,76.463310 110.007935,77.013908 108.274857,77.784744 
	C107.053894,77.221489 106.092957,76.438004 105.194504,75.029701 
	C106.258377,70.816261 103.759506,71.117134 101.577423,71.121529 
	C98.345413,71.128036 95.104263,71.338867 91.884285,71.156891 
	C89.000992,70.993935 88.013390,72.357170 88.014664,74.938019 
	C88.554176,75.477394 89.093681,76.016762 89.816650,76.778015 
	C90.000107,76.999901 89.995407,77.007111 89.995407,77.007111 
	C88.868698,77.251709 87.741997,77.496307 86.293625,77.877869 
	C83.715714,77.555031 81.459480,77.095215 79.118690,76.618172 
	C79.218285,75.369225 79.396942,73.128731 79.644638,70.535736 
	C79.713676,70.183235 80.016495,69.984535 80.432076,69.763962 
	C82.900787,69.027092 84.953911,68.510803 87.007034,67.994507 
z"/>
<path fill="#FAF6F5" opacity="1.000000" stroke="none" 
	d="
M88.416229,74.954208 
	C88.013390,72.357170 89.000992,70.993935 91.884285,71.156891 
	C95.104263,71.338867 98.345413,71.128036 101.577423,71.121529 
	C103.759506,71.117134 106.258377,70.816261 105.126556,74.719208 
	C99.603348,75.012474 94.210564,74.991432 88.416229,74.954208 
z"/>
<path fill="#F6DCDD" opacity="1.000000" stroke="none" 
	d="
M90.003418,76.996719 
	C90.305725,77.161911 90.604729,77.330276 90.903732,77.498650 
	C90.672089,77.439102 90.440445,77.379555 90.102104,77.163559 
	C89.995407,77.007111 90.000107,76.999901 90.003418,76.996719 
z"/>
<path fill="#F8E6E5" opacity="1.000000" stroke="none" 
	d="
M72.591454,109.028671 
	C72.200211,108.889175 71.953720,108.616776 71.707230,108.344383 
	C71.914612,108.180328 72.122002,108.016273 72.329391,107.852226 
	C72.464996,108.200073 72.600601,108.547920 72.591454,109.028671 
z"/>
<path fill="#F6DCDD" opacity="1.000000" stroke="none" 
	d="
M52.345634,125.733002 
	C52.283562,126.057724 52.100544,126.253265 51.917526,126.448814 
	C51.813614,126.338005 51.709698,126.227196 51.605778,126.116394 
	C51.812080,125.945534 52.018383,125.774673 52.345634,125.733002 
z"/>
<path fill="#DC0D13" opacity="1.000000" stroke="none" 
	d="
M75.485214,83.471985 
	C75.513062,83.460358 75.457375,83.483604 75.485214,83.471985 
z"/>
<path fill="#DC0D13" opacity="1.000000" stroke="none" 
	d="
M80.489044,81.482208 
	C80.514587,81.471024 80.463509,81.493385 80.489044,81.482208 
z"/>
<path fill="#DC0D13" opacity="1.000000" stroke="none" 
	d="
M77.513199,80.520096 
	C77.485611,80.532196 77.540779,80.507988 77.513199,80.520096 
z"/>
<path fill="#FAF6F5" opacity="1.000000" stroke="none" 
	d="
M86.872032,67.759430 
	C84.953911,68.510803 82.900787,69.027092 80.570595,69.647301 
	C79.824982,65.737030 82.529793,65.769432 85.511642,66.038956 
	C86.080666,66.661377 86.408844,67.092865 86.872032,67.759430 
z"/>
<path fill="#F5CFCE" opacity="1.000000" stroke="none" 
	d="
M103.628830,55.980137 
	C103.146759,56.125156 102.291115,56.282806 101.225281,56.236565 
	C101.761810,56.019367 102.508530,56.006065 103.628830,55.980137 
z"/>
<path fill="#FAF6F5" opacity="1.000000" stroke="none" 
	d="
M49.769039,68.998367 
	C50.800900,68.900986 51.522289,68.958229 52.559242,69.379486 
	C53.787193,71.203125 54.699589,72.662750 55.195374,73.455902 
	C54.235558,74.263367 52.616699,75.625267 50.997841,76.987160 
	C44.549324,76.900948 44.519371,76.864616 45.360977,69.812454 
	C46.671127,69.601601 48.064850,69.377296 49.769039,68.998367 
z"/>
<path fill="#FADFE3" opacity="1.000000" stroke="none" 
	d="
M51.244175,77.216431 
	C52.616699,75.625267 54.235558,74.263367 55.195374,73.455902 
	C54.699589,72.662750 53.787193,71.203125 52.920250,69.408913 
	C54.062759,69.052460 55.159828,69.030586 56.665619,69.074127 
	C58.521770,71.313828 61.209606,73.138771 59.012104,76.684746 
	C56.449314,77.184174 53.969913,77.314941 51.244175,77.216431 
z"/>
<path fill="#FBFAF8" opacity="1.000000" stroke="none" 
	d="
M64.332764,77.004196 
	C64.767403,76.670883 65.530098,76.346230 66.613586,76.009094 
	C66.934380,75.996628 66.882805,76.491646 66.645508,76.745155 
	C66.408218,76.998665 65.973686,77.011757 65.973686,77.011757 
	C65.536064,77.012115 65.098442,77.012482 64.332764,77.004196 
z"/>
<path fill="#FAF6F5" opacity="1.000000" stroke="none" 
	d="
M66.005341,77.219284 
	C65.973686,77.011757 66.408218,76.998665 66.624191,76.993088 
	C66.722198,77.342758 66.604225,77.697990 66.486259,78.053230 
	C66.336502,77.844429 66.186752,77.635620 66.005341,77.219284 
z"/>
<path fill="#E12C37" opacity="1.000000" stroke="none" 
	d="
M114.378983,69.208046 
	C114.378983,69.208046 114.715965,69.242973 114.863846,69.160324 
	C116.381477,69.376236 117.751228,69.674797 119.430313,70.153580 
	C119.161064,77.834442 119.161064,77.834442 113.332794,76.101921 
	C113.235725,74.265068 113.527969,72.497559 113.854004,70.393494 
	C114.051529,69.773972 114.215256,69.491005 114.378983,69.208046 
z"/>
<path fill="#FBFAF8" opacity="1.000000" stroke="none" 
	d="
M133.331833,77.999405 
	C131.919876,77.331703 130.839371,76.665024 129.399796,75.977554 
	C129.028107,74.900780 129.015503,73.844810 129.004333,72.023300 
	C129.009674,70.521126 129.013580,69.784492 129.017487,69.047867 
	C130.723373,69.031219 132.429260,69.014565 134.564819,69.462128 
	C134.992676,72.612503 134.990891,75.298676 134.989090,77.984840 
	C134.547165,77.990044 134.105225,77.995247 133.331833,77.999405 
z"/>
<path fill="#F8E6E5" opacity="1.000000" stroke="none" 
	d="
M128.789154,68.991013 
	C129.013580,69.784492 129.009674,70.521126 129.001221,71.626404 
	C128.685287,71.177368 128.373856,70.359695 128.079987,69.196655 
	C128.097549,68.851288 128.560822,68.934166 128.789154,68.991013 
z"/>
<path fill="#F8E6E5" opacity="1.000000" stroke="none" 
	d="
M135.429443,77.998329 
	C134.990891,75.298676 134.992676,72.612503 134.990891,69.480759 
	C136.725357,69.030830 138.463394,69.026497 140.722916,69.402893 
	C141.507507,72.507980 141.770615,75.232330 142.033737,77.956680 
	C139.979095,77.975060 137.924454,77.993439 135.429443,77.998329 
z"/>
<path fill="#FBFAF8" opacity="1.000000" stroke="none" 
	d="
M142.379822,77.927353 
	C141.770615,75.232330 141.507507,72.507980 141.154541,69.452209 
	C141.791290,69.079079 142.517899,69.037369 143.607727,68.967888 
	C144.139038,68.976791 144.307114,69.013458 144.950989,69.266205 
	C146.283325,69.320541 147.139893,69.158813 147.996460,68.997078 
	C150.420044,75.434166 149.645691,76.741890 142.379822,77.927353 
z"/>
<path fill="#F8E6E5" opacity="1.000000" stroke="none" 
	d="
M147.620026,69.003929 
	C147.139893,69.158813 146.283325,69.320541 145.207443,69.294785 
	C145.739944,69.075134 146.491760,69.042953 147.620026,69.003929 
z"/>
<path fill="#FBFAF8" opacity="1.000000" stroke="none" 
	d="
M71.004570,72.996712 
	C71.009094,72.993416 71.294609,73.181099 71.294609,73.181099 
	C71.294609,73.181099 71.079384,73.169350 71.036446,73.089218 
	C70.993507,73.009087 71.000046,73.000008 71.004570,72.996712 
z"/>
<path fill="#F5CFCE" opacity="1.000000" stroke="none" 
	d="
M114.143486,69.109421 
	C114.215256,69.491005 114.051529,69.773972 113.641479,70.106552 
	C113.130714,69.799622 112.866257,69.443092 112.601807,69.086555 
	C113.037201,69.061302 113.472603,69.036049 114.143486,69.109421 
z"/>
</svg>