<svg version="1.1" id="Layer_1" xmlns="http://www.w3.org/2000/svg" xmlns:xlink="http://www.w3.org/1999/xlink" x="0px" y="0px"
	 width="100%" viewBox="0 0 640 427" enable-background="new 0 0 640 427" xml:space="preserve">
<path fill="#FFFFFE" opacity="1.000000" stroke="none" 
	d="
M641.000000,46.000000 
	C641.000000,53.020947 641.000000,60.041897 640.539673,67.630005 
	C637.914185,68.215256 635.748901,68.249115 633.583679,68.249153 
	C492.314301,68.251648 351.044922,68.251404 209.775543,68.251404 
	C207.669098,68.251404 205.562668,68.251404 203.407776,68.251404 
	C203.407776,76.166550 203.407776,83.390190 203.407776,90.959198 
	C205.908356,90.959198 208.052002,90.959023 210.195633,90.959221 
	C353.797089,90.972801 497.398529,90.986404 641.000000,91.000000 
	C641.000000,98.020950 641.000000,105.041893 640.537231,112.614212 
	C494.537537,113.165581 349.000519,113.165581 203.409821,113.165581 
	C203.409821,121.128326 203.409821,128.351486 203.409821,135.931961 
	C205.747971,135.931961 207.721802,135.931961 209.695648,135.931961 
	C310.483643,135.931961 411.271637,135.925369 512.059631,135.935059 
	C555.039734,135.939178 598.019897,135.977325 641.000000,136.000000 
	C641.000000,143.020950 641.000000,150.041901 640.535156,157.597809 
	C494.534485,158.132782 348.998657,158.132782 203.411514,158.132782 
	C203.411514,166.086472 203.411514,173.308762 203.411514,180.900986 
	C205.916290,180.900986 208.055664,180.900986 210.195023,180.900986 
	C351.632141,180.900986 493.069275,180.900543 634.506409,180.905090 
	C636.670959,180.905167 638.835449,180.966995 641.000000,181.000000 
	C641.000000,188.020950 641.000000,195.041901 640.533691,202.583084 
	C492.161682,203.162445 344.256042,203.228897 196.350403,203.277237 
	C133.223267,203.297867 70.096123,203.283249 6.968988,203.268906 
	C4.979305,203.268448 2.989662,203.093567 1.000000,203.000000 
	C1.000000,135.700790 1.000000,68.401573 1.000000,1.051183 
	C214.333328,1.051183 427.666656,1.051183 641.000000,1.051183 
	C641.000000,8.069515 641.000000,15.065975 640.543030,22.647736 
	C637.920898,23.255001 635.755798,23.296152 633.590637,23.296198 
	C492.320221,23.299231 351.049835,23.298939 209.779419,23.298939 
	C207.670319,23.298939 205.561234,23.298939 203.403778,23.298939 
	C203.403778,31.208786 203.403778,38.434155 203.403778,46.000000 
	C349.509521,46.000000 495.254761,46.000000 641.000000,46.000000 
M176.544189,75.400139 
	C176.844376,75.249908 177.096130,75.041245 177.496902,74.699623 
	C177.496902,74.699623 177.674225,74.585228 178.154205,74.365860 
	C178.551224,74.037209 178.948242,73.708557 179.004593,73.342834 
	C179.004593,73.342834 179.342590,73.406876 179.994705,73.174744 
	C183.720062,70.788055 187.445419,68.401367 191.170761,66.014679 
	C190.921188,65.567902 190.671600,65.121132 190.422028,64.674362 
	C175.612747,67.862129 160.803482,71.049896 145.288651,74.389542 
	C146.452484,72.150558 147.261978,70.593269 148.008743,69.001190 
	C148.008743,69.001190 148.039764,69.065895 148.598145,68.770256 
	C149.091263,67.861732 149.584381,66.953209 150.017456,65.994728 
	C150.017456,65.994728 150.048843,66.066208 150.656357,65.789627 
	C151.265518,64.848129 151.874680,63.906639 152.785507,62.889896 
	C152.965698,62.735149 153.016464,62.545719 153.402618,61.789062 
	C154.625748,59.870808 155.848862,57.952553 157.008835,56.001392 
	C157.008835,56.001392 157.039429,56.065678 157.596283,55.768192 
	C158.089981,54.860317 158.583664,53.952442 159.016098,52.994495 
	C159.016098,52.994495 159.050995,53.065441 159.663345,52.779049 
	C160.481277,51.214794 161.299210,49.650536 162.017380,47.991386 
	C162.017380,47.991386 162.103867,48.097221 162.791901,48.108002 
	C167.325775,41.606590 171.859634,35.105179 176.393509,28.603771 
	C176.033051,28.325209 175.672607,28.046644 175.312149,27.768082 
	C168.206177,32.843533 161.100189,37.918983 153.331924,43.134186 
	C151.192520,44.726688 149.053131,46.319191 146.272293,48.062859 
	C144.704041,49.213703 143.135803,50.364548 140.974548,51.775616 
	C139.608521,52.807076 138.242493,53.838535 136.270447,54.993088 
	C135.486420,55.632122 134.702393,56.271156 133.249588,57.076660 
	C132.284561,57.659683 131.319550,58.242710 129.765579,59.181553 
	C133.097870,43.462765 136.291183,28.399534 139.484512,13.336303 
	C139.003922,13.195665 138.523346,13.055028 138.042770,12.914391 
	C135.846863,16.599129 133.650940,20.283867 131.522263,24.007429 
	C131.522263,24.007429 131.452103,23.959990 130.968369,24.210094 
	C130.407928,25.141212 129.847488,26.072329 128.966385,27.333593 
	C128.966385,27.333593 128.915054,27.790974 128.335983,28.195415 
	C127.899208,29.020086 127.462425,29.844757 126.778961,30.826603 
	C126.615372,30.952276 126.513397,31.116274 126.039925,31.778128 
	C125.507118,32.676159 124.974312,33.574188 124.019562,34.916145 
	C123.506485,35.790871 122.993401,36.665596 122.049881,37.969227 
	C121.555237,38.846123 121.060600,39.723019 120.114182,40.973656 
	C119.834106,41.487141 119.554031,42.000622 118.966675,42.839237 
	C118.775917,43.081432 118.666588,43.356041 118.187096,43.963081 
	C117.928085,44.437286 117.669067,44.911491 116.994133,45.838280 
	C116.474129,46.715813 115.954124,47.593349 115.013130,48.908432 
	C114.498436,49.779884 113.983742,50.651333 113.038345,51.957191 
	C112.536133,52.837406 112.033920,53.717621 110.855362,54.851513 
	C110.189461,52.487122 109.523560,50.122730 108.954094,47.480213 
	C108.954094,47.480213 108.779716,47.243050 108.711853,46.385624 
	C106.714859,35.625137 104.717865,24.864649 102.720879,14.104162 
	C102.254105,14.100629 101.787338,14.097095 101.320564,14.093562 
	C98.955086,27.142376 96.589615,40.191189 94.049469,53.476650 
	C94.049469,53.476650 94.146523,53.754303 93.969643,54.404743 
	C93.487885,54.404964 93.006119,54.405186 92.405807,54.090076 
	C92.284599,53.894382 92.122795,53.741707 91.751488,52.998817 
	C91.367416,52.470650 90.983345,51.942486 90.363663,50.920269 
	C90.021408,50.509293 89.679146,50.098320 89.245193,49.246922 
	C89.133408,48.961777 88.962021,48.718647 88.490562,47.978561 
	C88.124329,47.527794 87.758102,47.077026 87.209465,46.047657 
	C86.638931,45.226326 86.068398,44.404995 85.268883,43.018833 
	C84.697838,42.182930 84.126793,41.347027 83.294189,39.947124 
	C82.713371,39.088303 82.132545,38.229485 81.432198,37.095600 
	C81.432198,37.095600 81.150223,36.992786 80.987160,36.304893 
	C75.859619,28.331934 70.732071,20.358974 65.604523,12.386015 
	C65.216797,12.623302 64.829071,12.860589 64.441353,13.097876 
	C67.702080,28.216652 70.962814,43.335426 74.434471,59.432198 
	C58.758789,48.610771 43.979176,38.407925 29.199558,28.205078 
	C28.866793,28.543430 28.534025,28.881783 28.201260,29.220135 
	C38.397007,44.006615 48.592758,58.793091 59.336178,74.373840 
	C43.149910,70.960503 27.894344,67.743423 12.638780,64.526352 
	C12.547681,64.892761 12.456582,65.259171 12.365484,65.625587 
	C26.600388,74.825371 40.835289,84.025162 55.890842,93.755318 
	C40.555092,96.577751 26.412359,99.180618 12.269628,101.783485 
	C12.307357,102.036842 12.345086,102.290199 12.382815,102.543564 
	C26.472565,105.115410 40.562313,107.687263 55.937874,110.493813 
	C40.716690,120.314079 26.503746,129.483856 12.290805,138.653625 
	C12.368106,139.011826 12.445406,139.370010 12.522707,139.728195 
	C27.506060,136.590790 42.489414,133.453384 57.472767,130.315979 
	C57.734127,130.692871 57.995483,131.069778 58.256844,131.446671 
	C48.136803,146.115616 38.016762,160.784576 27.896723,175.453522 
	C28.219927,175.734116 28.543131,176.014709 28.866335,176.295319 
	C43.654343,166.087021 58.442348,155.878738 74.440559,144.835052 
	C70.894043,161.234726 67.691032,176.045990 64.488014,190.857254 
	C64.886803,191.121109 65.285591,191.384979 65.684380,191.648834 
	C74.835289,177.505219 83.986191,163.361588 93.535347,148.602432 
	C94.217079,151.608383 94.714615,153.802185 95.172173,156.804977 
	C97.157227,167.570251 99.142281,178.335541 101.127335,189.100815 
	C101.684372,189.100220 102.241409,189.099640 102.798447,189.099045 
	C105.128365,176.397583 107.458275,163.696106 110.013565,150.346756 
	C110.046455,150.183548 110.060585,150.013397 110.117592,149.859100 
	C110.172836,149.709549 110.272133,149.576263 110.352074,149.435837 
	C111.253433,150.428894 112.310516,151.320724 113.032158,152.430634 
	C120.555527,164.001877 128.018707,175.612198 135.518173,187.199036 
	C136.364655,188.506851 137.331543,189.736755 138.242584,191.002792 
	C138.639313,190.850006 139.036041,190.697235 139.432770,190.544464 
	C136.278061,175.684097 133.123352,160.823730 129.720093,144.792557 
	C145.773071,155.910172 160.766495,166.293991 175.759933,176.677811 
	C176.043488,176.427032 176.327042,176.176254 176.610596,175.925461 
	C173.462372,171.555939 170.314133,167.186432 167.030075,162.958115 
	C167.030075,162.958115 167.193665,162.851624 167.025681,162.186676 
	C160.066559,151.989761 153.107422,141.792862 146.842438,131.052689 
	C147.053268,130.848022 147.264084,130.643372 148.264618,130.514420 
	C162.306915,133.514191 176.349213,136.513977 190.391495,139.513763 
	C190.524429,139.018143 190.657349,138.522537 190.790268,138.026917 
	C176.909424,129.030518 163.028580,120.034111 148.564697,110.659821 
	C150.059723,110.175774 150.525055,110.025108 151.818100,109.944695 
	C159.251587,108.537453 166.685059,107.130211 174.998886,105.668106 
	C180.550232,104.640068 186.101578,103.612030 191.652924,102.583992 
	C191.662735,102.296059 191.672562,102.008125 191.682388,101.720184 
	C177.562225,99.101746 163.442078,96.483299 148.472549,93.707352 
	C158.276886,87.266708 167.138809,81.445137 176.027832,75.579643 
	C176.027832,75.579643 176.076263,75.560677 176.544189,75.400139 
z"/>
<path fill="#5498C6" opacity="1.000000" stroke="none" 
	d="
M1.000000,203.468628 
	C2.989662,203.093567 4.979305,203.268448 6.968988,203.268906 
	C70.096123,203.283249 133.223267,203.297867 196.350403,203.277237 
	C344.256042,203.228897 492.161682,203.162445 640.533691,203.051666 
	C641.000000,210.354248 641.000000,217.708496 640.533569,225.480347 
	C427.875641,225.889908 215.684082,225.881744 3.492512,225.879074 
	C2.661675,225.879059 1.830837,225.957947 1.000000,226.000000 
	C1.000000,218.645752 1.000000,211.291504 1.000000,203.468628 
z"/>
<path fill="#5497C6" opacity="1.000000" stroke="none" 
	d="
M1.000000,271.000000 
	C1.000000,263.645752 1.000000,256.291504 1.467330,248.507721 
	C213.958252,248.084503 425.981842,248.090988 638.005432,248.093170 
	C639.003601,248.093185 640.001831,248.032379 641.000000,248.000000 
	C641.000000,255.354248 641.000000,262.708496 640.535156,270.465515 
	C639.237610,270.857025 638.404907,270.835815 637.572266,270.835785 
	C426.877289,270.834259 216.182312,270.833832 5.487329,270.840942 
	C3.991551,270.841003 2.495776,270.944702 1.000000,271.000000 
z"/>
<path fill="#5497C6" opacity="1.000000" stroke="none" 
	d="
M1.000000,316.000000 
	C1.000000,308.645752 1.000000,301.291504 1.468031,293.495422 
	C213.958603,293.057861 425.981140,293.062195 638.003662,293.063568 
	C639.002441,293.063568 640.001221,293.022095 641.000000,293.000000 
	C641.000000,300.354248 641.000000,307.708496 640.537170,315.449158 
	C639.241821,315.821045 638.409241,315.793793 637.576721,315.793793 
	C426.878448,315.791840 216.180176,315.791260 5.481894,315.800171 
	C3.987926,315.800232 2.493964,315.930542 1.000000,316.000000 
z"/>
<path fill="#5497C6" opacity="1.000000" stroke="none" 
	d="
M641.000000,338.000000 
	C641.000000,345.354248 641.000000,352.708496 640.539673,360.433350 
	C639.246887,360.786163 638.414429,360.752838 637.581970,360.752838 
	C426.879791,360.750397 216.177643,360.749725 5.475474,360.760376 
	C3.983646,360.760437 2.491824,360.916687 1.000000,361.000000 
	C1.000000,353.645752 1.000000,346.291504 1.468436,338.484558 
	C125.019531,338.034332 248.102188,338.042419 371.184845,338.037476 
	C461.123230,338.033875 551.061584,338.013092 641.000000,338.000000 
z"/>
<path fill="#5497C6" opacity="1.000000" stroke="none" 
	d="
M641.000000,383.000000 
	C641.000000,390.354248 641.000000,397.708496 640.542908,405.415405 
	C639.253479,405.746490 638.421204,405.705994 637.588867,405.705963 
	C426.881500,405.703033 216.174133,405.702209 5.466769,405.714874 
	C3.977840,405.714966 2.488923,405.900879 1.000000,406.000000 
	C1.000000,398.645752 1.000000,391.291504 1.468648,383.471924 
	C214.958191,383.004425 427.979095,383.002228 641.000000,383.000000 
z"/>
<path fill="#FFFFFF" opacity="1.000000" stroke="none" 
	d="
M641.000000,382.531433 
	C427.979095,383.002228 214.958191,383.004425 1.468648,383.003296 
	C1.000000,375.979034 1.000000,368.958099 1.000000,361.468567 
	C2.491824,360.916687 3.983646,360.760437 5.475474,360.760376 
	C216.177643,360.749725 426.879791,360.750397 637.581970,360.752838 
	C638.414429,360.752838 639.246887,360.786163 640.539673,360.901978 
	C641.000000,368.020966 641.000000,375.041901 641.000000,382.531433 
z"/>
<path fill="#FFFFFF" opacity="1.000000" stroke="none" 
	d="
M641.000000,337.531433 
	C551.061584,338.013092 461.123230,338.033875 371.184845,338.037476 
	C248.102188,338.042419 125.019531,338.034332 1.468436,338.015930 
	C1.000000,330.979034 1.000000,323.958099 1.000000,316.468567 
	C2.493964,315.930542 3.987926,315.800232 5.481894,315.800171 
	C216.180176,315.791260 426.878448,315.791840 637.576721,315.793793 
	C638.409241,315.793793 639.241821,315.821045 640.537170,315.917786 
	C641.000000,323.020966 641.000000,330.041901 641.000000,337.531433 
z"/>
<path fill="#FFFFFF" opacity="1.000000" stroke="none" 
	d="
M641.000000,292.531433 
	C640.001221,293.022095 639.002441,293.063568 638.003662,293.063568 
	C425.981140,293.062195 213.958603,293.057861 1.468031,293.026794 
	C1.000000,285.979034 1.000000,278.958099 1.000000,271.468567 
	C2.495776,270.944702 3.991551,270.841003 5.487329,270.840942 
	C216.182312,270.833832 426.877289,270.834259 637.572266,270.835785 
	C638.404907,270.835815 639.237610,270.857025 640.535156,270.934143 
	C641.000000,278.020966 641.000000,285.041901 641.000000,292.531433 
z"/>
<path fill="#FFFFFF" opacity="1.000000" stroke="none" 
	d="
M1.000000,406.468781 
	C2.488923,405.900879 3.977840,405.714966 5.466769,405.714874 
	C216.174133,405.702209 426.881500,405.703033 637.588867,405.705963 
	C638.421204,405.705994 639.253479,405.746490 640.542908,405.884033 
	C641.000000,413.328644 641.000000,420.657257 641.000000,427.962097 
	C427.666656,427.962097 214.333328,427.962097 1.000000,427.962097 
	C1.000000,420.928680 1.000000,413.933105 1.000000,406.468781 
z"/>
<path fill="#FFFFFF" opacity="1.000000" stroke="none" 
	d="
M641.000000,247.531418 
	C640.001831,248.032379 639.003601,248.093185 638.005432,248.093170 
	C425.981842,248.090988 213.958252,248.084503 1.467330,248.039093 
	C1.000000,240.979050 1.000000,233.958099 1.000000,226.468567 
	C1.830837,225.957947 2.661675,225.879059 3.492512,225.879074 
	C215.684082,225.881744 427.875641,225.889908 640.533569,225.948975 
	C641.000000,233.020950 641.000000,240.041901 641.000000,247.531418 
z"/>
<path fill="#5497C6" opacity="1.000000" stroke="none" 
	d="
M641.000000,90.531380 
	C497.398529,90.986404 353.797089,90.972801 210.195633,90.959221 
	C208.052002,90.959023 205.908356,90.959198 203.407776,90.959198 
	C203.407776,83.390190 203.407776,76.166550 203.407776,68.251404 
	C205.562668,68.251404 207.669098,68.251404 209.775543,68.251404 
	C351.044922,68.251404 492.314301,68.251648 633.583679,68.249153 
	C635.748901,68.249115 637.914185,68.215256 640.539673,68.098587 
	C641.000000,75.354256 641.000000,82.708504 641.000000,90.531380 
z"/>
<path fill="#5497C6" opacity="1.000000" stroke="none" 
	d="
M641.000000,135.531372 
	C598.019897,135.977325 555.039734,135.939178 512.059631,135.935059 
	C411.271637,135.925369 310.483643,135.931961 209.695648,135.931961 
	C207.721802,135.931961 205.747971,135.931961 203.409821,135.931961 
	C203.409821,128.351486 203.409821,121.128326 203.409821,113.165581 
	C349.000519,113.165581 494.537537,113.165581 640.537231,113.082794 
	C641.000000,120.354248 641.000000,127.708496 641.000000,135.531372 
z"/>
<path fill="#5497C6" opacity="1.000000" stroke="none" 
	d="
M641.000000,45.531376 
	C495.254761,46.000000 349.509521,46.000000 203.403778,46.000000 
	C203.403778,38.434155 203.403778,31.208786 203.403778,23.298939 
	C205.561234,23.298939 207.670319,23.298939 209.779419,23.298939 
	C351.049835,23.298939 492.320221,23.299231 633.590637,23.296198 
	C635.755798,23.296152 637.920898,23.255001 640.543030,23.116516 
	C641.000000,30.354250 641.000000,37.708500 641.000000,45.531376 
z"/>
<path fill="#5497C6" opacity="1.000000" stroke="none" 
	d="
M641.000000,180.531372 
	C638.835449,180.966995 636.670959,180.905167 634.506409,180.905090 
	C493.069275,180.900543 351.632141,180.900986 210.195023,180.900986 
	C208.055664,180.900986 205.916290,180.900986 203.411514,180.900986 
	C203.411514,173.308762 203.411514,166.086472 203.411514,158.132782 
	C348.998657,158.132782 494.534485,158.132782 640.535156,158.066391 
	C641.000000,165.354248 641.000000,172.708496 641.000000,180.531372 
z"/>
<path fill="#87500C" opacity="1.000000" stroke="none" 
	d="
M167.165894,162.816910 
	C170.314133,167.186432 173.462372,171.555939 176.610596,175.925461 
	C176.327042,176.176254 176.043488,176.427032 175.759933,176.677811 
	C160.766495,166.293991 145.773071,155.910172 129.720093,144.792557 
	C133.123352,160.823730 136.278061,175.684097 139.432770,190.544464 
	C139.036041,190.697235 138.639313,190.850006 138.242584,191.002792 
	C137.331543,189.736755 136.364655,188.506851 135.518173,187.199036 
	C128.018707,175.612198 120.555527,164.001877 113.032158,152.430634 
	C112.310516,151.320724 111.253433,150.428894 110.352081,149.435837 
	C110.272133,149.576263 110.172836,149.709549 110.117592,149.859100 
	C110.060585,150.013397 110.046455,150.183548 109.618637,150.653625 
	C109.035706,150.946899 108.847687,150.933334 108.716873,150.482986 
	C109.398735,145.194534 110.023392,140.342896 110.703476,135.060791 
	C107.899864,135.419128 105.489655,135.727188 102.720734,136.027832 
	C101.883698,136.024429 101.405357,136.028427 100.528259,136.003357 
	C97.950180,135.675980 95.770874,135.377640 93.391312,135.051895 
	C94.426483,142.400299 95.379066,149.162430 96.051865,155.943863 
	C95.585442,155.974106 95.398796,155.985046 95.212158,155.995972 
	C94.714615,153.802185 94.217079,151.608383 93.535347,148.602432 
	C83.986191,163.361588 74.835289,177.505219 65.684380,191.648834 
	C65.285591,191.384979 64.886803,191.121109 64.488014,190.857254 
	C67.691032,176.045990 70.894043,161.234726 74.440559,144.835052 
	C58.442348,155.878738 43.654343,166.087021 28.866335,176.295319 
	C28.543131,176.014709 28.219927,175.734116 27.896723,175.453522 
	C38.016762,160.784576 48.136803,146.115616 58.256844,131.446671 
	C57.995483,131.069778 57.734127,130.692871 57.472767,130.315979 
	C42.489414,133.453384 27.506060,136.590790 12.522707,139.728195 
	C12.445406,139.370010 12.368106,139.011826 12.290805,138.653625 
	C26.503746,129.483856 40.716690,120.314079 55.937874,110.493813 
	C40.562313,107.687263 26.472565,105.115410 12.382815,102.543564 
	C12.345086,102.290199 12.307357,102.036842 12.269628,101.783485 
	C26.412359,99.180618 40.555092,96.577751 55.890842,93.755318 
	C40.835289,84.025162 26.600388,74.825371 12.365484,65.625587 
	C12.456582,65.259171 12.547681,64.892761 12.638780,64.526352 
	C27.894344,67.743423 43.149910,70.960503 59.336178,74.373840 
	C48.592758,58.793091 38.397007,44.006615 28.201260,29.220135 
	C28.534025,28.881783 28.866793,28.543430 29.199558,28.205078 
	C43.979176,38.407925 58.758789,48.610771 74.434471,59.432198 
	C70.962814,43.335426 67.702080,28.216652 64.441353,13.097876 
	C64.829071,12.860589 65.216797,12.623302 65.604523,12.386015 
	C70.732071,20.358974 75.859619,28.331934 80.724167,36.663395 
	C80.231674,37.035301 80.002174,37.048706 79.506638,36.879581 
	C77.612862,34.489868 75.985115,32.282684 74.357376,30.075499 
	C74.072571,30.285955 73.787766,30.496412 73.502960,30.706871 
	C78.922195,43.715733 84.341423,56.724594 89.760658,69.733459 
	C90.234108,69.668091 90.707550,69.602730 91.181000,69.537369 
	C91.787964,65.690750 92.394928,61.844128 93.321098,57.999039 
	C94.065361,57.997036 94.490425,57.993500 94.932472,58.396980 
	C94.404068,62.002617 93.858673,65.201233 93.164124,69.274597 
	C96.096870,68.797661 98.559563,68.397163 101.266678,67.895172 
	C101.973625,67.541199 102.436157,67.288727 102.963989,67.345802 
	C105.517654,68.171692 108.006012,68.688042 110.892715,69.287048 
	C110.541199,66.525322 110.316040,64.756325 110.385780,62.979324 
	C110.877144,62.962002 111.073601,62.952679 111.482742,63.226921 
	C112.274391,65.582977 112.853348,67.655479 113.835182,71.170166 
	C117.375534,62.609146 120.375237,55.624603 123.154510,48.553421 
	C125.568367,42.411961 127.732819,36.172470 130.007996,29.991234 
	C130.008484,30.006163 129.979553,30.013647 130.190628,29.967453 
	C130.477325,29.799702 130.642197,29.602108 130.613983,29.568993 
	C130.438385,29.362831 130.219513,29.193512 129.770020,28.870560 
	C129.321701,28.416422 129.118378,28.103701 128.915054,27.790976 
	C128.915054,27.790974 128.966385,27.333593 129.484024,27.167601 
	C131.006851,27.677633 132.012054,28.353659 133.010681,29.016800 
	C133.004120,29.003920 133.021347,29.012615 132.856094,29.080256 
	C132.614655,29.236115 132.456223,29.367056 132.476120,29.405361 
	C132.576614,29.598804 132.723526,29.768131 132.757812,30.288342 
	C127.752129,42.518074 122.842789,54.405388 117.933449,66.292702 
	C118.223289,66.490829 118.513138,66.688965 118.802979,66.887100 
	C120.870171,65.596626 122.937370,64.306160 125.053864,63.386066 
	C125.145287,64.001953 125.187401,64.247467 125.078476,64.760544 
	C122.144684,67.070145 119.361923,69.112190 116.339005,71.330467 
	C119.477150,73.345284 122.340813,75.183876 125.471161,77.193680 
	C136.058350,66.569420 146.512054,56.105736 156.905396,45.582401 
	C157.520660,44.959435 157.650391,43.856953 158.005615,42.992371 
	C158.005157,43.007126 157.975800,43.004093 158.292084,43.056160 
	C159.078934,42.732697 159.549500,42.357162 160.013580,41.995804 
	C160.007095,42.009983 159.975922,42.010399 160.234192,42.020538 
	C160.664398,42.019485 160.836334,42.008293 161.357147,42.000450 
	C162.170929,42.018604 162.635849,42.033405 163.062714,42.290676 
	C163.024658,42.533142 162.983139,43.022991 162.987427,43.006447 
	C162.991699,42.989899 163.021042,42.972359 162.751526,43.132591 
	C162.319183,43.870239 162.156342,44.447655 161.991638,45.012047 
	C161.989761,44.999023 162.013290,44.989494 161.662659,44.971859 
	C158.860657,47.160690 156.318069,49.274818 153.974045,51.589993 
	C144.895859,60.556450 135.880905,69.586937 126.745361,78.690285 
	C128.901718,81.806122 130.732605,84.451675 132.809952,87.453331 
	C135.659790,83.913628 138.101746,80.880562 140.903534,77.893082 
	C141.502441,77.957138 141.741516,77.975586 141.860077,78.311707 
	C140.286743,80.893173 138.833908,83.156975 137.381073,85.420776 
	C142.451309,84.352051 146.905334,82.670425 151.262222,80.766495 
	C158.483322,77.610939 165.641907,74.312325 173.113205,70.902634 
	C175.596893,70.817223 177.794205,70.903168 179.995758,70.994522 
	C180.000000,70.999931 180.010818,71.008324 179.887909,71.301788 
	C179.624207,72.199120 179.483398,72.803001 179.342590,73.406876 
	C179.342590,73.406876 179.004593,73.342834 178.822327,73.278900 
	C178.318115,73.671715 177.996170,74.128471 177.674225,74.585228 
	C177.674225,74.585228 177.496902,74.699623 177.114914,74.503967 
	C176.504120,74.224083 176.275299,74.139839 176.018829,74.031082 
	C175.991180,74.006577 175.932831,73.961212 175.757294,73.680946 
	C174.953033,73.457489 174.263397,73.365013 173.704498,73.593025 
	C161.145187,78.716881 148.596176,83.866089 136.065002,89.058281 
	C135.453644,89.311607 135.022507,89.999947 134.132797,90.839058 
	C140.422592,92.431076 145.623459,94.059639 151.397659,89.655945 
	C158.724899,84.067810 166.984482,79.702156 175.114655,75.037186 
	C175.591766,75.384537 175.796265,75.504059 176.000748,75.623581 
	C167.138809,81.445137 158.276886,87.266708 148.472549,93.707352 
	C163.442078,96.483299 177.562225,99.101746 191.682388,101.720184 
	C191.672562,102.008125 191.662735,102.296059 191.652924,102.583992 
	C186.101578,103.612030 180.550232,104.640068 174.529617,105.289658 
	C174.040115,104.640732 174.019882,104.370255 174.318817,104.050522 
	C175.037567,103.824844 175.439224,103.652641 175.828659,103.456154 
	C175.843765,103.448532 175.741501,103.092331 175.693680,103.092270 
	C162.593155,103.075531 149.492615,103.075951 136.183701,103.075951 
	C135.773422,105.919716 135.437408,108.248680 135.049500,110.937241 
	C140.858185,110.103439 145.914810,109.377602 150.980499,108.957352 
	C150.989838,109.466782 150.990112,109.670609 150.990402,109.874443 
	C150.525055,110.025108 150.059723,110.175774 148.564697,110.659821 
	C163.028580,120.034111 176.909424,129.030518 190.790268,138.026917 
	C190.657349,138.522537 190.524429,139.018143 190.391495,139.513763 
	C176.349213,136.513977 162.306915,133.514191 147.625458,130.342163 
	C146.452423,130.278625 145.918549,130.387344 145.384659,130.496078 
	C145.639206,130.862701 145.893753,131.229324 146.148300,131.595947 
	C153.107422,141.792862 160.066559,151.989761 166.788055,162.544464 
	C165.374649,162.432846 164.198853,161.963440 162.986603,161.156113 
	C162.626999,160.539062 162.303802,160.259949 161.990189,159.990295 
	C161.999756,159.999756 162.017303,160.020096 161.966614,159.746521 
	C161.604172,159.309921 161.292419,159.146866 160.989777,158.991882 
	C160.998917,158.999939 161.013245,159.020035 161.074066,158.650772 
	C156.733215,151.497986 152.434006,144.645096 147.901855,137.949890 
	C143.115723,130.879532 138.107513,123.959511 133.062805,116.783920 
	C131.434204,118.883842 130.224014,120.444244 128.782501,121.884003 
	C128.354446,121.481354 128.157730,121.199341 128.087463,120.592110 
	C137.234879,104.521042 135.233414,89.107323 122.579880,77.976875 
	C113.010361,69.559219 97.324150,66.465691 81.882828,76.944916 
	C81.431572,76.555984 81.219009,76.281548 81.203888,75.740402 
	C83.409531,74.118698 85.417725,72.763710 87.751862,71.188797 
	C74.392860,61.926800 61.329651,52.842434 48.211906,43.837521 
	C47.346737,43.243607 46.065510,43.255783 44.988445,42.993553 
	C44.999084,43.001057 45.014668,43.021545 45.013298,42.646614 
	C44.188000,41.838577 43.364067,41.405476 42.361214,40.716713 
	C41.008553,39.322655 39.834812,38.184254 38.661072,37.045853 
	C38.209579,37.384354 37.758087,37.722851 37.306599,38.061352 
	C38.185799,39.708603 39.065002,41.355858 40.129932,43.274979 
	C41.217781,44.035778 42.119904,44.524715 43.011414,45.006077 
	C43.000801,44.998505 42.985680,44.976898 42.924236,45.346870 
	C52.156803,59.749992 61.450809,73.783142 70.888428,88.033119 
	C72.923759,85.239540 74.465637,83.123245 76.239059,81.130951 
	C76.665421,81.541733 76.860237,81.828506 76.921646,82.429474 
	C63.363041,100.910416 71.959801,123.801277 89.574554,131.347519 
	C100.114540,135.862900 110.048401,134.080551 119.999390,128.989014 
	C120.492615,129.375641 120.732315,129.648026 120.691833,130.102051 
	C119.291512,131.165909 118.171364,132.048157 116.663307,133.235916 
	C121.439667,136.570511 125.734955,139.648438 130.110474,142.607773 
	C139.723038,149.109085 149.376175,155.550415 159.004990,162.008026 
	C158.997223,161.999817 158.978424,161.987839 159.129028,162.261993 
	C159.863358,162.696671 160.447098,162.857193 161.017365,163.007553 
	C161.003891,162.997391 160.982910,162.970978 160.945023,163.256531 
	C160.929108,163.732834 160.951080,163.923599 161.149857,164.401459 
	C164.284256,167.219452 166.725098,168.138107 167.165894,162.816910 
M42.572819,159.788940 
	C42.804344,159.266754 43.035866,158.744553 43.937382,158.106384 
	C54.651062,146.809326 65.364746,135.512268 76.271484,124.011650 
	C74.993332,122.204491 73.156792,119.607849 70.903854,116.422462 
	C61.254280,130.700943 52.064301,144.299362 42.410172,158.245300 
	C42.232952,158.785568 42.055733,159.325821 41.386265,159.915771 
	C41.114605,160.082748 40.842949,160.249725 40.571289,160.416687 
	C41.069477,160.305557 41.567665,160.194427 42.572819,159.788940 
M71.032318,30.420633 
	C70.883476,30.136065 70.734634,29.851496 70.585793,29.566927 
	C70.689384,30.071896 70.792969,30.576864 70.868530,31.937223 
	C72.486824,39.875587 74.060898,47.823307 75.737770,55.749279 
	C77.016335,61.792583 79.312431,64.122406 86.437279,66.378738 
	C81.174339,54.226799 76.127861,42.574650 71.032318,30.420633 
M137.965439,118.497139 
	C137.823441,118.475693 137.681427,118.454239 137.539429,118.432785 
	C137.643219,118.666336 137.747025,118.899887 138.000656,119.814735 
	C139.951584,122.439331 141.436447,126.684128 143.935562,127.403000 
	C153.805161,130.242004 163.992935,131.974991 174.062683,134.118225 
	C169.699036,131.175369 165.074951,129.084244 160.357864,127.229660 
	C152.998489,124.336205 145.576050,121.603134 137.965439,118.497139 
M174.032776,130.468323 
	C174.165924,130.496445 174.299057,130.524567 174.432205,130.552689 
	C174.323044,130.337845 174.213898,130.122986 173.753113,129.329300 
	C166.272186,124.448463 158.497253,119.954659 151.402618,114.565300 
	C145.644531,110.191246 140.367325,111.576492 133.563812,113.902504 
	C137.628677,115.693169 140.714828,117.170891 143.888153,118.428696 
	C153.861191,122.381729 163.867035,126.252083 174.032776,130.468323 
M74.728516,173.790466 
	C79.628456,166.307968 84.067551,158.463593 89.570930,151.454956 
	C94.156036,145.615738 92.620865,140.387360 90.246033,133.475281 
	C88.905540,136.572510 87.960052,138.621750 87.122726,140.714279 
	C82.696869,151.774780 78.298248,162.846191 73.473244,174.209320 
	C73.506950,174.623840 73.540665,175.038376 73.574379,175.452896 
	C73.763016,175.011597 73.951660,174.570312 74.728516,173.790466 
M45.808117,161.999863 
	C59.629028,152.491013 73.449944,142.982178 87.659996,133.205612 
	C84.177094,130.745941 81.626328,128.944550 78.698380,126.876793 
	C67.969231,137.607025 57.292179,148.263138 46.659870,158.963684 
	C45.876492,159.752075 45.415771,160.861053 44.478630,162.031525 
	C44.507988,162.232346 44.537346,162.433167 44.566708,162.633987 
	C44.753822,162.470749 44.940937,162.307495 45.808117,161.999863 
M112.771324,148.533936 
	C118.582085,157.541840 124.392853,166.549759 130.203613,175.557663 
	C130.536163,175.387939 130.868729,175.218216 131.201279,175.048492 
	C125.552719,161.461487 119.904160,147.874481 114.255600,134.287476 
	C113.616272,134.394470 112.976936,134.501480 112.337608,134.608475 
	C112.337608,139.040268 112.337608,143.472076 112.771324,148.533936 
M44.380291,84.123940 
	C47.582375,86.194283 51.013721,87.986473 53.936543,90.395622 
	C59.244949,94.771080 64.234947,92.260185 69.600861,89.685341 
	C56.465908,84.262329 43.330959,78.839310 30.196007,73.416290 
	C30.032234,73.786316 29.868462,74.156334 29.704689,74.526360 
	C34.381569,77.615402 39.058449,80.704437 44.380291,84.123940 
M47.342587,123.838341 
	C54.851646,120.674683 62.360706,117.511017 71.018799,113.863243 
	C63.419235,111.279808 57.609295,110.072075 52.022354,115.175964 
	C49.242626,117.715363 45.605770,119.305115 42.403870,121.396736 
	C38.597637,123.883148 34.842148,126.447227 31.064669,128.977646 
	C31.268824,129.373093 31.472977,129.768524 31.677132,130.163971 
	C36.662548,128.153122 41.647964,126.142296 47.342587,123.838341 
M64.170471,103.017632 
	C52.167461,103.017632 40.164448,103.017632 28.161436,103.017632 
	C28.151712,103.230896 28.141989,103.444153 28.132265,103.657417 
	C41.534275,106.085480 54.936283,108.513550 68.822998,111.029427 
	C68.546455,107.451515 70.104782,103.768730 64.170471,103.017632 
M172.289856,99.968269 
	C160.014755,97.707993 147.739670,95.447716 135.464569,93.187439 
	C135.024200,93.644402 134.583832,94.101364 134.143463,94.558334 
	C135.537811,96.715881 136.856827,100.683723 138.338409,100.745384 
	C150.498749,101.251541 162.689346,101.030975 174.870758,101.030975 
	C174.881332,100.760780 174.891922,100.490585 174.902496,100.220390 
	C174.287079,100.151642 173.671677,100.082886 172.289856,99.968269 
M29.970726,100.701279 
	C40.775547,100.818993 51.580162,100.964851 62.385269,101.043579 
	C68.583847,101.088745 69.179131,100.324387 68.473198,93.326622 
	C55.771339,95.605011 43.094444,97.878929 29.970726,100.701279 
M125.607559,142.051697 
	C123.310158,140.465668 121.012756,138.879623 118.715347,137.293594 
	C118.465485,137.587326 118.215614,137.881073 117.965744,138.174805 
	C122.986557,150.230560 128.007370,162.286331 133.028198,174.342087 
	C132.483353,166.739761 130.960434,159.491486 129.221024,152.295563 
	C128.422699,148.992874 127.199303,145.792938 125.607559,142.051697 
M85.551842,137.628998 
	C79.249619,140.194122 75.586601,144.412003 74.763756,151.596909 
	C73.959526,158.619308 71.878754,165.495499 70.358337,172.435883 
	C70.834259,172.590393 71.310181,172.744904 71.786102,172.899429 
	C76.487442,161.329590 81.188789,149.759766 85.551842,137.628998 
M47.632839,73.930168 
	C42.172382,72.811798 36.711922,71.693420 31.251463,70.575043 
	C31.183481,70.929489 31.115498,71.283928 31.047516,71.638374 
	C42.711895,76.471977 54.376274,81.305580 66.040657,86.139183 
	C66.427780,85.677826 66.814903,85.216469 67.202026,84.755112 
	C64.352043,81.879570 61.893578,78.353470 58.530949,76.329765 
	C55.729473,74.643784 51.866978,74.720802 47.632839,73.930168 
M50.213985,124.776558 
	C44.004402,127.315598 37.794819,129.854645 31.585234,132.393692 
	C32.437477,133.200424 33.156551,133.317520 33.824589,133.182358 
	C40.651718,131.800980 47.414318,129.795334 54.307430,129.130737 
	C61.288860,128.457626 63.757572,123.613785 67.609535,117.506706 
	C61.173946,120.180847 56.039127,122.314484 50.213985,124.776558 
M28.813406,130.780136 
	C29.060457,130.698212 29.307510,130.616302 29.554564,130.534393 
	C29.216272,130.509644 28.877979,130.484894 28.813406,130.780136 
M42.525543,163.678726 
	C42.525543,163.678726 42.640701,163.478821 42.640701,163.478821 
	C42.640701,163.478821 42.404572,163.507721 42.525543,163.678726 
M58.005337,130.561386 
	C58.202061,130.633087 58.398781,130.704803 58.595501,130.776505 
	C58.534470,130.574615 58.473434,130.372742 58.005337,130.561386 
z"/>
<path fill="#C3A110" opacity="1.000000" stroke="none" 
	d="
M140.543686,77.847488 
	C138.101746,80.880562 135.659790,83.913628 132.809952,87.453331 
	C130.732605,84.451675 128.901718,81.806122 126.745361,78.690285 
	C135.880905,69.586937 144.895859,60.556450 153.974045,51.589993 
	C156.318069,49.274818 158.860657,47.160690 161.655167,45.365501 
	C162.033493,46.550262 162.068680,47.323742 162.103867,48.097221 
	C162.103867,48.097221 162.017380,47.991386 161.696625,47.983826 
	C160.600891,49.672657 159.825943,51.369049 159.050995,53.065437 
	C159.050995,53.065441 159.016098,52.994495 158.663498,52.956192 
	C157.887070,53.967155 157.463257,55.016418 157.039429,56.065681 
	C157.039429,56.065678 157.008835,56.001392 156.669647,55.951511 
	C155.199600,58.041622 154.068710,60.181618 152.937820,62.321609 
	C153.016464,62.545719 152.965698,62.735149 152.216675,62.878590 
	C151.114853,63.933590 150.581848,64.999901 150.048843,66.066208 
	C150.048843,66.066208 150.017456,65.994728 149.664658,65.957161 
	C148.887817,66.968361 148.463791,68.017128 148.039764,69.065895 
	C148.039764,69.065895 148.008743,69.001190 147.681107,68.947372 
	C145.903610,71.256630 144.453751,73.619705 143.000366,75.989723 
	C142.996811,75.996658 142.984894,76.004173 142.644562,75.942947 
	C141.717392,76.536980 141.130539,77.192230 140.543686,77.847488 
z"/>
<path fill="#8A540C" opacity="1.000000" stroke="none" 
	d="
M95.192169,156.400482 
	C95.398796,155.985046 95.585442,155.974106 96.266136,156.236328 
	C97.999763,162.619888 99.239334,168.730301 100.478912,174.840698 
	C100.628281,174.818649 100.777657,174.796616 100.927025,174.774567 
	C100.927025,161.860519 100.927025,148.946472 100.927025,136.032425 
	C101.405357,136.028427 101.883698,136.024429 102.690979,136.492401 
	C103.019928,149.612976 103.019928,162.261566 103.019928,174.910156 
	C103.169189,174.910797 103.318451,174.911423 103.467705,174.912064 
	C105.198364,166.914642 106.929024,158.917206 108.659676,150.919785 
	C108.847687,150.933334 109.035706,150.946899 109.505951,150.977570 
	C107.458275,163.696106 105.128365,176.397583 102.798447,189.099045 
	C102.241409,189.099640 101.684372,189.100220 101.127335,189.100815 
	C99.142281,178.335541 97.157227,167.570251 95.192169,156.400482 
z"/>
<path fill="#C4A210" opacity="1.000000" stroke="none" 
	d="
M110.090881,62.987324 
	C110.316040,64.756325 110.541199,66.525322 110.892715,69.287048 
	C108.006012,68.688042 105.517654,68.171692 103.005249,66.874634 
	C102.990700,55.164566 102.960091,44.234875 103.051178,33.306198 
	C103.065521,31.586411 103.631073,29.871218 103.942314,28.462997 
	C103.983162,29.182112 104.023468,29.592129 104.115189,30.256859 
	C104.400757,30.759851 104.634903,31.008129 104.845795,31.664394 
	C105.238487,35.049129 105.654434,38.025879 106.119690,41.257263 
	C106.402283,41.760052 106.635559,42.008209 106.844147,42.632385 
	C107.472870,44.419952 108.126289,45.831501 108.779716,47.243050 
	C108.779716,47.243050 108.954094,47.480213 108.613487,47.874622 
	C108.212425,49.517727 108.151970,50.766422 108.139877,52.269604 
	C108.425865,52.766830 108.663490,53.009571 108.868057,53.659653 
	C109.253624,57.040436 109.672249,60.013878 110.090881,62.987324 
z"/>
<path fill="#C4A210" opacity="1.000000" stroke="none" 
	d="
M101.022263,67.996666 
	C98.559563,68.397163 96.096870,68.797661 93.164124,69.274597 
	C93.858673,65.201233 94.404068,62.002617 94.982910,58.021317 
	C94.726410,56.077190 94.436462,54.915749 94.146523,53.754303 
	C94.146523,53.754303 94.049469,53.476650 94.506424,53.240231 
	C96.019135,47.753277 97.074898,42.502743 98.343323,37.102165 
	C98.680923,36.636002 98.805855,36.319874 98.974808,35.604233 
	C99.376060,32.882057 99.733292,30.559399 100.381439,28.501226 
	C100.788994,41.842697 100.905624,54.919682 101.022263,67.996666 
z"/>
<path fill="#834A0E" opacity="1.000000" stroke="none" 
	d="
M133.017242,29.029682 
	C132.012054,28.353659 131.006851,27.677633 129.644363,27.002527 
	C129.847488,26.072329 130.407928,25.141212 131.451630,24.264404 
	C132.494629,24.318714 133.054337,24.318714 133.614059,24.318714 
	C133.593307,24.078197 133.572571,23.837681 133.551819,23.597164 
	C132.852890,23.720978 132.153961,23.844790 131.455032,23.968605 
	C133.650940,20.283867 135.846863,16.599129 138.042770,12.914391 
	C138.523346,13.055028 139.003922,13.195665 139.484512,13.336303 
	C136.291183,28.399534 133.097870,43.462765 129.765579,59.181553 
	C131.319550,58.242710 132.284561,57.659683 133.615601,57.028027 
	C133.981613,56.979393 134.045288,57.048183 134.083862,57.402870 
	C131.158142,60.002697 128.193832,62.247841 125.229515,64.492981 
	C125.187401,64.247467 125.145287,64.001953 125.273438,63.108494 
	C126.653671,59.636101 127.863632,56.811661 129.295959,53.835045 
	C129.633698,53.348209 129.749069,53.013546 129.853241,52.276215 
	C130.757233,47.373898 131.846146,42.900345 132.527069,38.365528 
	C132.987640,35.298203 132.874023,32.144661 133.017242,29.029682 
M135.589767,24.518227 
	C135.589767,24.518227 135.476746,24.586510 135.589767,24.518227 
z"/>
<path fill="#834A0E" opacity="1.000000" stroke="none" 
	d="
M143.003906,75.982788 
	C144.453751,73.619705 145.903610,71.256630 147.712463,68.964767 
	C147.261978,70.593269 146.452484,72.150558 145.288651,74.389542 
	C160.803482,71.049896 175.612747,67.862129 190.422028,64.674362 
	C190.671600,65.121132 190.921188,65.567902 191.170761,66.014679 
	C187.445419,68.401367 183.720062,70.788055 179.668640,73.290810 
	C179.483398,72.803001 179.624207,72.199120 180.025177,71.244286 
	C180.187393,70.925255 180.089447,70.957184 179.991516,70.989113 
	C177.794205,70.903168 175.596893,70.817223 172.798706,70.863297 
	C170.243423,71.044167 168.289017,71.093033 166.063141,71.170547 
	C165.532669,71.438606 165.273682,71.677994 164.614182,71.973557 
	C160.255142,72.733734 156.296646,73.437721 152.065079,74.169968 
	C151.532532,74.439758 151.273041,74.681290 150.621170,75.004623 
	C147.820496,75.385208 145.412201,75.683998 143.003906,75.982788 
M179.815140,68.737000 
	C179.972000,68.623253 180.128860,68.509506 180.285736,68.395760 
	C180.067520,68.418686 179.849289,68.441605 179.815140,68.737000 
z"/>
<path fill="#834A0E" opacity="1.000000" stroke="none" 
	d="
M100.090530,28.236740 
	C99.733292,30.559399 99.376060,32.882057 98.756828,35.748474 
	C98.373444,36.612225 98.252052,36.932217 98.130661,37.252209 
	C97.074898,42.502743 96.019135,47.753277 94.593750,53.121906 
	C96.589615,40.191189 98.955086,27.142376 101.320564,14.093562 
	C101.787338,14.097095 102.254105,14.100629 102.720879,14.104162 
	C104.717865,24.864649 106.714859,35.625137 108.745789,46.814339 
	C108.126289,45.831501 107.472870,44.419952 106.810814,42.367584 
	C106.558243,41.485390 106.314308,41.244011 106.070374,41.002628 
	C105.654434,38.025879 105.238487,35.049129 104.811722,31.398884 
	C104.555183,30.484308 104.309479,30.243227 104.063774,30.002144 
	C104.023468,29.592129 103.983162,29.182112 103.961586,28.078949 
	C103.344727,26.375364 102.709137,25.364925 102.073547,24.354485 
	C101.412544,25.648571 100.751534,26.942656 100.090530,28.236740 
z"/>
<path fill="#834A0E" opacity="1.000000" stroke="none" 
	d="
M162.447876,48.102612 
	C162.068680,47.323742 162.033493,46.550262 162.005798,45.383141 
	C162.013290,44.989494 161.989761,44.999023 162.270844,44.866280 
	C162.708298,44.146477 162.864670,43.559418 163.021042,42.972359 
	C163.021042,42.972359 162.991699,42.989899 163.275070,43.037323 
	C163.749756,43.060596 163.941071,43.036442 164.398804,42.854572 
	C165.124481,41.808899 165.583694,40.920944 166.176941,39.965134 
	C166.195709,39.916580 166.080460,39.935886 165.647552,40.007469 
	C164.884964,40.705765 164.440033,41.351780 163.771271,42.005886 
	C163.547424,42.013981 163.100769,42.048206 163.100769,42.048210 
	C162.635849,42.033405 162.170929,42.018604 161.276794,41.782707 
	C160.557022,41.711208 160.266479,41.860802 159.975922,42.010399 
	C159.975922,42.010399 160.007095,42.009983 159.697571,41.958748 
	C158.917282,42.273041 158.446548,42.638569 157.975800,43.004097 
	C157.975800,43.004093 158.005157,43.007126 157.606552,43.002407 
	C156.151764,43.011909 155.095596,43.026134 154.028168,43.028839 
	C154.016907,43.017319 153.994217,42.994434 153.994217,42.994438 
	C161.100189,37.918983 168.206177,32.843533 175.312149,27.768082 
	C175.672607,28.046644 176.033051,28.325209 176.393509,28.603771 
	C171.859634,35.105179 167.325775,41.606590 162.447876,48.102612 
z"/>
<path fill="#8F5C1A" opacity="1.000000" stroke="none" 
	d="
M173.999634,104.099770 
	C174.019882,104.370255 174.040115,104.640732 174.089447,105.317093 
	C166.685059,107.130211 159.251587,108.537453 151.404251,109.909569 
	C150.990112,109.670609 150.989838,109.466782 151.278732,108.752502 
	C159.045151,106.861298 166.522385,105.480530 173.999634,104.099770 
z"/>
<path fill="#834A0E" opacity="1.000000" stroke="none" 
	d="
M110.385788,62.979324 
	C109.672249,60.013878 109.253624,57.040436 108.825928,53.398346 
	C108.575081,52.491508 108.333298,52.253311 108.091507,52.015114 
	C108.151970,50.766422 108.212425,49.517727 108.565277,48.013683 
	C109.523560,50.122730 110.189461,52.487122 111.381020,54.881081 
	C111.906677,54.910648 112.286560,55.217468 112.214409,55.592178 
	C111.851524,58.292381 111.560791,60.617870 111.270058,62.943359 
	C111.073601,62.952679 110.877144,62.962002 110.385788,62.979324 
z"/>
<path fill="#834A0E" opacity="1.000000" stroke="none" 
	d="
M146.913727,47.911697 
	C149.053131,46.319191 151.192520,44.726688 153.663071,43.064308 
	C153.994217,42.994434 154.016907,43.017319 154.083160,43.390640 
	C151.781509,45.192055 149.413574,46.620148 147.012726,48.014057 
	C146.979782,47.979877 146.913727,47.911697 146.913727,47.911697 
z"/>
<path fill="#834A0E" opacity="1.000000" stroke="none" 
	d="
M153.170227,62.055336 
	C154.068710,60.181618 155.199600,58.041622 156.701233,55.967964 
	C155.848862,57.952553 154.625748,59.870808 153.170227,62.055336 
z"/>
<path fill="#834A0E" opacity="1.000000" stroke="none" 
	d="
M141.567551,51.515392 
	C143.135803,50.364548 144.704041,49.213703 146.593018,47.987278 
	C146.913727,47.911697 146.979782,47.979877 147.053192,48.362751 
	C145.536987,49.956409 143.947388,51.167198 142.159973,52.162560 
	C141.830627,51.803223 141.699097,51.659309 141.567551,51.515392 
z"/>
<path fill="#834A0E" opacity="1.000000" stroke="none" 
	d="
M94.058083,54.079521 
	C94.436462,54.915749 94.726410,56.077190 94.965912,57.614300 
	C94.490425,57.993500 94.065361,57.997036 93.165825,57.731373 
	C92.365593,56.718807 92.039841,55.975441 91.922134,55.030785 
	C92.261574,54.688129 92.392967,54.546772 92.524361,54.405411 
	C93.006119,54.405186 93.487885,54.404964 94.058083,54.079521 
z"/>
<path fill="#834A0E" opacity="1.000000" stroke="none" 
	d="
M159.357178,52.922241 
	C159.825943,51.369049 160.600891,49.672657 161.746506,48.031273 
	C161.299210,49.650536 160.481277,51.214794 159.357178,52.922241 
z"/>
<path fill="#834A0E" opacity="1.000000" stroke="none" 
	d="
M136.876465,54.869995 
	C138.242493,53.838535 139.608521,52.807076 141.271057,51.645504 
	C141.699097,51.659309 141.830627,51.803223 141.988922,52.451828 
	C140.366516,53.662010 138.717346,54.367504 137.020294,55.022202 
	C136.972412,54.971409 136.876465,54.869999 136.876465,54.869995 
z"/>
<path fill="#834A0E" opacity="1.000000" stroke="none" 
	d="
M85.497864,43.583664 
	C86.068398,44.404995 86.638931,45.226326 87.132019,46.495804 
	C87.054581,46.943951 86.716652,47.260971 86.424835,47.129295 
	C85.660416,46.070114 85.187805,45.142609 84.912086,44.058765 
	C85.238609,43.796173 85.368233,43.689919 85.497864,43.583664 
z"/>
<path fill="#834A0E" opacity="1.000000" stroke="none" 
	d="
M120.565964,40.599915 
	C121.060600,39.723019 121.555237,38.846123 122.465332,37.927238 
	C123.017128,37.996819 123.153481,38.108387 123.225868,38.536854 
	C122.542648,39.662102 121.923393,40.470455 121.119934,41.108704 
	C120.812485,40.825699 120.689224,40.712807 120.565964,40.599915 
z"/>
<path fill="#834A0E" opacity="1.000000" stroke="none" 
	d="
M83.555756,40.511124 
	C84.126793,41.347027 84.697838,42.182930 85.383377,43.301247 
	C85.368233,43.689919 85.238609,43.796173 84.664452,43.876186 
	C83.723946,42.969090 83.227959,42.088230 82.940285,41.036102 
	C83.284309,40.746933 83.420036,40.629028 83.555756,40.511124 
z"/>
<path fill="#834A0E" opacity="1.000000" stroke="none" 
	d="
M115.434128,48.470886 
	C115.954124,47.593349 116.474129,46.715813 117.406403,45.820915 
	C117.963997,45.933292 118.109322,46.063038 118.176773,46.490673 
	C117.490555,47.596806 116.882202,48.405048 116.064507,49.027016 
	C115.714828,48.717457 115.574478,48.594173 115.434128,48.470886 
z"/>
<path fill="#834A0E" opacity="1.000000" stroke="none" 
	d="
M81.551720,37.370667 
	C82.132545,38.229485 82.713371,39.088303 83.424973,40.229122 
	C83.420036,40.629028 83.284309,40.746933 82.692627,40.854580 
	C81.732368,39.971035 81.228073,39.097744 80.937637,38.017670 
	C81.284897,37.664150 81.418304,37.517410 81.551720,37.370667 
z"/>
<path fill="#834A0E" opacity="1.000000" stroke="none" 
	d="
M122.680542,37.712784 
	C122.993401,36.665596 123.506485,35.790871 124.434395,34.882412 
	C124.989548,34.969200 125.129875,35.089722 125.194870,35.507759 
	C124.509628,36.610168 123.899727,37.415062 123.289833,38.219955 
	C123.153481,38.108387 123.017128,37.996819 122.680542,37.712784 
z"/>
<path fill="#834A0E" opacity="1.000000" stroke="none" 
	d="
M157.317871,55.916939 
	C157.463257,55.016418 157.887070,53.967155 158.694122,52.981232 
	C158.583664,53.952442 158.089981,54.860317 157.317871,55.916939 
z"/>
<path fill="#834A0E" opacity="1.000000" stroke="none" 
	d="
M133.949997,56.944790 
	C134.702393,56.271156 135.486420,55.632122 136.573456,54.931541 
	C136.876465,54.869999 136.972412,54.971409 137.038116,55.388542 
	C136.084320,56.219845 135.064804,56.634014 134.045288,57.048183 
	C134.045288,57.048183 133.981613,56.979393 133.949997,56.944790 
z"/>
<path fill="#834A0E" opacity="1.000000" stroke="none" 
	d="
M150.352600,65.927917 
	C150.581848,64.999901 151.114853,63.933590 152.065857,62.916214 
	C151.874680,63.906639 151.265518,64.848129 150.352600,65.927917 
z"/>
<path fill="#834A0E" opacity="1.000000" stroke="none" 
	d="
M111.719193,54.754242 
	C112.033920,53.717621 112.536133,52.837406 113.455704,51.917778 
	C114.011162,51.992882 114.149261,52.107403 114.210083,52.518826 
	C113.517380,53.616302 112.901970,54.416885 112.286560,55.217468 
	C112.286560,55.217468 111.906677,54.910648 111.719193,54.754242 
z"/>
<path fill="#834A0E" opacity="1.000000" stroke="none" 
	d="
M148.318954,68.918076 
	C148.463791,68.017128 148.887817,66.968361 149.694672,65.982132 
	C149.584381,66.953209 149.091263,67.861732 148.318954,68.918076 
z"/>
<path fill="#834A0E" opacity="1.000000" stroke="none" 
	d="
M113.671059,51.700577 
	C113.983742,50.651333 114.498436,49.779884 115.223633,48.689659 
	C115.574478,48.594173 115.714828,48.717457 115.986778,49.323624 
	C115.508049,50.611645 114.897705,51.416786 114.287369,52.221928 
	C114.149261,52.107403 114.011162,51.992882 113.671059,51.700577 
z"/>
<path fill="#834A0E" opacity="1.000000" stroke="none" 
	d="
M128.625519,27.993196 
	C129.118378,28.103701 129.321701,28.416422 129.734955,29.120003 
	C129.956436,29.678455 129.968002,29.846050 129.979553,30.013647 
	C129.979553,30.013647 130.008484,30.006163 129.739761,30.067970 
	C129.029221,30.467024 128.587418,30.804270 127.878349,30.993271 
	C127.415947,30.786489 127.220787,30.727957 127.025635,30.669426 
	C127.462425,29.844757 127.899208,29.020086 128.625519,27.993196 
z"/>
<path fill="#834A0E" opacity="1.000000" stroke="none" 
	d="
M124.645370,34.660446 
	C124.974312,33.574188 125.507118,32.676159 126.444618,31.780766 
	C126.987022,31.927530 127.124733,32.071659 127.180878,32.510635 
	C126.489616,33.607075 125.879913,34.408661 125.270218,35.210243 
	C125.129875,35.089722 124.989548,34.969200 124.645370,34.660446 
z"/>
<path fill="#834A0E" opacity="1.000000" stroke="none" 
	d="
M117.614365,45.594624 
	C117.669067,44.911491 117.928085,44.437286 118.572952,43.954842 
	C118.958801,43.946602 119.282921,44.225548 119.227692,44.504116 
	C118.866524,45.252716 118.560577,45.722748 118.254639,46.192780 
	C118.109322,46.063038 117.963997,45.933292 117.614365,45.594624 
z"/>
<path fill="#834A0E" opacity="1.000000" stroke="none" 
	d="
M119.273956,42.514107 
	C119.554031,42.000622 119.834106,41.487141 120.340073,40.786785 
	C120.689224,40.712807 120.812485,40.825699 121.046707,41.377769 
	C120.839195,42.273064 120.520721,42.729183 119.978058,43.006607 
	C119.593895,42.723305 119.433922,42.618706 119.273956,42.514107 
z"/>
<path fill="#834A0E" opacity="1.000000" stroke="none" 
	d="
M177.914215,74.475540 
	C177.996170,74.128471 178.318115,73.671715 178.992661,73.297424 
	C178.948242,73.708557 178.551224,74.037209 177.914215,74.475540 
z"/>
<path fill="#834A0E" opacity="1.000000" stroke="none" 
	d="
M87.223228,46.785103 
	C87.758102,47.077026 88.124329,47.527794 88.365982,48.406467 
	C88.089066,48.955151 87.936737,49.075932 87.565674,49.010628 
	C87.136848,48.303356 86.926750,47.782166 86.716644,47.260971 
	C86.716652,47.260971 87.054581,46.943951 87.223228,46.785103 
z"/>
<path fill="#834A0E" opacity="1.000000" stroke="none" 
	d="
M90.599274,51.414318 
	C90.983345,51.942486 91.367416,52.470650 91.553833,53.418957 
	C91.183517,53.940716 91.010857,54.042339 90.615562,53.960541 
	C90.172585,53.251087 89.952225,52.725056 89.954529,52.009262 
	C90.317871,51.684441 90.458572,51.549377 90.599274,51.414318 
z"/>
<path fill="#834A0E" opacity="1.000000" stroke="none" 
	d="
M89.336884,49.687347 
	C89.679146,50.098320 90.021408,50.509293 90.481468,51.167294 
	C90.458572,51.549377 90.317871,51.684441 89.744705,51.813190 
	C89.116066,51.277836 88.919899,50.748795 88.877945,50.087715 
	C89.032150,49.955677 89.336884,49.687347 89.336884,49.687347 
z"/>
<path fill="#834A0E" opacity="1.000000" stroke="none" 
	d="
M79.772682,37.062111 
	C80.002174,37.048706 80.231674,37.035301 80.805702,37.007339 
	C81.150223,36.992786 81.432198,37.095600 81.491959,37.233131 
	C81.418304,37.517410 81.284897,37.664150 80.741592,37.859142 
	C80.145363,37.625637 79.959023,37.343876 79.772682,37.062111 
z"/>
<path fill="#834A0E" opacity="1.000000" stroke="none" 
	d="
M126.661179,31.550999 
	C126.513397,31.116274 126.615372,30.952276 126.902298,30.748013 
	C127.220787,30.727957 127.415947,30.786489 127.771317,31.203289 
	C127.763878,31.836264 127.540848,32.054340 127.262444,32.215786 
	C127.124733,32.071659 126.987022,31.927530 126.661179,31.550999 
z"/>
<path fill="#834A0E" opacity="1.000000" stroke="none" 
	d="
M91.638290,53.735573 
	C92.122795,53.741707 92.284599,53.894382 92.465088,54.247742 
	C92.392967,54.546772 92.261574,54.688129 91.738052,54.883957 
	C91.123009,54.707905 90.953766,54.443085 90.838188,54.143959 
	C91.010857,54.042339 91.183517,53.940716 91.638290,53.735573 
z"/>
<path fill="#87500C" opacity="1.000000" stroke="none" 
	d="
M176.076263,75.560677 
	C176.076263,75.560677 176.027832,75.579643 176.014282,75.601608 
	C175.796265,75.504059 175.591766,75.384537 175.254822,74.847069 
	C175.346527,74.193512 175.616684,74.037537 175.932831,73.961212 
	C175.932831,73.961212 175.991180,74.006577 176.012268,74.407333 
	C176.047638,75.058945 176.061951,75.309814 176.076263,75.560677 
z"/>
<path fill="#834A0E" opacity="1.000000" stroke="none" 
	d="
M176.310226,75.480408 
	C176.061951,75.309814 176.047638,75.058945 176.039917,74.431839 
	C176.275299,74.139839 176.504120,74.224083 177.016190,74.541229 
	C177.096130,75.041245 176.844376,75.249908 176.310226,75.480408 
z"/>
<path fill="#834A0E" opacity="1.000000" stroke="none" 
	d="
M88.486206,48.675957 
	C88.962021,48.718647 89.133408,48.961777 89.291039,49.467133 
	C89.336884,49.687347 89.032150,49.955677 88.682556,49.959427 
	C88.098045,49.744968 87.915192,49.489479 87.784409,49.196709 
	C87.936737,49.075932 88.089066,48.955151 88.486206,48.675957 
z"/>
<path fill="#834A0E" opacity="1.000000" stroke="none" 
	d="
M118.798737,43.804836 
	C118.666588,43.356041 118.775917,43.081432 119.120316,42.676674 
	C119.433922,42.618706 119.593895,42.723305 119.864227,43.213337 
	C119.801811,43.871456 119.571251,44.080383 119.282921,44.225548 
	C119.282921,44.225548 118.958801,43.946602 118.798737,43.804836 
z"/>
<path fill="#EFC616" opacity="1.000000" stroke="none" 
	d="
M82.121521,77.059402 
	C97.324150,66.465691 113.010361,69.559219 122.579880,77.976875 
	C135.233414,89.107323 137.234879,104.521042 127.809105,120.779144 
	C124.851479,123.819191 122.298660,126.346977 119.745850,128.874771 
	C110.048401,134.080551 100.114540,135.862900 89.574554,131.347519 
	C71.959801,123.801277 63.363041,100.910416 77.197632,82.255310 
	C79.111847,80.197769 80.616684,78.628586 82.121521,77.059402 
M110.375420,95.187035 
	C110.109398,95.843109 109.499367,96.994308 109.627403,97.083260 
	C113.372200,99.685196 118.219299,97.976624 121.050560,93.141365 
	C116.393234,89.977966 112.034508,89.893860 108.448753,92.713776 
	C109.297218,93.487778 110.135590,94.252579 111.009575,94.989388 
	C111.009575,94.989388 111.042473,94.957939 110.375420,95.187035 
M109.896622,119.122528 
	C111.446777,118.372963 112.996933,117.623398 115.717384,116.307945 
	C106.092003,113.029808 97.919617,112.953377 89.300713,116.021194 
	C96.115173,121.498009 103.419762,122.526108 109.107147,118.988129 
	C109.107147,118.988129 109.194977,119.110870 109.896622,119.122528 
M88.617142,98.083855 
	C90.964417,97.641846 93.311699,97.199837 95.658974,96.757835 
	C95.571320,96.404610 95.483665,96.051392 95.396011,95.698166 
	C94.624619,95.417877 93.853218,95.137589 93.081833,94.857307 
	C93.960159,94.126923 94.838486,93.396538 97.140022,91.482666 
	C92.288048,91.253113 88.787895,91.087509 83.651123,90.844475 
	C85.557159,94.150269 86.665207,96.072044 88.617142,98.083855 
M101.658112,108.719940 
	C99.765091,107.692162 97.872063,106.664383 96.045624,105.672745 
	C94.779671,107.024261 93.579300,108.305763 91.972214,110.021469 
	C98.830070,110.021469 105.182640,110.021469 111.938721,110.021469 
	C110.216331,108.022118 108.859138,106.446686 108.036766,105.492081 
	C106.023117,106.639954 104.202950,107.677536 101.658112,108.719940 
M112.902603,88.054771 
	C116.693474,88.598343 120.484337,89.141914 124.531219,89.722191 
	C117.872215,83.807945 113.381989,83.621986 107.172859,89.351837 
	C109.250359,88.842628 110.668945,88.494926 112.902603,88.054771 
M91.710594,85.397751 
	C86.886185,84.384483 83.361290,86.822273 78.915886,89.322845 
	C85.252731,88.922836 90.508324,88.591087 95.858292,88.253380 
	C94.908211,87.569710 93.647209,86.662300 91.710594,85.397751 
z"/>
<path fill="#C4A311" opacity="1.000000" stroke="none" 
	d="
M134.083862,57.402870 
	C135.064804,56.634014 136.084320,56.219845 137.085999,55.439335 
	C138.717346,54.367504 140.366516,53.662010 142.186737,52.667252 
	C143.947388,51.167198 145.536987,49.956409 147.086121,48.396931 
	C149.413574,46.620148 151.781509,45.192055 154.094421,43.402161 
	C155.095596,43.026134 156.151764,43.011909 157.607010,42.987648 
	C157.650391,43.856953 157.520660,44.959435 156.905396,45.582401 
	C146.512054,56.105736 136.058350,66.569420 125.471161,77.193680 
	C122.340813,75.183876 119.477150,73.345284 116.339005,71.330467 
	C119.361923,69.112190 122.144684,67.070145 125.078476,64.760544 
	C128.193832,62.247841 131.158142,60.002697 134.083862,57.402870 
z"/>
<path fill="#C3A110" opacity="1.000000" stroke="none" 
	d="
M44.805050,161.820999 
	C45.415771,160.861053 45.876492,159.752075 46.659870,158.963684 
	C57.292179,148.263138 67.969231,137.607025 78.698380,126.876793 
	C81.626328,128.944550 84.177094,130.745941 87.659996,133.205612 
	C73.449944,142.982178 59.629028,152.491013 45.389145,161.989441 
	C44.970169,161.979004 44.805050,161.820999 44.805050,161.820999 
z"/>
<path fill="#C4A210" opacity="1.000000" stroke="none" 
	d="
M159.012756,162.016251 
	C149.376175,155.550415 139.723038,149.109085 130.110474,142.607773 
	C125.734955,139.648438 121.439667,136.570511 116.663307,133.235916 
	C118.171364,132.048157 119.291512,131.165909 120.996857,129.976471 
	C122.742416,128.791809 123.902779,127.914375 125.248955,126.896431 
	C136.360321,137.981171 147.290146,148.865433 158.169922,159.799484 
	C158.679153,160.311264 158.742004,161.267181 159.012756,162.016251 
z"/>
<path fill="#C4A211" opacity="1.000000" stroke="none" 
	d="
M76.007523,81.006943 
	C74.465637,83.123245 72.923759,85.239540 70.888428,88.033119 
	C61.450809,73.783142 52.156803,59.749992 43.231903,45.479950 
	C54.044922,55.633827 64.534889,65.979370 74.855225,76.491463 
	C75.796188,77.449913 75.649261,79.476418 76.007523,81.006943 
z"/>
<path fill="#C4A211" opacity="1.000000" stroke="none" 
	d="
M44.977806,42.986046 
	C46.065510,43.255783 47.346737,43.243607 48.211906,43.837521 
	C61.329651,52.842434 74.392860,61.926800 87.751862,71.188797 
	C85.417725,72.763710 83.409531,74.118698 80.897614,75.869370 
	C79.381500,76.133095 77.985085,76.384674 77.413567,75.812408 
	C66.543556,64.928307 55.770782,53.947090 44.977806,42.986046 
z"/>
<path fill="#C4A211" opacity="1.000000" stroke="none" 
	d="
M129.013840,122.004646 
	C130.224014,120.444244 131.434204,118.883842 133.062805,116.783920 
	C138.107513,123.959511 143.115723,130.879532 147.901855,137.949890 
	C152.434006,144.645096 156.733215,151.497986 160.761383,158.528290 
	C149.975052,148.416199 139.655533,137.960434 129.078827,127.771652 
	C126.662834,125.444283 127.519783,123.939209 129.013840,122.004646 
z"/>
<path fill="#C4A311" opacity="1.000000" stroke="none" 
	d="
M42.874325,157.897797 
	C52.064301,144.299362 61.254280,130.700943 70.903854,116.422462 
	C73.156792,119.607849 74.993332,122.204491 76.271484,124.011650 
	C65.364746,135.512268 54.651062,146.809326 43.503586,158.083893 
	C43.069786,158.061401 42.874329,157.897797 42.874325,157.897797 
z"/>
<path fill="#C2A010" opacity="1.000000" stroke="none" 
	d="
M119.227692,44.504116 
	C119.571251,44.080383 119.801811,43.871456 120.088425,43.392036 
	C120.520721,42.729183 120.839195,42.273064 121.230896,41.547874 
	C121.923393,40.470455 122.542648,39.662102 123.225868,38.536850 
	C123.899727,37.415062 124.509628,36.610168 125.194870,35.507759 
	C125.879913,34.408661 126.489616,33.607075 127.180878,32.510635 
	C127.540848,32.054340 127.763878,31.836264 128.038574,31.351536 
	C128.587418,30.804270 129.029221,30.467024 129.739258,30.053040 
	C127.732819,36.172470 125.568367,42.411961 123.154510,48.553421 
	C120.375237,55.624603 117.375534,62.609146 113.835182,71.170166 
	C112.853348,67.655479 112.274391,65.582977 111.482742,63.226921 
	C111.560791,60.617870 111.851524,58.292381 112.214401,55.592178 
	C112.901970,54.416885 113.517380,53.616302 114.210083,52.518826 
	C114.897705,51.416786 115.508049,50.611645 116.196114,49.509895 
	C116.882202,48.405048 117.490555,47.596806 118.176773,46.490673 
	C118.560577,45.722748 118.866524,45.252716 119.227692,44.504116 
z"/>
<path fill="#C2A010" opacity="1.000000" stroke="none" 
	d="
M87.565674,49.010628 
	C87.915192,49.489479 88.098045,49.744968 88.528351,50.091465 
	C88.919899,50.748795 89.116066,51.277836 89.522057,52.002953 
	C89.952225,52.725056 90.172585,53.251087 90.615562,53.960541 
	C90.953766,54.443085 91.123009,54.707905 91.530006,55.085247 
	C92.039841,55.975441 92.365593,56.718807 92.846619,57.729843 
	C92.394928,61.844128 91.787964,65.690750 91.181000,69.537369 
	C90.707550,69.602730 90.234108,69.668091 89.760658,69.733459 
	C84.341423,56.724594 78.922195,43.715733 73.502960,30.706871 
	C73.787766,30.496412 74.072571,30.285955 74.357376,30.075499 
	C75.985115,32.282684 77.612862,34.489868 79.506638,36.879581 
	C79.959023,37.343876 80.145363,37.625637 80.527740,38.065926 
	C81.228073,39.097744 81.732368,39.971035 82.484322,41.025848 
	C83.227959,42.088230 83.723946,42.969090 84.467560,44.032528 
	C85.187805,45.142609 85.660416,46.070114 86.424835,47.129295 
	C86.926750,47.782166 87.136848,48.303356 87.565674,49.010628 
z"/>
<path fill="#C2A010" opacity="1.000000" stroke="none" 
	d="
M112.554466,148.218903 
	C112.337608,143.472076 112.337608,139.040268 112.337608,134.608475 
	C112.976936,134.501480 113.616272,134.394470 114.255600,134.287476 
	C119.904160,147.874481 125.552719,161.461487 131.201279,175.048492 
	C130.868729,175.218216 130.536163,175.387939 130.203613,175.557663 
	C124.392853,166.549759 118.582085,157.541840 112.554466,148.218903 
z"/>
<path fill="#C2A010" opacity="1.000000" stroke="none" 
	d="
M175.757294,73.680946 
	C175.616684,74.037537 175.346527,74.193512 174.982208,74.619247 
	C166.984482,79.702156 158.724899,84.067810 151.397659,89.655945 
	C145.623459,94.059639 140.422592,92.431076 134.132797,90.839058 
	C135.022507,89.999947 135.453644,89.311607 136.065002,89.058281 
	C148.596176,83.866089 161.145187,78.716881 173.704498,73.593025 
	C174.263397,73.365013 174.953033,73.457489 175.757294,73.680946 
z"/>
<path fill="#C2A010" opacity="1.000000" stroke="none" 
	d="
M44.057808,83.958710 
	C39.058449,80.704437 34.381569,77.615402 29.704689,74.526360 
	C29.868462,74.156334 30.032234,73.786316 30.196007,73.416290 
	C43.330959,78.839310 56.465908,84.262329 69.600861,89.685341 
	C64.234947,92.260185 59.244949,94.771080 53.936543,90.395622 
	C51.013721,87.986473 47.582375,86.194283 44.057808,83.958710 
z"/>
<path fill="#C2A010" opacity="1.000000" stroke="none" 
	d="
M46.987984,123.984901 
	C41.647964,126.142296 36.662548,128.153122 31.677132,130.163971 
	C31.472977,129.768524 31.268824,129.373093 31.064669,128.977646 
	C34.842148,126.447227 38.597637,123.883148 42.403870,121.396736 
	C45.605770,119.305115 49.242626,117.715363 52.022354,115.175964 
	C57.609295,110.072075 63.419235,111.279808 71.018799,113.863243 
	C62.360706,117.511017 54.851646,120.674683 46.987984,123.984901 
z"/>
<path fill="#C2A010" opacity="1.000000" stroke="none" 
	d="
M73.890182,173.913834 
	C78.298248,162.846191 82.696869,151.774780 87.122726,140.714279 
	C87.960052,138.621750 88.905540,136.572510 90.246033,133.475281 
	C92.620865,140.387360 94.156036,145.615738 89.570930,151.454956 
	C84.067551,158.463593 79.628456,166.307968 74.372787,173.904877 
	C74.017067,174.019302 73.890190,173.913834 73.890182,173.913834 
z"/>
<path fill="#C2A010" opacity="1.000000" stroke="none" 
	d="
M173.860168,130.154449 
	C163.867035,126.252083 153.861191,122.381729 143.888153,118.428696 
	C140.714828,117.170891 137.628677,115.693169 133.563812,113.902504 
	C140.367325,111.576492 145.644531,110.191246 151.402618,114.565300 
	C158.497253,119.954659 166.272186,124.448463 173.866119,129.678650 
	C173.979111,130.027985 173.860168,130.154449 173.860168,130.154449 
z"/>
<path fill="#C4A210" opacity="1.000000" stroke="none" 
	d="
M174.318817,104.050522 
	C166.522385,105.480530 159.045151,106.861298 151.269653,108.446907 
	C145.914810,109.377602 140.858185,110.103439 135.049500,110.937241 
	C135.437408,108.248680 135.773422,105.919716 136.183701,103.075951 
	C149.492615,103.075951 162.593155,103.075531 175.693680,103.092270 
	C175.741501,103.092331 175.843765,103.448532 175.828659,103.456154 
	C175.439224,103.652641 175.037567,103.824844 174.318817,104.050522 
z"/>
<path fill="#C4A210" opacity="1.000000" stroke="none" 
	d="
M64.626274,103.019531 
	C70.104782,103.768730 68.546455,107.451515 68.822998,111.029427 
	C54.936283,108.513550 41.534275,106.085480 28.132265,103.657417 
	C28.141989,103.444153 28.151712,103.230896 28.161436,103.017632 
	C40.164448,103.017632 52.167461,103.017632 64.626274,103.019531 
z"/>
<path fill="#C4A210" opacity="1.000000" stroke="none" 
	d="
M108.716873,150.482986 
	C106.929024,158.917206 105.198364,166.914642 103.467705,174.912064 
	C103.318451,174.911423 103.169189,174.910797 103.019928,174.910156 
	C103.019928,162.261566 103.019928,149.612976 103.049683,136.499817 
	C105.489655,135.727188 107.899864,135.419128 110.703476,135.060791 
	C110.023392,140.342896 109.398735,145.194534 108.716873,150.482986 
z"/>
<path fill="#C4A210" opacity="1.000000" stroke="none" 
	d="
M100.528259,136.003357 
	C100.927025,148.946472 100.927025,161.860519 100.927025,174.774567 
	C100.777657,174.796616 100.628281,174.818649 100.478912,174.840698 
	C99.239334,168.730301 97.999763,162.619888 96.545914,156.217041 
	C95.379066,149.162430 94.426483,142.400299 93.391312,135.051895 
	C95.770874,135.377640 97.950180,135.675980 100.528259,136.003357 
z"/>
<path fill="#C19E10" opacity="1.000000" stroke="none" 
	d="
M133.010681,29.016802 
	C132.874023,32.144661 132.987640,35.298203 132.527069,38.365528 
	C131.846146,42.900345 130.757233,47.373898 129.650024,52.448280 
	C129.329849,53.344421 129.201721,53.665817 129.073593,53.987217 
	C127.863632,56.811661 126.653671,59.636101 125.224136,62.738117 
	C122.937370,64.306160 120.870171,65.596626 118.802979,66.887100 
	C118.513138,66.688965 118.223289,66.490829 117.933449,66.292702 
	C122.842789,54.405388 127.752129,42.518074 132.821823,30.059162 
	C132.982178,29.487560 133.021347,29.012615 133.021347,29.012615 
	C133.021347,29.012615 133.004120,29.003920 133.010681,29.016802 
z"/>
<path fill="#C3A110" opacity="1.000000" stroke="none" 
	d="
M172.673065,99.991196 
	C173.671677,100.082886 174.287079,100.151642 174.902496,100.220390 
	C174.891922,100.490585 174.881332,100.760780 174.870758,101.030975 
	C162.689346,101.030975 150.498749,101.251541 138.338409,100.745384 
	C136.856827,100.683723 135.537811,96.715881 134.143463,94.558334 
	C134.583832,94.101364 135.024200,93.644402 135.464569,93.187439 
	C147.739670,95.447716 160.014755,97.707993 172.673065,99.991196 
z"/>
<path fill="#C3A110" opacity="1.000000" stroke="none" 
	d="
M30.194138,100.427063 
	C43.094444,97.878929 55.771339,95.605011 68.473198,93.326622 
	C69.179131,100.324387 68.583847,101.088745 62.385269,101.043579 
	C51.580162,100.964851 40.775547,100.818993 30.194138,100.427063 
z"/>
<path fill="#C29F10" opacity="1.000000" stroke="none" 
	d="
M166.334625,71.141891 
	C168.289017,71.093033 170.243423,71.044167 172.512329,71.034637 
	C165.641907,74.312325 158.483322,77.610939 151.262222,80.766495 
	C146.905334,82.670425 142.451309,84.352051 137.381073,85.420776 
	C138.833908,83.156975 140.286743,80.893173 142.104309,78.135498 
	C142.640991,77.095795 142.812943,76.549980 142.984894,76.004173 
	C142.984894,76.004173 142.996811,75.996658 143.000366,75.989723 
	C145.412201,75.683998 147.820496,75.385208 150.880920,74.953453 
	C151.801392,74.594231 152.069763,74.367973 152.338135,74.141708 
	C156.296646,73.437721 160.255142,72.733734 164.873138,71.924126 
	C165.799957,71.592972 166.067291,71.367432 166.334625,71.141891 
z"/>
<path fill="#C19E10" opacity="1.000000" stroke="none" 
	d="
M138.180328,118.802116 
	C145.576050,121.603134 152.998489,124.336205 160.357864,127.229660 
	C165.074951,129.084244 169.699036,131.175369 174.062683,134.118225 
	C163.992935,131.974991 153.805161,130.242004 143.935562,127.403000 
	C141.436447,126.684128 139.951584,122.439331 138.009979,119.393112 
	C138.019287,118.971481 138.180328,118.802116 138.180328,118.802116 
z"/>
<path fill="#C29F10" opacity="1.000000" stroke="none" 
	d="
M125.888115,142.299057 
	C127.199303,145.792938 128.422699,148.992874 129.221024,152.295563 
	C130.960434,159.491486 132.483353,166.739761 133.028198,174.342087 
	C128.007370,162.286331 122.986557,150.230560 117.965744,138.174805 
	C118.215614,137.881073 118.465485,137.587326 118.715347,137.293594 
	C121.012756,138.879623 123.310158,140.465668 125.888115,142.299057 
z"/>
<path fill="#C2A010" opacity="1.000000" stroke="none" 
	d="
M85.720985,137.909470 
	C81.188789,149.759766 76.487442,161.329590 71.786102,172.899429 
	C71.310181,172.744904 70.834259,172.590393 70.358337,172.435883 
	C71.878754,165.495499 73.959526,158.619308 74.763756,151.596909 
	C75.586601,144.412003 79.249619,140.194122 85.720985,137.909470 
z"/>
<path fill="#C29F10" opacity="1.000000" stroke="none" 
	d="
M48.053635,73.973564 
	C51.866978,74.720802 55.729473,74.643784 58.530949,76.329765 
	C61.893578,78.353470 64.352043,81.879570 67.202026,84.755112 
	C66.814903,85.216469 66.427780,85.677826 66.040657,86.139183 
	C54.376274,81.305580 42.711895,76.471977 31.047516,71.638374 
	C31.115498,71.283928 31.183481,70.929489 31.251463,70.575043 
	C36.711922,71.693420 42.172382,72.811798 48.053635,73.973564 
z"/>
<path fill="#C2A010" opacity="1.000000" stroke="none" 
	d="
M50.559143,124.612335 
	C56.039127,122.314484 61.173946,120.180847 67.609535,117.506706 
	C63.757572,123.613785 61.288860,128.457626 54.307430,129.130737 
	C47.414318,129.795334 40.651718,131.800980 33.824589,133.182358 
	C33.156551,133.317520 32.437477,133.200424 31.585234,132.393692 
	C37.794819,129.854645 44.004402,127.315598 50.559143,124.612335 
z"/>
<path fill="#C29F10" opacity="1.000000" stroke="none" 
	d="
M71.081375,30.922499 
	C76.127861,42.574650 81.174339,54.226799 86.437279,66.378738 
	C79.312431,64.122406 77.016335,61.792583 75.737770,55.749279 
	C74.060898,47.823307 72.486824,39.875587 70.929718,31.470814 
	C70.990898,31.004406 71.081375,30.922499 71.081375,30.922499 
z"/>
<path fill="#885003" opacity="1.000000" stroke="none" 
	d="
M128.782501,121.884003 
	C127.519783,123.939209 126.662834,125.444283 129.078827,127.771652 
	C139.655533,137.960434 149.975052,148.416199 160.700562,158.897552 
	C161.013245,159.020035 160.998917,158.999939 161.077637,159.237732 
	C161.443329,159.657043 161.730316,159.838577 162.017303,160.020096 
	C162.017303,160.020096 161.999756,159.999756 162.101990,160.278748 
	C162.477173,160.869858 162.750107,161.181946 163.023041,161.494049 
	C164.198853,161.963440 165.374649,162.432846 166.872055,162.876938 
	C167.193665,162.851624 167.030075,162.958115 167.097992,162.887512 
	C166.725098,168.138107 164.284256,167.219452 161.343262,164.297714 
	C161.437469,163.784668 161.606766,163.588577 161.577621,163.552414 
	C161.404892,163.338043 161.186172,163.160736 160.982910,162.970978 
	C160.982910,162.970978 161.003891,162.997391 160.858215,162.737030 
	C160.134506,162.313721 159.556473,162.150787 158.978424,161.987839 
	C158.978424,161.987839 158.997223,161.999817 159.004990,162.008026 
	C158.742004,161.267181 158.679153,160.311264 158.169922,159.799484 
	C147.290146,148.865433 136.360321,137.981171 125.248955,126.896431 
	C123.902779,127.914375 122.742416,128.791809 121.277031,129.794830 
	C120.732315,129.648026 120.492615,129.375641 119.999382,128.989014 
	C122.298660,126.346977 124.851479,123.819191 127.682655,121.104370 
	C128.157730,121.199341 128.354446,121.481354 128.782501,121.884003 
z"/>
<path fill="#885003" opacity="1.000000" stroke="none" 
	d="
M44.988445,42.993553 
	C55.770782,53.947090 66.543556,64.928307 77.413567,75.812408 
	C77.985085,76.384674 79.381500,76.133095 80.700165,76.136078 
	C81.219009,76.281548 81.431572,76.555984 81.882828,76.944916 
	C80.616684,78.628586 79.111847,80.197769 77.331032,81.941116 
	C76.860237,81.828506 76.665421,81.541733 76.239059,81.130951 
	C75.649261,79.476418 75.796188,77.449913 74.855225,76.491463 
	C64.534889,65.979370 54.044922,55.633827 43.293350,45.109978 
	C42.985680,44.976898 43.000801,44.998505 42.903473,44.733696 
	C41.852165,43.980293 40.898182,43.491703 39.944202,43.003113 
	C39.065002,41.355858 38.185799,39.708603 37.306599,38.061352 
	C37.758087,37.722851 38.209579,37.384354 38.661072,37.045853 
	C39.834812,38.184254 41.008553,39.322655 42.597519,40.950172 
	C43.680050,41.966705 44.347359,42.494125 45.014668,43.021545 
	C45.014668,43.021545 44.999084,43.001057 44.988445,42.993553 
z"/>
<path fill="#8C570C" opacity="1.000000" stroke="none" 
	d="
M100.381439,28.501226 
	C100.751534,26.942656 101.412544,25.648571 102.073547,24.354485 
	C102.709137,25.364925 103.344727,26.375364 103.961037,27.769852 
	C103.631073,29.871218 103.065521,31.586411 103.051178,33.306198 
	C102.960091,44.234875 102.990700,55.164566 102.939949,66.565094 
	C102.436157,67.288727 101.973625,67.541199 101.266678,67.895172 
	C100.905624,54.919682 100.788994,41.842697 100.381439,28.501226 
z"/>
<path fill="#C4A211" opacity="1.000000" stroke="none" 
	d="
M40.129932,43.274979 
	C40.898182,43.491703 41.852165,43.980293 42.914085,44.741264 
	C42.119904,44.524715 41.217781,44.035778 40.129932,43.274979 
z"/>
<path fill="#834A0E" opacity="1.000000" stroke="none" 
	d="
M142.644562,75.942947 
	C142.812943,76.549980 142.640991,77.095795 142.224823,77.817825 
	C141.741516,77.975586 141.502441,77.957138 140.903534,77.893082 
	C141.130539,77.192230 141.717392,76.536980 142.644562,75.942947 
z"/>
<path fill="#C4A211" opacity="1.000000" stroke="none" 
	d="
M45.013298,42.646614 
	C44.347359,42.494125 43.680050,41.966705 42.776440,41.205826 
	C43.364067,41.405476 44.188000,41.838577 45.013298,42.646614 
z"/>
<path fill="#C4A311" opacity="1.000000" stroke="none" 
	d="
M43.168587,158.141876 
	C43.035866,158.744553 42.804344,159.266754 42.273239,159.881195 
	C41.973656,159.973434 41.878513,159.866089 41.878513,159.866089 
	C42.055733,159.325821 42.232952,158.785568 42.642250,158.071548 
	C42.874329,157.897797 43.069786,158.061401 43.168587,158.141876 
z"/>
<path fill="#FFFFFE" opacity="1.000000" stroke="none" 
	d="
M146.495361,131.324310 
	C145.893753,131.229324 145.639206,130.862701 145.384659,130.496078 
	C145.918549,130.387344 146.452423,130.278625 147.230606,130.304321 
	C147.264084,130.643372 147.053268,130.848022 146.495361,131.324310 
z"/>
<path fill="#C2A010" opacity="1.000000" stroke="none" 
	d="
M28.676548,130.620132 
	C28.877979,130.484894 29.216272,130.509644 29.554562,130.534393 
	C29.307510,130.616302 29.060457,130.698212 28.676548,130.620132 
z"/>
<path fill="#C3A110" opacity="1.000000" stroke="none" 
	d="
M162.751526,43.132591 
	C162.864670,43.559418 162.708298,44.146477 162.272736,44.879307 
	C162.156342,44.447655 162.319183,43.870239 162.751526,43.132591 
z"/>
<path fill="#C29F10" opacity="1.000000" stroke="none" 
	d="
M70.943726,31.043121 
	C70.792969,30.576864 70.689384,30.071896 70.585793,29.566927 
	C70.734634,29.851496 70.883476,30.136065 71.056847,30.671566 
	C71.081375,30.922499 70.990898,31.004406 70.943726,31.043121 
z"/>
<path fill="#C4A311" opacity="1.000000" stroke="none" 
	d="
M158.292084,43.056164 
	C158.446548,42.638569 158.917282,42.273041 159.704041,41.944572 
	C159.549500,42.357162 159.078934,42.732697 158.292084,43.056164 
z"/>
<path fill="#C4A210" opacity="1.000000" stroke="none" 
	d="
M159.129028,162.261993 
	C159.556473,162.150787 160.134506,162.313721 160.871704,162.747192 
	C160.447098,162.857193 159.863358,162.696671 159.129028,162.261993 
z"/>
<path fill="#C4A311" opacity="1.000000" stroke="none" 
	d="
M42.019753,160.028366 
	C41.567665,160.194427 41.069477,160.305557 40.571289,160.416687 
	C40.842949,160.249725 41.114605,160.082748 41.632389,159.890930 
	C41.878513,159.866089 41.973656,159.973434 42.019753,160.028366 
z"/>
<path fill="#C2A010" opacity="1.000000" stroke="none" 
	d="
M74.078682,174.074158 
	C73.951660,174.570312 73.763016,175.011597 73.574379,175.452896 
	C73.540665,175.038376 73.506950,174.623840 73.681717,174.061584 
	C73.890190,173.913834 74.017067,174.019302 74.078682,174.074158 
z"/>
<path fill="#C3A110" opacity="1.000000" stroke="none" 
	d="
M42.465057,163.593231 
	C42.404572,163.507721 42.640701,163.478821 42.640701,163.478821 
	C42.640701,163.478821 42.525543,163.678726 42.465057,163.593231 
z"/>
<path fill="#C4A210" opacity="1.000000" stroke="none" 
	d="
M160.945023,163.256531 
	C161.186172,163.160736 161.404892,163.338043 161.577621,163.552414 
	C161.606766,163.588577 161.437469,163.784668 161.166473,164.010620 
	C160.951080,163.923599 160.929108,163.732834 160.945023,163.256531 
z"/>
<path fill="#C3A110" opacity="1.000000" stroke="none" 
	d="
M45.049110,162.061615 
	C44.940937,162.307495 44.753822,162.470749 44.566704,162.633987 
	C44.537346,162.433167 44.507988,162.232346 44.641838,161.926270 
	C44.805050,161.820999 44.970169,161.979004 45.049110,162.061615 
z"/>
<path fill="#834A0E" opacity="1.000000" stroke="none" 
	d="
M132.856094,29.080256 
	C133.021347,29.012615 132.982178,29.487560 132.918167,29.716740 
	C132.723526,29.768131 132.576614,29.598804 132.476120,29.405361 
	C132.456223,29.367056 132.614655,29.236115 132.856094,29.080256 
z"/>
<path fill="#C2A010" opacity="1.000000" stroke="none" 
	d="
M130.190628,29.967453 
	C129.968002,29.846050 129.956436,29.678455 129.979950,29.261417 
	C130.219513,29.193512 130.438385,29.362831 130.613983,29.568993 
	C130.642197,29.602108 130.477325,29.799702 130.190628,29.967453 
z"/>
<path fill="#C4A211" opacity="1.000000" stroke="none" 
	d="
M162.986603,161.156113 
	C162.750107,161.181946 162.477173,160.869858 162.092438,160.269287 
	C162.303802,160.259949 162.626999,160.539062 162.986603,161.156113 
z"/>
<path fill="#C4A211" opacity="1.000000" stroke="none" 
	d="
M161.966614,159.746521 
	C161.730316,159.838577 161.443329,159.657043 161.068512,159.229675 
	C161.292419,159.146866 161.604172,159.309921 161.966614,159.746521 
z"/>
<path fill="#C2A010" opacity="1.000000" stroke="none" 
	d="
M174.041931,129.968063 
	C174.213898,130.122986 174.323044,130.337845 174.432205,130.552689 
	C174.299057,130.524567 174.165924,130.496445 173.946472,130.311386 
	C173.860168,130.154449 173.979111,130.027985 174.041931,129.968063 
z"/>
<path fill="#FFFFFE" opacity="1.000000" stroke="none" 
	d="
M58.208870,130.366119 
	C58.473434,130.372742 58.534470,130.574615 58.595505,130.776505 
	C58.398781,130.704803 58.202061,130.633087 58.208870,130.366119 
z"/>
<path fill="#C4A311" opacity="1.000000" stroke="none" 
	d="
M160.234192,42.020538 
	C160.266479,41.860802 160.557022,41.711208 160.927933,41.779358 
	C160.836334,42.008293 160.664398,42.019485 160.234192,42.020538 
z"/>
<path fill="#C19E10" opacity="1.000000" stroke="none" 
	d="
M137.935059,119.052460 
	C137.747025,118.899887 137.643219,118.666336 137.539429,118.432785 
	C137.681427,118.454239 137.823441,118.475693 138.072876,118.649628 
	C138.180328,118.802116 138.019287,118.971481 137.935059,119.052460 
z"/>
<path fill="#C3A110" opacity="1.000000" stroke="none" 
	d="
M164.132370,43.012291 
	C163.941071,43.036442 163.749756,43.060596 163.270782,43.053871 
	C162.983139,43.022991 163.024658,42.533142 163.062714,42.290672 
	C163.100769,42.048206 163.547424,42.013981 163.807861,42.259220 
	C164.089645,42.673733 164.111008,42.843010 164.132370,43.012291 
z"/>
<path fill="#8C570C" opacity="1.000000" stroke="none" 
	d="
M104.115189,30.256859 
	C104.309479,30.243227 104.555183,30.484308 104.834976,30.990898 
	C104.634903,31.008129 104.400757,30.759851 104.115189,30.256859 
z"/>
<path fill="#8C570C" opacity="1.000000" stroke="none" 
	d="
M106.119690,41.257263 
	C106.314308,41.244011 106.558243,41.485390 106.835510,41.991570 
	C106.635559,42.008209 106.402283,41.760052 106.119690,41.257263 
z"/>
<path fill="#87500C" opacity="1.000000" stroke="none" 
	d="
M108.139870,52.269600 
	C108.333298,52.253311 108.575081,52.491508 108.858994,52.991005 
	C108.663490,53.009571 108.425865,52.766830 108.139870,52.269600 
z"/>
<path fill="#8C570C" opacity="1.000000" stroke="none" 
	d="
M98.343323,37.102165 
	C98.252052,36.932217 98.373444,36.612225 98.712807,36.147987 
	C98.805855,36.319874 98.680923,36.636002 98.343323,37.102165 
z"/>
<path fill="#87500C" opacity="1.000000" stroke="none" 
	d="
M131.488647,23.988016 
	C132.153961,23.844790 132.852890,23.720978 133.551819,23.597164 
	C133.572571,23.837681 133.593307,24.078197 133.614059,24.318714 
	C133.054337,24.318714 132.494629,24.318714 131.693512,24.139351 
	C131.452103,23.959990 131.522263,24.007429 131.488647,23.988016 
z"/>
<path fill="#87500C" opacity="1.000000" stroke="none" 
	d="
M135.533264,24.552368 
	C135.476746,24.586510 135.589767,24.518227 135.533264,24.552368 
z"/>
<path fill="#87500C" opacity="1.000000" stroke="none" 
	d="
M129.295959,53.835045 
	C129.201721,53.665817 129.329849,53.344421 129.661224,52.850956 
	C129.749069,53.013546 129.633698,53.348209 129.295959,53.835045 
z"/>
<path fill="#87500C" opacity="1.000000" stroke="none" 
	d="
M179.723114,68.600761 
	C179.849289,68.441605 180.067520,68.418686 180.285736,68.395760 
	C180.128860,68.509506 179.972000,68.623253 179.723114,68.600761 
z"/>
<path fill="#87500C" opacity="1.000000" stroke="none" 
	d="
M152.065079,74.169968 
	C152.069763,74.367973 151.801392,74.594231 151.273285,74.871658 
	C151.273041,74.681290 151.532532,74.439758 152.065079,74.169968 
z"/>
<path fill="#87500C" opacity="1.000000" stroke="none" 
	d="
M179.995758,70.994522 
	C180.089447,70.957184 180.187393,70.925255 180.148071,70.950821 
	C180.010818,71.008324 180.000000,70.999931 179.995758,70.994522 
z"/>
<path fill="#87500C" opacity="1.000000" stroke="none" 
	d="
M166.063141,71.170547 
	C166.067291,71.367432 165.799957,71.592972 165.273682,71.867950 
	C165.273682,71.677994 165.532669,71.438606 166.063141,71.170547 
z"/>
<path fill="#87500C" opacity="1.000000" stroke="none" 
	d="
M164.398804,42.854572 
	C164.111008,42.843010 164.089645,42.673733 164.031693,42.251125 
	C164.440033,41.351780 164.884964,40.705765 165.665497,40.028412 
	C166.001068,39.997070 166.042908,40.032986 166.042908,40.032990 
	C165.583694,40.920944 165.124481,41.808899 164.398804,42.854572 
z"/>
<path fill="#87500C" opacity="1.000000" stroke="none" 
	d="
M165.983124,39.976128 
	C166.080460,39.935886 166.195709,39.916580 166.176941,39.965134 
	C166.042908,40.032986 166.001068,39.997070 165.983124,39.976128 
z"/>
<path fill="#864C02" opacity="1.000000" stroke="none" 
	d="
M109.155174,119.117500 
	C103.419762,122.526108 96.115173,121.498009 89.300713,116.021194 
	C97.919617,112.953377 106.092003,113.029808 115.717384,116.307945 
	C112.996933,117.623398 111.446777,118.372963 109.424515,118.768906 
	C107.632164,118.062691 106.311913,117.710114 104.991661,117.357536 
	C104.955086,117.847649 104.918510,118.337761 104.881935,118.827881 
	C106.306351,118.924423 107.730759,119.020966 109.155174,119.117500 
M96.911972,117.260628 
	C96.913887,117.753815 96.915802,118.247002 96.917717,118.740196 
	C97.465034,118.595978 98.012360,118.451759 98.559677,118.307541 
	C98.212418,117.916054 97.865150,117.524574 96.911972,117.260628 
z"/>
<path fill="#8D5403" opacity="1.000000" stroke="none" 
	d="
M110.973961,95.017380 
	C110.135590,94.252579 109.297218,93.487778 108.448753,92.713776 
	C112.034508,89.893860 116.393234,89.977966 121.050560,93.141365 
	C118.219299,97.976624 113.372200,99.685196 109.627403,97.083260 
	C109.499367,96.994308 110.109398,95.843109 110.678551,95.249237 
	C111.106308,95.293472 111.230934,95.275497 111.355560,95.257523 
	C111.228363,95.177475 111.101158,95.097427 110.973961,95.017380 
z"/>
<path fill="#844A02" opacity="1.000000" stroke="none" 
	d="
M88.195198,98.038834 
	C86.665207,96.072044 85.557159,94.150269 83.651123,90.844475 
	C88.787895,91.087509 92.288048,91.253113 97.140022,91.482666 
	C94.838486,93.396538 93.960159,94.126923 93.081833,94.857300 
	C93.853218,95.137589 94.624619,95.417877 95.396011,95.698166 
	C95.483665,96.051392 95.571320,96.404610 95.658974,96.757835 
	C93.311699,97.199837 90.964417,97.641846 88.195198,98.038834 
z"/>
<path fill="#986105" opacity="1.000000" stroke="none" 
	d="
M102.020447,108.717529 
	C104.202950,107.677536 106.023117,106.639954 108.036766,105.492081 
	C108.859138,106.446686 110.216331,108.022118 111.938721,110.021469 
	C105.182640,110.021469 98.830070,110.021469 91.972214,110.021469 
	C93.579300,108.305763 94.779671,107.024261 96.045624,105.672745 
	C97.872063,106.664383 99.765091,107.692162 102.020447,108.717529 
z"/>
<path fill="#894F02" opacity="1.000000" stroke="none" 
	d="
M112.495071,88.100998 
	C110.668945,88.494926 109.250359,88.842628 107.172859,89.351837 
	C113.381989,83.621986 117.872215,83.807945 124.531219,89.722191 
	C120.484337,89.141914 116.693474,88.598343 112.495071,88.100998 
z"/>
<path fill="#894F02" opacity="1.000000" stroke="none" 
	d="
M92.048401,85.576324 
	C93.647209,86.662300 94.908211,87.569710 95.858292,88.253380 
	C90.508324,88.591087 85.252731,88.922836 78.915886,89.322845 
	C83.361290,86.822273 86.886185,84.384483 92.048401,85.576324 
z"/>
<path fill="#8F5604" opacity="1.000000" stroke="none" 
	d="
M109.131165,119.052811 
	C107.730759,119.020966 106.306351,118.924423 104.881935,118.827881 
	C104.918510,118.337761 104.955086,117.847649 104.991661,117.357536 
	C106.311913,117.710114 107.632164,118.062691 109.073700,118.763077 
	C109.194977,119.110870 109.107147,118.988129 109.131165,119.052811 
z"/>
<path fill="#8F5604" opacity="1.000000" stroke="none" 
	d="
M97.214928,117.196854 
	C97.865150,117.524574 98.212418,117.916054 98.559677,118.307541 
	C98.012360,118.451759 97.465034,118.595978 96.917717,118.740189 
	C96.915802,118.247002 96.913887,117.753815 97.214928,117.196854 
z"/>
<path fill="#EFC616" opacity="1.000000" stroke="none" 
	d="
M110.991768,95.003387 
	C111.101158,95.097427 111.228363,95.177475 111.355560,95.257523 
	C111.230934,95.275497 111.106308,95.293472 111.012077,95.134689 
	C111.042473,94.957939 111.009575,94.989388 110.991768,95.003387 
z"/>
</svg>